<svg width="39" height="25" viewBox="0 0 39 25" fill="none" xmlns="http://www.w3.org/2000/svg">
<mask id="mask0_322_6498" style="mask-type:luminance" maskUnits="userSpaceOnUse" x="0" y="0" width="39" height="25">
<path d="M0 0H38.0875V24.9092H0V0Z" fill="white"/>
</mask>
<g mask="url(#mask0_322_6498)">
<path d="M38.088 3.35142C38.1233 2.63848 37.9227 1.9807 37.5084 1.44884C36.8498 0.602781 35.805 0.256203 35.1101 0.216028C33.7633 0.138079 32.1067 0.0607281 30.2531 -0.0118256C30.7531 -6.53025 30.0998 -11.4633 28.3106 -14.673C26.2715 -18.3307 22.5352 -20.5157 18.7911 -20.2417C15.1946 -19.9766 11.7001 -17.463 9.67181 -13.6789C7.80522 -10.1987 7.12741 -4.75418 7.99079 -0.331421C6.99798 -0.311634 6.06807 -0.284651 5.21768 -0.249872C5.21872 -0.279854 5.21768 -0.310434 5.21456 -0.341614C4.54507 -6.55603 5.41313 -11.543 7.94817 -16.0366C10.3777 -20.3436 14.5511 -23.2062 18.8394 -23.506C23.2743 -23.816 27.6968 -21.3587 30.1096 -17.246C32.5859 -13.0235 33.4389 -8.23195 32.8744 -1.70814C32.8448 -1.36696 33.061 -1.06235 33.3558 -1.02877C33.6515 -0.996395 33.9145 -1.24344 33.9442 -1.58522C34.5357 -8.41844 33.6271 -13.463 30.9995 -17.9421C28.3777 -22.4105 23.5789 -25.0794 18.7739 -24.7454C14.1524 -24.4222 9.65829 -21.3449 7.04684 -16.7141C4.36782 -11.964 3.4457 -6.71673 4.14638 -0.198906C3.47533 -0.16173 2.86977 -0.119156 2.34269 -0.0687885C1.35456 0.0253506 0.606579 0.585991 0.234405 1.51C-0.10762 2.36205 -0.0701951 3.44436 0.32433 4.08475C0.42517 4.24904 0.518733 4.40015 1.42058 4.57883C1.38419 4.65738 1.36184 4.74552 1.35716 4.84086C1.23293 7.60149 1.1035 10.4563 1.51466 13.2679C1.84265 15.5104 2.68212 18.6614 4.81744 20.9339C7.67372 23.974 11.7037 24.4237 15.9301 24.645C18.3311 24.7703 20.7923 24.8998 23.278 24.8998C24.1585 24.8998 25.0432 24.883 25.9289 24.8446C28.0804 24.7517 30.329 24.4867 32.1997 23.1897C34.4432 21.6343 36.0031 18.6488 36.4792 15.0007C36.8956 11.806 36.4943 8.61544 36.1065 5.52862C36.1065 5.52742 36.1055 5.52563 36.1055 5.52443C37.064 5.2474 38.0246 4.66098 38.088 3.35142ZM10.5877 -13.0247C12.4356 -16.4719 15.6058 -18.7624 18.8608 -19.001C22.2217 -19.2493 25.576 -17.2849 27.4072 -14.0009C29.0711 -11.0166 29.6663 -6.32338 29.1777 -0.0508003C23.043 -0.273258 15.1265 -0.431557 9.09224 -0.34881C8.22106 -4.45438 8.85001 -9.78376 10.5877 -13.0247ZM30.8114 6.20199C31.0692 7.30648 31.2251 8.43436 31.2859 9.56763C29.2099 10.0299 26.9264 10.3705 24.5432 10.5774C24.5374 9.08374 24.474 7.5943 24.3493 6.14203C24.3456 6.09526 24.3368 6.05089 24.3243 6.00772C25.1711 6.01791 25.9944 6.0239 26.7882 6.0239C28.2243 6.0239 29.5675 6.00652 30.7968 5.97114C30.789 6.04549 30.7921 6.12464 30.8114 6.20199ZM18.3877 23.5261C17.9407 22.0396 17.5758 20.3679 17.3019 18.5858C17.8378 18.6074 18.3742 18.6248 18.9127 18.6332C19.2023 18.6374 19.4907 18.6392 19.7782 18.6392C20.8417 18.6392 21.8943 18.6104 22.9302 18.5547C22.6662 20.3847 22.3086 22.108 21.8641 23.6442C20.6982 23.6232 19.537 23.58 18.3877 23.5261ZM18.9262 17.392C18.3243 17.3836 17.7245 17.3632 17.1272 17.3363C16.9094 15.619 16.7712 13.8213 16.7213 12.0057C17.3799 12.0309 18.0421 12.0452 18.7085 12.0494C18.84 12.0506 18.9709 12.0506 19.1019 12.0506C20.5683 12.0506 22.0273 12.0009 23.4589 11.9037C23.424 13.7368 23.3003 15.5578 23.094 17.3033C21.7321 17.3824 20.3365 17.413 18.9262 17.392ZM2.92175 14.8155C2.76737 14.1949 2.65613 13.5989 2.57764 13.061C2.40923 11.9109 2.33646 10.7399 2.31878 9.56583C4.03619 10.1379 5.86951 10.6146 7.78911 10.9935C7.85097 12.793 8.13685 14.587 8.6291 16.3181C6.67103 15.9266 4.78521 15.4301 3.00284 14.8353C2.97633 14.8245 2.9493 14.8197 2.92175 14.8155ZM8.87548 11.195C11.0446 11.5745 13.314 11.83 15.6453 11.9583C15.6936 13.7655 15.8251 15.559 16.0357 17.2793C13.9232 17.145 11.8456 16.8985 9.83503 16.5436C9.28404 14.8125 8.95969 13.0082 8.87548 11.195ZM24.5338 11.8228C26.9243 11.6189 29.2192 11.2831 31.3145 10.8256C31.2984 12.6754 31.0286 14.5259 30.5244 16.3079C28.582 16.7432 26.4378 17.055 24.1845 17.2307C24.3836 15.4762 24.5016 13.654 24.5338 11.8228ZM23.2795 6.26315C23.4032 7.70403 23.4651 9.18088 23.4687 10.6601C21.9099 10.7675 20.3151 10.8184 18.7136 10.8088C18.0384 10.8052 17.3663 10.7896 16.7 10.7645C16.6901 9.11612 16.7509 7.46478 16.8881 5.85961C16.8897 5.83982 16.8907 5.82004 16.8907 5.80085C19.1222 5.89379 21.2783 5.95795 23.3092 5.99273C23.2821 6.07547 23.2707 6.16781 23.2795 6.26315ZM15.6245 10.7141C13.2896 10.5834 11.0191 10.3219 8.85469 9.9364C8.876 8.54289 9.03922 7.15358 9.35525 5.79725C9.38852 5.65454 9.37605 5.51003 9.32771 5.38471C10.7738 5.48485 12.3228 5.57899 13.9196 5.66114C14.5563 5.69412 15.1884 5.7241 15.8153 5.75288C15.6775 7.37604 15.6157 9.04417 15.6245 10.7141ZM8.31774 5.47466C7.99287 6.86996 7.81718 8.29945 7.78287 9.73253C5.95891 9.36496 4.21708 8.90805 2.58388 8.3618C2.49396 8.33183 2.40299 8.32943 2.31774 8.35221C2.33126 7.19675 2.38324 6.04249 2.43418 4.90502C2.43678 4.84866 2.43262 4.79409 2.42274 4.74133C3.00491 4.82228 3.76018 4.90982 4.74207 5.00696C5.81285 5.11249 7.04112 5.21742 8.377 5.31516C8.35101 5.36433 8.33126 5.41709 8.31774 5.47466ZM3.34434 16.2312C5.16051 16.8068 7.07335 17.2835 9.05533 17.6558C9.73107 19.565 10.6683 21.3753 11.8446 23.0098C9.41711 22.6075 7.22513 21.804 5.54931 20.0201C4.51076 18.9168 3.81372 17.5647 3.34434 16.2312ZM13.4445 23.2209C12.1242 21.6259 11.0721 19.8115 10.3086 17.8783C12.2271 18.1925 14.2008 18.4108 16.2041 18.5307C16.465 20.2978 16.8107 21.9671 17.2364 23.4703C16.8164 23.4481 16.398 23.4265 15.9811 23.405C15.1239 23.3606 14.2746 23.3054 13.4445 23.2209ZM25.8915 23.6046C24.9236 23.646 23.9563 23.6604 22.991 23.6574C23.424 22.0822 23.7718 20.3325 24.028 18.4851C26.1654 18.3274 28.2119 18.0498 30.0935 17.663C29.3284 19.7989 28.2145 21.8046 26.783 23.5531C26.5007 23.5735 26.2049 23.5914 25.8915 23.6046ZM35.4183 14.8167C34.991 18.0978 33.6162 20.7613 31.6488 22.1266C30.9491 22.6117 30.0478 23.0812 28.359 23.3648C29.6574 21.5504 30.6591 19.5207 31.339 17.3824C31.9087 17.2451 32.4596 17.0964 32.9909 16.9369C33.2788 16.8512 33.4509 16.5118 33.3766 16.1796C33.3017 15.8474 33.008 15.6489 32.7206 15.7347C32.3973 15.8324 32.0646 15.9254 31.7262 16.0141C32.1686 14.238 32.3941 12.405 32.3889 10.5756C32.6353 10.5144 32.8781 10.4521 33.1182 10.3879C33.4077 10.3106 33.5876 9.97777 33.5205 9.64318C33.4535 9.3092 33.164 9.10233 32.8755 9.17908C32.7019 9.22525 32.5262 9.27082 32.3484 9.31519C32.2787 8.17772 32.1181 7.04505 31.8624 5.93396C32.8323 5.89559 33.7186 5.84522 34.5045 5.78286C34.6521 5.77147 34.8393 5.75588 35.0493 5.73129C35.4235 8.72097 35.8097 11.8114 35.4183 14.8167ZM37.0146 3.28066C36.9793 4.005 36.1575 4.40614 34.4281 4.54465C30.105 4.89123 22.6542 4.85525 14.4976 4.44752C7.25008 4.08535 2.07136 3.55889 1.15132 3.25308C1.05776 2.98625 1.03125 2.48438 1.21214 2.03346C1.41902 1.51719 1.83018 1.22758 2.43314 1.16942C8.88328 0.554213 27.2211 1.00632 35.0571 1.45723C35.567 1.48601 36.3014 1.75584 36.7095 2.27931C36.934 2.56712 37.0344 2.89511 37.0146 3.28066Z" fill="#E8E3CE"/>
</g>
</svg>
