<svg width="227" height="403" viewBox="0 0 227 403" fill="none" xmlns="http://www.w3.org/2000/svg">
<path d="M227 32.2372V44.8438H225.598V36.8794C225.598 35.78 224.997 34.7609 224.028 34.2112L217 30.2311L217.699 29.0354L218.402 27.8438L225.43 31.8239C225.917 32.1008 226.46 32.2372 227 32.2372Z" fill="#E8E3CE"/>
<path d="M152.713 27.9336L145.872 31.8812C144.925 32.4264 143.763 32.4264 142.816 31.8812L135.975 27.9336L135.291 29.1155L134.606 30.2974L141.447 34.249C142.394 34.7942 142.975 35.805 142.975 36.8954V44.7947H145.709V36.8954C145.709 35.805 146.29 34.7942 147.237 34.249L154.078 30.2974L153.393 29.1155L152.709 27.9336H152.713Z" fill="#E8E3CE"/>
<path d="M187.088 0H184.358V7.89928C184.358 8.98966 183.773 10.0005 182.83 10.5456L175.989 14.4973L176.673 15.6792L177.358 16.8611L184.199 12.9095C185.146 12.3643 186.308 12.3643 187.255 12.9095L194.096 16.8611L194.78 15.6792L195.465 14.4973L188.624 10.5456C187.677 10.0005 187.096 8.98966 187.096 7.89928V0H187.088Z" fill="#E8E3CE"/>
<path d="M104.326 0H101.593V7.89928C101.593 8.98966 101.011 10.0005 100.064 10.5456L93.2236 14.4973L93.9081 15.6792L94.5926 16.8611L101.433 12.9095C102.38 12.3643 103.542 12.3643 104.49 12.9095L111.33 16.8611L112.015 15.6792L112.699 14.4973L105.859 10.5456C104.911 10.0005 104.33 8.98966 104.33 7.89928V0H104.326Z" fill="#E8E3CE"/>
<path d="M227 175.24V187.844H225.598V179.877C225.598 178.778 224.997 177.759 224.028 177.21L217 173.23L217.699 172.035L218.402 170.844L225.43 174.827C225.917 175.104 226.46 175.24 227 175.24Z" fill="#E8E3CE"/>
<path d="M60.1183 187.677H62.8482V179.778C62.8482 178.688 63.4332 177.677 64.3763 177.132L71.2171 173.184L70.5326 171.998L69.8481 170.816L63.0074 174.764C62.0603 175.309 60.8983 175.309 59.9511 174.764L53.1104 170.816L52.4259 171.998L51.7415 173.184L58.5822 177.132C59.5293 177.677 60.1103 178.688 60.1103 179.778V187.677H60.1183Z" fill="#E8E3CE"/>
<path d="M21.4695 142.879H18.7356V150.778C18.7356 151.869 18.1545 152.879 17.2074 153.425L10.3667 157.376L11.0512 158.558L11.7356 159.74L18.5764 155.792C19.5235 155.247 20.6855 155.247 21.6326 155.792L28.4734 159.74L29.1578 158.558L29.8423 157.376L23.0016 153.425C22.0544 152.879 21.4735 151.869 21.4735 150.778V142.879H21.4695Z" fill="#E8E3CE"/>
<path d="M227 71.8438V84.4503C226.46 84.4503 225.917 84.5867 225.43 84.8636L218.402 88.8438L217.699 87.6521L217 86.4605L224.028 82.4763C224.997 81.9266 225.598 80.9075 225.598 79.8081V71.8438H227Z" fill="#E8E3CE"/>
<path d="M152.713 170.969L145.872 174.916C144.925 175.462 143.763 175.462 142.816 174.916L135.975 170.969L135.291 172.151L134.606 173.333L141.447 177.284C142.394 177.829 142.975 178.84 142.975 179.931V187.83H145.709V179.931C145.709 178.84 146.29 177.829 147.237 177.284L154.078 173.333L153.394 172.151L152.709 170.969H152.713Z" fill="#E8E3CE"/>
<path d="M187.088 143.031H184.358V150.931C184.358 152.021 183.773 153.032 182.83 153.577L175.989 157.529L176.673 158.71L177.358 159.892L184.199 155.941C185.146 155.396 186.308 155.396 187.255 155.941L194.096 159.892L194.78 158.71L195.465 157.529L188.624 153.577C187.677 153.032 187.096 152.021 187.096 150.931V143.031H187.088Z" fill="#E8E3CE"/>
<path d="M184.358 116.158H187.088V108.259C187.088 107.168 187.673 106.158 188.616 105.612L195.457 101.665L194.772 100.479L194.088 99.2969L187.247 103.245C186.3 103.79 185.138 103.79 184.191 103.245L177.35 99.2969L176.665 100.479L175.981 101.665L182.822 105.612C183.769 106.158 184.35 107.168 184.35 108.259V116.158H184.358Z" fill="#E8E3CE"/>
<path d="M145.709 71.3594H142.975V79.2587C142.975 80.349 142.394 81.3598 141.447 81.905L134.606 85.8567L135.291 87.0386L135.975 88.2205L142.816 84.2728C143.763 83.7276 144.925 83.7276 145.872 84.2728L152.713 88.2205L153.398 87.0386L154.082 85.8567L147.241 81.905C146.294 81.3598 145.713 80.349 145.713 79.2587V71.3594H145.709Z" fill="#E8E3CE"/>
<path d="M111.33 99.2969L104.49 103.245C103.542 103.79 102.38 103.79 101.433 103.245L94.5926 99.2969L93.9081 100.479L93.2236 101.665L100.064 105.612C101.011 106.158 101.593 107.168 101.593 108.259V116.158H104.326V108.259C104.326 107.168 104.907 106.158 105.855 105.612L112.695 101.665L112.011 100.479L111.326 99.2969H111.33Z" fill="#E8E3CE"/>
<path d="M104.326 143.031H101.593V150.931C101.593 152.021 101.011 153.032 100.064 153.577L93.2236 157.529L93.9081 158.71L94.5926 159.892L101.433 155.941C102.38 155.396 103.542 155.396 104.49 155.941L111.33 159.892L112.015 158.71L112.699 157.529L105.859 153.577C104.911 153.032 104.33 152.021 104.33 150.931V143.031H104.326Z" fill="#E8E3CE"/>
<path d="M227 318.24V330.844H225.598V322.881C225.598 321.778 224.997 320.763 224.028 320.214L217 316.23L217.699 315.039L218.402 313.844L225.43 317.827C225.917 318.1 226.46 318.24 227 318.24Z" fill="#E8E3CE"/>
<path d="M227 214.844V227.447C226.46 227.447 225.917 227.588 225.43 227.861L218.402 231.844L217.699 230.648L217 229.457L224.028 225.474C224.997 224.924 225.598 223.909 225.598 222.806V214.844H227Z" fill="#E8E3CE"/>
<path d="M152.713 314.004L145.872 317.952C144.925 318.497 143.763 318.497 142.816 317.952L135.975 314.004L135.291 315.186L134.606 316.368L141.447 320.319C142.394 320.865 142.975 321.875 142.975 322.966V330.865H145.709V322.966C145.709 321.875 146.29 320.865 147.237 320.319L154.078 316.368L153.393 315.186L152.709 314.004H152.713Z" fill="#E8E3CE"/>
<path d="M187.088 286.07H184.358V293.97C184.358 295.06 183.773 296.071 182.83 296.616L175.989 300.568L176.673 301.75L177.358 302.931L184.199 298.98C185.146 298.435 186.308 298.435 187.255 298.98L194.096 302.931L194.78 301.75L195.465 300.568L188.624 296.616C187.677 296.071 187.096 295.06 187.096 293.97V286.07H187.088Z" fill="#E8E3CE"/>
<path d="M184.358 259.197H187.088V251.298C187.088 250.207 187.673 249.197 188.616 248.651L195.457 244.704L194.772 243.518L194.088 242.336L187.247 246.284C186.3 246.829 185.138 246.829 184.191 246.284L177.35 242.336L176.665 243.518L175.981 244.704L182.822 248.651C183.769 249.197 184.35 250.207 184.35 251.298V259.197H184.358Z" fill="#E8E3CE"/>
<path d="M145.709 214.398H142.975V222.298C142.975 223.388 142.394 224.399 141.447 224.944L134.606 228.896L135.291 230.078L135.975 231.26L142.816 227.312C143.763 226.767 144.925 226.767 145.872 227.312L152.713 231.26L153.397 230.078L154.082 228.896L147.241 224.944C146.294 224.399 145.713 223.388 145.713 222.298V214.398H145.709Z" fill="#E8E3CE"/>
<path d="M111.33 242.328L104.49 246.276C103.542 246.821 102.38 246.821 101.433 246.276L94.5926 242.328L93.9081 243.51L93.2236 244.696L100.064 248.644C101.011 249.189 101.593 250.2 101.593 251.29V259.189H104.326V251.29C104.326 250.2 104.907 249.189 105.855 248.644L112.695 244.696L112.011 243.51L111.326 242.328H111.33Z" fill="#E8E3CE"/>
<path d="M104.326 286.07H101.593V293.97C101.593 295.06 101.011 296.071 100.064 296.616L93.2236 300.568L93.9081 301.75L94.5926 302.931L101.433 298.98C102.38 298.435 103.542 298.435 104.49 298.98L111.33 302.931L112.015 301.75L112.699 300.568L105.859 296.616C104.911 296.071 104.33 295.06 104.33 293.97V286.07H104.326Z" fill="#E8E3CE"/>
<path d="M28.4734 242.484L21.6326 246.432C20.6855 246.977 19.5235 246.977 18.5764 246.432L11.7356 242.484L11.0512 243.666L10.3667 244.848L17.2074 248.8C18.1545 249.345 18.7356 250.356 18.7356 251.446V259.345H21.4695V251.446C21.4695 250.356 22.0505 249.345 22.9976 248.8L29.8383 244.848L29.1539 243.666L28.4694 242.484H28.4734Z" fill="#E8E3CE"/>
<path d="M62.8483 214.551H60.1184V222.45C60.1184 223.54 59.5334 224.551 58.5903 225.096L51.7495 229.048L52.434 230.23L53.1185 231.412L59.9592 227.46C60.9063 226.915 62.0683 226.915 63.0154 227.46L69.8562 231.412L70.5406 230.23L71.2251 229.048L64.3844 225.096C63.4373 224.551 62.8563 223.54 62.8563 222.45V214.551H62.8483Z" fill="#E8E3CE"/>
<path d="M227 357.844V370.446C226.46 370.446 225.917 370.583 225.43 370.86L218.402 374.844L217.699 373.652L217 372.46L224.028 368.476C224.997 367.927 225.598 366.907 225.598 365.808V357.844H227Z" fill="#E8E3CE"/>
<path d="M184.358 402.232H187.088V394.333C187.088 393.243 187.673 392.232 188.616 391.687L195.457 387.739L194.772 386.553L194.088 385.371L187.247 389.319C186.3 389.864 185.138 389.864 184.191 389.319L177.35 385.371L176.665 386.553L175.981 387.739L182.822 391.687C183.769 392.232 184.35 393.243 184.35 394.333V402.232H184.358Z" fill="#E8E3CE"/>
<path d="M145.709 357.434H142.975V365.333C142.975 366.423 142.394 367.434 141.447 367.979L134.606 371.931L135.291 373.113L135.975 374.295L142.816 370.347C143.763 369.802 144.925 369.802 145.872 370.347L152.713 374.295L153.397 373.113L154.082 371.931L147.241 367.979C146.294 367.434 145.713 366.423 145.713 365.333V357.434H145.709Z" fill="#E8E3CE"/>
<path d="M111.33 385.371L104.49 389.319C103.542 389.864 102.38 389.864 101.433 389.319L94.5926 385.371L93.9081 386.553L93.2236 387.739L100.064 391.687C101.011 392.232 101.593 393.243 101.593 394.333V402.232H104.326V394.333C104.326 393.243 104.907 392.232 105.855 391.687L112.695 387.739L112.011 386.553L111.326 385.371H111.33Z" fill="#E8E3CE"/>
<path d="M21.4695 142.879H18.7356V150.778C18.7356 151.869 18.1545 152.879 17.2074 153.425L10.3667 157.376L11.0512 158.558L11.7356 159.74L18.5764 155.792C19.5235 155.247 20.6855 155.247 21.6326 155.792L28.4734 159.74L29.1578 158.558L29.8423 157.376L23.0016 153.425C22.0544 152.879 21.4735 151.869 21.4735 150.778V142.879H21.4695Z" fill="#E8E3CE"/>
<path d="M21.4695 142.879H18.7356V150.778C18.7356 151.869 18.1545 152.879 17.2074 153.425L10.3667 157.376L11.0512 158.558L11.7356 159.74L18.5764 155.792C19.5235 155.247 20.6855 155.247 21.6326 155.792L28.4734 159.74L29.1578 158.558L29.8423 157.376L23.0016 153.425C22.0544 152.879 21.4735 151.869 21.4735 150.778V142.879H21.4695Z" fill="#E8E3CE"/>
<path d="M28.4734 242.484L21.6326 246.432C20.6855 246.977 19.5235 246.977 18.5764 246.432L11.7356 242.484L11.0512 243.666L10.3667 244.848L17.2074 248.8C18.1545 249.345 18.7356 250.356 18.7356 251.446V259.345H21.4695V251.446C21.4695 250.356 22.0505 249.345 22.9976 248.8L29.8383 244.848L29.1539 243.666L28.4694 242.484H28.4734Z" fill="#E8E3CE"/>
<path d="M28.4734 242.484L21.6326 246.432C20.6855 246.977 19.5235 246.977 18.5764 246.432L11.7356 242.484L11.0512 243.666L10.3667 244.848L17.2074 248.8C18.1545 249.345 18.7356 250.356 18.7356 251.446V259.345H21.4695V251.446C21.4695 250.356 22.0505 249.345 22.9976 248.8L29.8383 244.848L29.1539 243.666L28.4694 242.484H28.4734Z" fill="#E8E3CE"/>
</svg>
