<svg width="132" height="48" viewBox="0 0 132 48" fill="none" xmlns="http://www.w3.org/2000/svg">
<mask id="mask0_663_923" style="mask-type:luminance" maskUnits="userSpaceOnUse" x="0" y="0" width="132" height="48">
<path d="M131.198 5.52229e-06L131.198 47.1784L0 47.1784L2.14161e-06 0L131.198 5.52229e-06Z" fill="white"/>
</mask>
<g mask="url(#mask0_663_923)">
<path fill-rule="evenodd" clip-rule="evenodd" d="M108.03 47.1395C107.097 47.1766 106.194 47.0755 106.035 47.0553C103.542 46.7689 101.79 45.8895 100.947 45.4211C96.3616 42.8637 93.8514 38.1297 93.8278 33.389C93.8211 31.7885 94.1681 30.2723 94.7949 28.911C94.6365 28.9245 94.4748 28.9313 94.3097 28.9313C93.0765 28.9313 91.941 28.5168 91.0346 27.8227L83.0525 27.8227C82.1461 28.5202 81.0073 28.9313 79.7741 28.9313C78.5442 28.9313 77.4054 28.5202 76.499 27.8227C72.6276 27.8227 16.0755 27.8227 16.0755 27.8227L16.0755 29.467L17.5243 29.467L17.7096 29.4838L17.8849 29.5377L18.0432 29.6253L18.178 29.7365L18.2925 29.8713L18.3768 30.0297L18.4307 30.2015L18.4509 30.3868L18.4509 42.7728L18.4307 42.9581L18.3768 43.1299L18.2925 43.2883L18.178 43.4231L18.0432 43.5342L17.8848 43.6219L17.7096 43.6758L17.5243 43.6926L14.3335 43.6926L14.1482 43.6758L13.973 43.6219L13.818 43.5342L13.6798 43.4231L13.5686 43.2883L13.481 43.1299L13.4271 42.9581L13.4103 42.7728L13.4103 37.4996L9.25581 37.4996L9.25581 42.7728L9.23559 42.9581L9.18168 43.1299L9.09744 43.2883L8.98288 43.4231L8.84811 43.5342L8.68974 43.6219L8.51453 43.6758L8.32922 43.6926L5.14176 43.6926L4.95308 43.6758L4.77787 43.6219L4.62287 43.5376L4.48473 43.4231L4.37354 43.2883L4.28593 43.1299L4.23203 42.9581L4.21518 42.7728L4.21518 30.3868L4.23203 30.2015L4.28594 30.0297L4.37354 29.8713L4.48473 29.7365L4.62287 29.6253L4.78124 29.5377L4.95308 29.4838L5.14176 29.467L6.58724 29.467L6.58724 27.8227L4.28931 27.8227C1.9341 27.8227 0.027009 25.9257 0.0270091 23.5874C0.0270092 21.249 1.9341 19.352 4.28931 19.352L76.499 19.352C77.4054 18.6579 78.5442 18.2435 79.7741 18.2435C81.0073 18.2435 82.1461 18.6579 83.0525 19.352L91.0346 19.352C91.941 18.6579 93.0765 18.2435 94.3097 18.2435C94.4748 18.2435 94.6365 18.2502 94.7949 18.2637C94.1681 16.9025 93.8211 15.3863 93.8278 13.7892C93.8514 9.04503 96.3616 4.31102 100.947 1.75364L100.951 1.75364C101.79 1.28867 103.542 0.405882 106.035 0.119483C106.194 0.102637 107.097 -0.00181535 108.03 0.0352483C109.236 0.0824196 110.183 0.257629 110.547 0.328387C110.671 0.355342 111.403 0.496857 112.077 0.709129C112.582 0.864121 113.502 1.17411 114.597 1.72669C114.691 1.77723 115.267 2.07037 115.753 2.37698C116.699 2.97674 118.644 4.33124 120.315 6.7471C120.591 7.14469 121.838 8.93048 122.505 11.6428C122.549 11.8147 122.751 12.593 122.855 13.7352C127.576 14.5607 131.168 18.6613 131.168 23.5874C131.168 28.5168 127.576 32.614 122.855 33.4429C122.751 34.5851 122.549 35.3634 122.505 35.5353C121.838 38.2477 120.591 40.0334 120.315 40.4277C118.643 42.8469 116.699 44.198 115.753 44.8011C115.267 45.1078 114.691 45.4009 114.597 45.4481C113.502 46.004 112.582 46.3106 112.077 46.469C111.403 46.6779 110.671 46.8228 110.547 46.8464C110.183 46.9171 109.236 47.0923 108.03 47.1395ZM106.18 45.812C106.325 45.8288 107.137 45.9232 107.979 45.8895C109.091 45.8457 109.967 45.6839 110.304 45.6165C110.415 45.5963 111.083 45.4649 111.703 45.2729C112.168 45.128 113.017 44.8449 114.024 44.3328C114.108 44.289 114.634 44.0228 115.075 43.7432C115.948 43.1906 117.74 41.9439 119.277 39.7201C119.53 39.3562 120.672 37.7187 121.282 35.2354C121.322 35.0636 121.545 34.2145 121.629 32.9914C121.454 32.9981 121.278 33.0049 121.103 33.0049C120.557 33.0049 120.018 32.9577 119.499 32.8701C119.489 32.9004 119.479 32.9307 119.472 32.9611C118.886 35.013 117.943 36.3406 117.366 37.0549C116.868 37.6715 115.648 39.1405 113.495 40.1884C112.42 40.7107 111.618 40.9398 111.035 41.0712C109.728 41.3711 108.791 41.3711 108.401 41.3677C107.45 41.3576 106.564 41.2498 105.59 40.9061C104.003 40.3434 103.057 39.4674 102.753 39.181C101.332 37.8332 100.29 35.8554 100.327 33.4867C100.358 31.4381 101.86 29.8107 103.69 29.4737C103.757 29.4603 104.152 29.3895 104.543 29.4063L104.657 29.4232L104.755 29.4569L104.923 29.5681L104.997 29.6489L105.061 29.7433L105.105 29.8612L105.125 29.9926C105.132 30.3127 105.119 30.3127 105.186 30.6261C105.203 30.7103 105.297 31.1618 105.614 31.6234C106.264 32.577 107.218 32.7656 107.383 32.7993C107.572 32.8364 107.76 32.8364 107.949 32.8532C108.067 32.8431 108.448 32.8027 108.532 32.7926C108.65 32.769 109.078 32.6679 109.523 32.3714C110.479 31.7211 110.671 30.7743 110.705 30.6092C110.722 30.525 110.793 30.1577 110.739 29.5445C110.452 26.3233 107.717 23.894 104.532 23.921C102.076 23.9412 99.8355 24.8812 98.1542 26.4143C97.9116 26.7411 97.6285 27.0343 97.3084 27.2904C95.9135 28.9346 95.0779 31.0607 95.088 33.3822C95.1082 37.6951 97.3927 42.0012 101.564 44.3294C102.325 44.754 103.916 45.5492 106.18 45.812ZM109.078 42.3718C109.074 42.3718 108.657 42.4459 108.414 42.4628C107.956 42.4897 107.791 42.4392 107.063 42.2C107.056 42.1966 106.962 42.1663 106.962 42.1663C106.942 42.1494 106.935 42.1225 106.915 42.109C106.938 42.0989 106.955 42.0787 106.975 42.0686C106.979 42.0686 107.595 42.0618 108.138 42.1427C108.434 42.1865 109.074 42.2741 109.074 42.2741C109.091 42.2909 109.125 42.301 109.125 42.3213C109.125 42.3449 109.098 42.3583 109.078 42.3718ZM105.291 42.5133C105.274 42.483 105.28 42.4796 105.264 42.4527C105.287 42.4493 105.304 42.4291 105.328 42.4257C105.341 42.4257 106.066 42.7357 107.154 42.8031C107.265 42.8098 108.128 42.8873 109.509 42.6346C111.231 42.3246 112.528 41.6508 112.531 41.6508C112.555 41.6541 112.575 41.6676 112.599 41.671C112.585 41.6878 112.592 41.7181 112.579 41.7384C112.572 41.7451 112.333 41.8799 112.312 41.89C111.251 42.4864 109.772 43.0659 108.299 43.1131C107.764 43.1299 106.574 43.1232 105.304 42.5201C105.297 42.5201 105.291 42.5201 105.291 42.5133ZM99.8153 29.3288C99.8119 29.3491 99.8456 29.3693 99.8422 29.3895C99.8355 29.4333 99.3705 30.5789 99.1616 31.5729C98.9426 32.6039 98.8853 33.325 98.9662 34.3695L98.8718 34.383C98.7135 33.6552 98.5652 32.641 98.8247 31.5729C99.0235 30.7474 99.4379 29.9589 99.7479 29.3625C99.7479 29.3592 99.7479 29.3524 99.7513 29.3524C99.7816 29.3356 99.7849 29.3423 99.8153 29.3288ZM98.2114 37.2503C98.2047 37.2436 98.1205 37.0313 98.1137 37.0111C97.5376 35.5488 97.4163 33.7091 97.615 32.5062C98.144 29.3255 99.4042 28.1597 100.334 27.4319C100.503 27.3005 100.691 27.1589 100.85 27.0444C100.856 27.0376 100.86 27.0309 100.87 27.0275C100.904 27.0275 100.904 27.0376 100.937 27.0376C100.924 27.0545 100.941 27.0848 100.927 27.105C100.897 27.1488 100.139 27.7082 99.5794 28.3922C98.8853 29.2379 98.3226 30.4071 97.9183 32.6679C97.7633 33.5238 97.6824 35.4847 98.2856 37.1762C98.299 37.2099 98.3024 37.2099 98.299 37.2132C98.2957 37.2469 98.2788 37.2402 98.2721 37.2773C98.2552 37.2604 98.2283 37.2638 98.2114 37.2503ZM113.68 43.3388C111.645 44.4844 110.038 44.7573 109.735 44.8146C107.147 45.283 104.822 44.7304 102.261 43.5477C97.2579 41.2296 97.113 35.8251 97.0288 35.013C97.0254 34.9793 97.022 34.9793 97.0254 34.9726C97.0389 34.9423 97.0557 34.9524 97.0692 34.9187C97.0827 34.9389 97.1096 34.9423 97.1231 34.9625C97.1366 34.9793 97.177 35.7779 97.3792 36.7415C97.9116 39.2686 99.2863 41.8597 102.265 43.2411C102.322 43.2681 103.02 43.5848 103.791 43.8678C106.578 44.882 109.701 45.2021 113.64 43.0221C118.751 40.1985 119.621 36.9066 120.766 34.6491C120.783 34.6761 120.837 34.666 120.854 34.6929C120.854 34.6963 120.81 34.7536 120.446 35.5892C119.469 37.8332 118.269 40.7545 113.68 43.3388ZM100.398 40.9364C100.391 40.9027 100.395 40.9027 100.388 40.8691C100.412 40.8691 100.435 40.8623 100.455 40.8623C100.499 40.8589 102.824 43.5073 107.703 43.6488C107.824 43.6555 108.508 43.6758 109.213 43.6219C109.819 43.5747 111.824 43.3624 115.089 41.0544C116.484 40.0638 117.498 39.117 117.498 39.117C117.521 39.1203 117.545 39.1203 117.569 39.1203C117.562 39.1405 117.572 39.1675 117.565 39.1877C117.562 39.1945 117.289 39.4539 117.262 39.4775C116.285 40.394 113.754 42.6178 111.069 43.5477C110.004 43.915 109.277 43.9756 108.411 43.9858C104.873 44.0194 102.093 42.6582 100.472 41.0106C100.462 41.0038 100.415 40.9533 100.402 40.9398L100.398 40.9364ZM99.9871 31.3876C99.9972 31.3707 100.014 31.3471 100.014 31.3437C100.034 31.3134 100.031 31.3101 100.034 31.2865L100.092 31.2932C100.098 31.3168 100.115 31.3336 100.119 31.3539C100.122 31.3606 100.088 31.556 100.044 31.7312C99.9972 31.9064 99.9972 31.9064 99.9568 32.0816C99.9433 32.1423 99.9265 32.2131 99.731 32.8398C99.7142 32.8937 99.694 32.8364 99.6333 32.8364C99.5087 31.9671 99.6704 31.8626 99.9871 31.3876ZM97.5881 29.3861C97.2646 29.8983 97.0423 30.343 97.0423 30.343C97.0153 30.3633 96.9883 30.3767 96.9614 30.3936C96.9648 30.3633 96.9513 30.3329 96.9546 30.3026C96.9546 30.2891 97.0894 30.0128 97.1029 29.9892C99.0201 26.0908 102.17 24.669 105.307 25.4945C106.534 25.8179 107.989 26.5828 109.202 27.9676L109.239 28.0114C109.263 28.0384 109.236 28.0417 109.236 28.0788C109.213 28.0721 109.189 28.0822 109.169 28.0754C109.142 28.0687 107.208 25.7708 104.064 25.5955C102.059 25.4844 99.539 26.2964 97.5881 29.3861ZM108.67 30.3498C107.41 30.616 107.006 29.595 107.75 29.0088C107.804 28.9683 107.875 28.9245 107.875 28.9245C107.898 28.9245 107.919 28.9346 107.942 28.9313C107.936 28.9548 107.942 28.9784 107.936 28.9986C107.936 28.9986 107.666 29.2716 107.666 29.5815C107.669 29.6051 107.656 29.8208 107.898 29.996C108.225 30.2318 108.812 30.215 108.812 30.2184C108.828 30.2318 108.845 30.2453 108.865 30.2588C108.849 30.2723 108.842 30.2992 108.825 30.3127C108.825 30.3127 108.751 30.3329 108.67 30.3498ZM109.499 31.2258C110.109 30.5452 109.819 29.44 109.826 29.4164C109.833 29.3962 109.856 29.3794 109.863 29.3592C109.876 29.376 109.903 29.376 109.92 29.3929C109.92 29.3929 109.947 29.4771 109.971 29.5681C110.49 31.5223 108.96 32.3916 107.639 31.8896C107.1 31.6874 106.574 31.2292 106.419 30.5216C106.419 30.5149 106.416 30.5048 106.416 30.498C106.406 30.461 106.429 30.4711 106.45 30.4374C106.466 30.4542 106.49 30.4576 106.507 30.4744C106.51 30.4744 106.669 31.1012 107.332 31.4617C108.097 31.8761 109.017 31.7582 109.499 31.2258ZM95.088 13.7925C95.0779 16.1174 95.9135 18.2401 97.3084 19.8844C97.6285 20.1405 97.9116 20.437 98.1542 20.7638C99.8355 22.2969 102.076 23.237 104.532 23.2572C107.717 23.2808 110.452 20.8548 110.739 17.6336C110.793 17.0204 110.722 16.6498 110.705 16.5655C110.671 16.4004 110.479 15.4536 109.523 14.8067C109.078 14.5068 108.65 14.4058 108.532 14.3822C108.448 14.3754 108.067 14.335 107.949 14.3215C107.76 14.3384 107.572 14.3384 107.383 14.3754C107.218 14.4091 106.264 14.5978 105.614 15.5514C105.297 16.0163 105.203 16.4645 105.186 16.5487C105.119 16.8621 105.132 16.8621 105.125 17.1821L105.105 17.3136L105.061 17.4315L104.997 17.5292L104.923 17.6067L104.755 17.7212L104.657 17.7549L104.543 17.7718C104.152 17.7853 103.757 17.7145 103.69 17.701C101.86 17.3641 100.358 15.7367 100.327 13.6881C100.29 11.3194 101.332 9.34154 102.753 7.99378C103.057 7.70738 104.003 6.8347 105.59 6.27201C106.564 5.92497 107.45 5.81715 108.401 5.80704C108.791 5.80367 109.728 5.80367 111.035 6.10354C111.618 6.23495 112.42 6.46407 113.495 6.98633C115.648 8.03421 116.868 9.50327 117.366 10.1232C117.943 10.8342 118.886 12.1651 119.472 14.2137C119.479 14.244 119.489 14.2743 119.499 14.308C120.018 14.2171 120.557 14.1699 121.103 14.1699C121.278 14.1699 121.454 14.1766 121.629 14.1867C121.545 12.9603 121.322 12.1146 121.282 11.9394C120.672 9.4561 119.53 7.81857 119.277 7.45805C117.74 5.23087 115.948 3.98419 115.075 3.43161C114.634 3.15195 114.108 2.88913 114.024 2.84533C113.017 2.33318 112.168 2.04678 111.703 1.9019C111.083 1.70984 110.415 1.58181 110.304 1.55822C109.967 1.4942 109.091 1.3291 107.979 1.28867C107.137 1.25497 106.325 1.34932 106.18 1.36616C103.916 1.62561 102.325 2.42415 101.564 2.8487C97.3927 5.17359 95.1082 9.47969 95.088 13.7925ZM117.474 8.32735C117.474 8.35094 117.478 8.37452 117.478 8.39474L117.41 8.39811C117.026 8.05443 112.74 4.11897 109.037 3.88985C107.966 3.82246 104.849 3.69105 101.935 5.45662C100.917 6.07322 100.381 6.65613 100.364 6.65613C100.344 6.65276 100.321 6.64939 100.297 6.64602C100.304 6.6258 100.304 6.60222 100.307 6.582C100.307 6.57863 100.462 6.42364 100.476 6.41016C101.925 4.97816 104.805 3.33052 108.923 3.54954C109.64 3.58997 112.029 3.74159 115.931 6.9459C116.763 7.62988 117.474 8.32735 117.474 8.32735ZM97.0321 12.556C97.0254 12.593 97.0086 12.5728 96.9782 12.5964C96.9681 12.5762 96.9445 12.5627 96.9344 12.5425C96.9344 12.5425 96.9378 12.5324 96.9479 12.4043C97.0321 11.4171 97.2983 6.18441 102.231 3.94376C105.334 2.53198 108.997 1.48746 113.876 4.34135C118.842 7.24577 119.668 10.541 120.736 12.7716C120.763 12.8255 120.763 12.8255 120.763 12.8255C120.736 12.8659 120.702 12.8221 120.675 12.8659C119.52 10.5747 118.643 7.33001 113.61 4.52666C110.547 2.81838 107.743 2.46796 104.792 3.29683C104.586 3.35411 103.626 3.62366 102.288 4.22342C101.18 4.72209 98.3597 6.19452 97.3489 10.5006C97.1197 11.4811 97.0726 12.2392 97.0321 12.556ZM98.6057 15.1133C98.5484 14.2676 98.6933 13.5398 98.7809 13.1321L98.8752 13.149C98.8247 13.8127 98.7842 14.6854 99.0942 16.05C99.3132 17.017 99.7546 18.1121 99.7513 18.1256C99.7445 18.1458 99.731 18.166 99.7243 18.1896C99.7108 18.1727 99.6771 18.1829 99.6636 18.1626C99.6603 18.1626 99.4547 17.765 99.4109 17.6741C98.9359 16.7138 98.6663 15.9927 98.6057 15.1133ZM112.488 5.78008C112.501 5.81041 112.494 5.81378 112.508 5.8441L112.444 5.86432C112.262 5.77671 110.456 4.86697 108.084 4.71198C106.635 4.61764 105.665 4.93436 105.25 5.08598C105.247 5.08598 105.24 5.09272 105.237 5.08935C105.203 5.08261 105.206 5.07251 105.173 5.06577C105.186 5.04555 105.186 5.0186 105.2 5.00175C105.206 4.99501 105.408 4.90741 105.425 4.90067C106.581 4.40536 107.74 4.35146 108.576 4.42558C109.576 4.51319 110.985 4.88719 112.474 5.76997C112.477 5.77334 112.488 5.77334 112.488 5.78008ZM109.034 5.19381C109.014 5.20391 109.004 5.23087 108.98 5.24098C108.98 5.24435 108.465 5.31173 108.047 5.37238C107.481 5.45662 106.888 5.44651 106.884 5.44651C106.864 5.43977 106.847 5.41619 106.827 5.40608C106.844 5.3926 106.851 5.36565 106.871 5.35217C106.874 5.3488 107.026 5.30163 107.039 5.29489C107.818 5.04218 107.956 4.96469 108.983 5.14326C108.987 5.14663 108.987 5.14663 109.034 5.19381ZM99.6097 15.6828C99.5221 15.4974 99.4547 15.2919 99.5457 14.682C99.576 14.6922 99.6097 14.6652 99.6401 14.6753C99.6401 14.6753 99.8085 15.2178 99.8389 15.3222C99.8759 15.4604 99.8726 15.4873 99.9399 15.74C99.9972 15.9557 100.014 16.0568 100.031 16.1612C100.034 16.1983 100.017 16.1915 100.001 16.2219L99.9433 16.2286C99.9399 16.2185 99.9433 16.205 99.9399 16.1949C99.9265 16.1612 99.6839 15.8378 99.6097 15.6828ZM100.422 20.2213C99.4008 19.4464 98.1676 18.3749 97.5847 15.3424C97.5072 14.9381 97.3893 14.2811 97.4601 13.1692C97.5679 11.4643 98.0834 10.3557 98.1036 10.3052C98.1205 10.2715 98.1171 10.2681 98.1205 10.2681C98.1474 10.2445 98.1575 10.2614 98.1845 10.2412C98.1878 10.2614 98.2081 10.2816 98.2114 10.3018C98.2114 10.3187 97.9116 11.0195 97.7835 12.2055C97.5982 13.8902 97.8576 15.0156 97.861 15.0358C98.3833 17.7886 99.1279 18.9073 100.277 19.9316C100.513 20.1439 100.84 20.41 100.84 20.4134C100.846 20.4336 100.84 20.4572 100.846 20.4808C100.826 20.4707 100.799 20.4976 100.779 20.4875C100.769 20.4842 100.452 20.2449 100.422 20.2213ZM100.519 21.4714C98.4844 20.3494 97.3859 18.3446 96.867 17.2259C96.867 17.2226 96.8637 17.2192 96.8637 17.2158C96.867 17.1687 96.8704 17.1687 96.8738 17.1215C96.894 17.1451 96.9277 17.1518 96.9513 17.172C96.9715 17.1889 97.4836 18.2839 98.39 19.3419C98.9257 19.972 100.583 21.805 103.357 21.9229C105.395 22.0139 107.494 21.0974 109.041 19.4801C109.074 19.443 109.074 19.443 109.078 19.443C109.108 19.4295 109.111 19.4498 109.145 19.4396C109.142 19.4599 109.152 19.4834 109.149 19.507C109.149 19.5138 108.98 19.6957 108.963 19.7126C106.824 22.0307 103.444 23.0853 100.519 21.4714ZM107.659 18.5063C106.908 17.9167 107.319 16.8519 108.67 17.1855C108.697 17.1923 108.734 17.2024 108.734 17.2024C108.748 17.2226 108.778 17.2361 108.775 17.2563C108.768 17.3136 108.748 17.3001 108.69 17.3001C107.767 17.3136 107.376 17.7415 107.679 18.2907C107.747 18.4153 107.845 18.5164 107.845 18.5164C107.851 18.5366 107.848 18.5602 107.851 18.5838C107.831 18.5838 107.807 18.5906 107.784 18.5906C107.784 18.5906 107.713 18.5468 107.659 18.5063ZM106.426 17.0204C106.423 17.0272 106.423 17.0373 106.419 17.044C106.392 17.0642 106.386 17.0541 106.359 17.0777C106.352 17.0575 106.332 17.0406 106.325 17.017C106.325 17.017 106.335 16.9631 106.355 16.8991C106.756 15.4368 108.785 15.0055 109.637 16.1039C109.994 16.5655 110.099 17.2428 109.839 18.0885C109.829 18.1188 109.833 18.1222 109.829 18.1222C109.806 18.1492 109.795 18.1323 109.772 18.1593C109.765 18.1357 109.742 18.1222 109.735 18.0986C109.731 18.0851 110.018 16.9598 109.408 16.2926C108.872 15.703 107.925 15.6895 107.279 16.0332C107.184 16.0837 106.652 16.3533 106.426 17.0204ZM90.5865 20.6055L83.5006 20.6055C84.161 21.4209 84.5586 22.4586 84.5586 23.5874C84.5586 24.7161 84.161 25.7539 83.5006 26.5727L90.5865 26.5727C89.9261 25.7539 89.5251 24.7195 89.5251 23.5874C89.5251 22.4586 89.9261 21.4209 90.5865 20.6055ZM88.0965 23.3616C88.0965 23.3852 88.0695 23.4054 88.0493 23.4122C88.0459 23.4122 87.3822 23.5503 87.0149 23.5571C86.6914 23.5638 86.0411 23.4661 86.0378 23.4661C86.0142 23.456 86.0075 23.429 85.9839 23.4189C86.0041 23.4088 86.0142 23.3785 86.0344 23.3684C86.0411 23.3684 86.6813 23.2336 87.0082 23.2269C87.3754 23.2134 88.0459 23.3145 88.0459 23.3178C88.0628 23.3313 88.0965 23.3414 88.0965 23.3616ZM84.7102 25.4978C84.7338 25.4911 84.7439 25.454 84.7675 25.4473C84.7844 25.4439 85.9603 25.3294 86.4825 25.326C87.025 25.3226 87.5978 25.3664 88.5547 25.4473C88.5581 25.4507 88.5615 25.4473 88.5648 25.4507C88.5817 25.4641 88.5952 25.4844 88.612 25.4978C88.5884 25.5046 88.5783 25.5383 88.5547 25.545C88.5514 25.5484 87.3047 25.6663 86.6072 25.6596C86.1018 25.6528 85.3268 25.5888 85.0943 25.572C85.0708 25.5686 84.7743 25.545 84.7675 25.545C84.7439 25.5383 84.7338 25.5046 84.7102 25.4978ZM85.6975 24.3286C85.7042 24.3253 86.6544 24.1838 87.1328 24.1703C87.6787 24.1534 88.6659 24.2444 88.6693 24.2444C88.6861 24.2613 88.7165 24.268 88.7165 24.2916C88.7198 24.3152 88.6929 24.3354 88.6693 24.3421C88.6659 24.3421 87.6854 24.487 87.1429 24.5039C86.6645 24.514 85.7076 24.4264 85.7008 24.4264C85.6773 24.4196 85.6671 24.3859 85.6436 24.3792C85.6671 24.3691 85.6773 24.3354 85.6975 24.3286ZM79.7741 27.6778C80.8186 27.6778 81.7721 27.2937 82.4999 26.6535C83.3524 25.9055 83.8915 24.8071 83.8915 23.5874C83.8915 22.3677 83.3524 21.2726 82.4999 20.5212C81.7721 19.8844 80.8186 19.4969 79.7741 19.4969C78.7329 19.4969 77.7794 19.8844 77.0516 20.5212C76.1991 21.2726 75.66 22.3677 75.66 23.5874C75.66 24.8071 76.1991 25.9055 77.0516 26.6535C77.7794 27.2937 78.7329 27.6778 79.7741 27.6778ZM83.0963 24.3522C82.5538 25.9628 81.3509 27.2095 79.4809 26.9804C77.4222 26.7243 76.371 25.919 76.2732 23.5773C76.2732 23.5739 76.2732 23.5705 76.2732 23.5672C76.2935 23.5301 76.2968 23.5335 76.317 23.4964C76.3305 23.52 76.3575 23.5368 76.371 23.5604C76.3844 23.5806 76.4316 24.4735 76.8022 25.1912C77.3144 26.1818 78.1837 26.4783 79.5214 26.6502C80.3199 26.7546 81.3206 26.6434 82.2034 25.6158C82.5504 25.2148 82.8739 24.6487 83.0794 24.0591L83.0929 24.0187C83.0929 24.0187 83.0929 24.0187 83.1536 23.9883C83.1569 24.0086 83.1805 24.0254 83.1873 24.0456C83.1873 24.0456 83.1435 24.204 83.0963 24.3522ZM78.4196 23.958C78.396 23.9075 78.3623 23.7963 78.3623 23.7929C78.3656 23.7693 78.3825 23.7491 78.3859 23.7255C78.4061 23.739 78.433 23.7424 78.4533 23.7558C78.46 23.7626 78.588 24.0524 78.9081 24.2781C79.2451 24.5207 79.7336 24.5982 80.2154 24.4163C80.2795 24.3893 80.6535 24.2579 81.0679 23.8738C81.0713 23.8738 81.0713 23.8704 81.0746 23.8704C81.1083 23.867 81.1083 23.8704 81.142 23.867C81.1387 23.8906 81.1454 23.9142 81.142 23.9378C81.142 23.9412 81.0949 24.0052 81.0376 24.0759C80.6804 24.5106 80.0167 25.043 79.2552 24.7734C78.6925 24.5746 78.4836 24.1029 78.4196 23.958ZM77.4963 24.2006C77.5064 24.2073 77.9782 25.2755 78.9452 25.6798C79.0025 25.7034 80.0268 26.1953 81.2465 25.3765C82.0113 24.8644 82.4089 24.1332 82.4224 24.1231C82.4426 24.113 82.4696 24.1164 82.4898 24.1063C82.4898 24.1299 82.5066 24.1501 82.5066 24.1703C82.5066 24.1804 82.4123 24.3522 82.4056 24.3691C81.3206 26.3537 79.2754 26.7647 78.0253 25.3091C77.6345 24.8543 77.4357 24.3118 77.4222 24.268C77.4155 24.2579 77.4087 24.2512 77.4087 24.2377C77.4155 24.204 77.429 24.2107 77.4323 24.177C77.4525 24.1905 77.4795 24.1871 77.4963 24.2006ZM90.1956 23.5874C90.1956 25.8449 92.0387 27.6778 94.3097 27.6778C95.2632 27.6778 96.1426 27.3544 96.8401 26.8119C97.0962 26.5154 97.3691 26.2357 97.6555 25.9695C98.1373 25.299 98.4237 24.4769 98.4237 23.5874C98.4237 22.7012 98.1373 21.8791 97.6555 21.2052C97.3691 20.9424 97.0962 20.6594 96.8401 20.3629C96.1426 19.8204 95.2632 19.4969 94.3097 19.4969C92.0387 19.4969 90.1956 21.3299 90.1956 23.5874ZM91.3715 22.3912C91.3682 22.3946 91.3648 22.4014 91.3614 22.4047C91.3277 22.4182 91.3277 22.4081 91.294 22.4216C91.2974 22.398 91.2772 22.3778 91.2806 22.3542C91.2806 22.3542 91.3345 22.2565 91.3985 22.1486C92.6384 20.1135 94.5556 19.8709 96.1056 20.8817C96.6918 21.2659 97.3792 21.9633 97.6521 22.8697C97.6622 22.9034 97.6353 22.8967 97.6218 22.9303C97.6016 22.9169 97.578 22.9135 97.5578 22.9C97.5578 22.9 97.2545 21.9734 96.1729 21.2524C95.1857 20.592 93.6863 20.2348 92.3352 21.3231C92.0926 21.5186 91.7557 21.8286 91.3715 22.3912ZM95.4923 23.7154L95.5226 23.7356L95.489 23.7828C95.4654 23.7794 95.4418 23.7862 95.4216 23.7828C95.4081 23.7794 95.0408 23.4256 94.7275 23.2471C94.2861 22.9944 93.8211 22.927 93.1742 23.7053C93.1506 23.7289 93.154 23.7323 93.1506 23.7323C93.1169 23.7491 93.1102 23.7356 93.0798 23.7525C93.0798 23.7289 93.0664 23.7053 93.0664 23.6817C93.0664 23.6817 93.1135 23.5874 93.1371 23.5436C93.6358 22.6338 94.34 22.5294 94.9566 23.0786C95.2362 23.3279 95.4755 23.7053 95.4923 23.7154ZM92.0623 23.1797C92.0589 23.1898 92.0589 23.2033 92.0488 23.21C92.0218 23.2302 92.0151 23.2201 91.9881 23.2403C91.9814 23.2201 91.9646 23.1999 91.9578 23.1797C91.9578 23.1763 92.0016 23.018 92.0757 22.8731C92.598 21.842 94.0704 21.0165 95.3677 21.8858C96.0314 22.3306 96.3852 23.0853 96.4897 23.3111C96.493 23.3145 96.4964 23.3178 96.4964 23.3246C96.4897 23.3549 96.4829 23.3549 96.4762 23.3886C96.456 23.3751 96.429 23.3785 96.4088 23.3684C96.3987 23.3583 95.8427 22.3205 94.9162 21.9802C94.8151 21.9431 94.0805 21.6432 93.1506 22.1048C92.6654 22.3474 92.2442 22.7619 92.0623 23.1797ZM118.842 14.4428C118.839 14.426 118.832 14.4125 118.829 14.3956C118.276 12.4616 117.39 11.2082 116.848 10.5377C116.376 9.95477 115.227 8.56995 113.199 7.58271C112.188 7.09078 111.433 6.87514 110.887 6.75047C109.657 6.47081 108.775 6.46744 108.407 6.47081C107.531 6.48092 106.712 6.57863 105.816 6.89535C104.361 7.41087 103.491 8.21279 103.215 8.4756C101.914 9.70544 100.961 11.5148 100.995 13.678C101.022 15.3964 102.278 16.7643 103.811 17.0474C103.862 17.0575 104.155 17.1148 104.458 17.108C104.465 16.7879 104.458 16.7677 104.529 16.4139C104.553 16.3095 104.667 15.7535 105.061 15.1773C105.867 14.0014 107.046 13.7656 107.255 13.7251C107.474 13.6813 107.696 13.6813 107.919 13.6577L108.653 13.7285C108.758 13.7521 109.32 13.8667 109.897 14.2575C111.083 15.0594 111.318 16.232 111.359 16.4375C111.379 16.5352 111.467 16.9699 111.403 17.6909C111.153 20.501 109.219 22.7686 106.685 23.5874C109.219 24.4095 111.153 26.6738 111.403 29.4838C111.467 30.2049 111.379 30.6395 111.359 30.7406C111.318 30.9462 111.083 32.1187 109.897 32.9206C109.32 33.3081 108.758 33.426 108.653 33.4463L107.919 33.517C107.696 33.4968 107.474 33.4934 107.255 33.4496C107.046 33.4092 105.867 33.1767 105.061 31.9974C104.667 31.4246 104.553 30.8653 104.529 30.7608C104.458 30.4104 104.465 30.3868 104.458 30.0667C104.155 30.0634 103.862 30.1173 103.811 30.1274C102.278 30.4104 101.022 31.7784 100.995 33.5002C100.961 35.6633 101.914 37.4693 103.215 38.6992C103.491 38.962 104.361 39.7639 105.816 40.2794C106.712 40.5961 107.531 40.6938 108.407 40.704C108.775 40.7073 109.657 40.7073 110.887 40.4243C111.433 40.2996 112.188 40.084 113.199 39.592C115.227 38.6048 116.376 37.22 116.848 36.6371C117.39 35.9666 118.276 34.7132 118.829 32.7791C118.832 32.7656 118.839 32.7488 118.842 32.7353C114.705 31.7245 111.632 28.0114 111.632 23.5874C111.632 19.1667 114.705 15.4503 118.842 14.4428ZM4.28931 26.5727L76.0509 26.5727C75.3905 25.7539 74.9929 24.7161 74.9929 23.5874C74.9929 22.4586 75.3905 21.4209 76.0509 20.6055L4.28931 20.6055C2.63156 20.6055 1.28717 21.9397 1.28717 23.5874C1.28717 25.235 2.63156 26.5727 4.28931 26.5727ZM68.2338 22.9101C68.2338 22.9337 68.2069 22.9506 68.1867 22.9573C68.1833 22.9573 51.6665 23.0752 42.5826 23.0752C34.5263 23.0752 18.5587 22.9607 18.4981 22.9573C18.4442 22.9573 18.4004 22.9101 18.3465 22.9101C18.4004 22.9068 18.4442 22.863 18.4981 22.8596C18.5587 22.8596 34.5263 22.745 42.5826 22.745C51.6665 22.7417 68.1833 22.8596 68.1867 22.863C68.2069 22.8697 68.2338 22.8865 68.2338 22.9101ZM71.8762 22.1857C65.0632 22.4485 64.5848 22.2531 56.8318 22.1992C56.3567 22.1958 56.3567 22.1958 53.5904 22.2059C42.4512 22.243 37.2286 22.2396 25.8973 22.1958C20.267 22.1722 9.53547 22.1183 9.44786 22.1149C9.38722 22.1149 9.32993 22.0678 9.26928 22.0678C9.32993 22.0644 9.38722 22.0206 9.44786 22.0206C9.52536 22.0172 30.0686 21.9027 40.4363 21.9027C46.572 21.8993 55.8075 21.9364 56.4409 21.9397C56.9261 21.9431 58.4457 21.9701 58.6209 21.9768C65.2149 22.1048 65.5754 22.2733 73.3688 22.0307C73.416 22.0273 73.416 22.0711 73.4194 22.0745C73.4194 22.0981 73.3924 22.1183 73.3722 22.1251C73.3587 22.1284 71.9975 22.1823 71.8762 22.1857ZM23.3433 24.1467C23.3871 24.1467 23.4208 24.0995 23.4646 24.0995C23.5084 24.0995 35.0216 23.9816 40.8339 23.9816C47.384 23.9816 59.2915 24.0995 59.2948 24.0995C59.315 24.1096 59.3218 24.14 59.342 24.1467C59.2982 24.1501 59.2611 24.1972 59.214 24.1972C59.1668 24.1972 47.3402 24.3152 40.8339 24.3152C35.0216 24.3118 23.5084 24.1972 23.4646 24.1972C23.4208 24.1939 23.3871 24.1501 23.3433 24.1467ZM14.8153 30.3868L14.8153 27.2364L7.8474 27.2364L7.8474 30.3868C7.8474 30.5721 7.69577 30.7204 7.51383 30.7204L5.47533 30.7204L5.47533 42.4392L7.99565 42.4392L7.99565 36.5798C7.99565 36.3979 8.1439 36.2462 8.32922 36.2462L14.3335 36.2462C14.5188 36.2462 14.6704 36.3979 14.6704 36.5798L14.6704 42.4392L17.1908 42.4392L17.1908 30.7204L15.1489 30.7204C14.9669 30.7204 14.8153 30.5722 14.8153 30.3868ZM7.98554 32.1423C8.00913 32.1288 8.02261 32.1019 8.04619 32.0884C8.05293 32.0884 8.73018 31.9974 9.8185 32.0345C11.1595 32.0749 12.1602 32.1895 14.6165 32.6612C14.6233 32.6646 14.6266 32.6612 14.6334 32.6646C14.6469 32.6814 14.657 32.705 14.6738 32.7185C14.6435 32.742 14.6536 32.7623 14.6165 32.7623C12.0457 32.5298 12.0154 32.5466 10.2026 32.3377C8.47411 32.1389 8.07314 32.1962 8.05293 32.1861C8.02934 32.176 8.0125 32.1524 7.98554 32.1423ZM16.4731 34.0224C16.5 33.5541 16.5304 32.988 16.5304 32.988C16.5405 32.9611 16.5742 32.9476 16.5809 32.924C16.5876 32.9476 16.6213 32.9611 16.6281 32.988C16.6348 33.015 16.7089 35.5387 16.6213 37.2234C16.5573 38.5172 16.4495 39.7538 16.3282 41.0847C16.3214 41.1319 16.3248 41.1487 16.2743 41.1453C16.2507 41.1453 16.2305 41.1184 16.2271 41.0948C16.2271 41.0948 16.2406 39.5786 16.2507 38.9552C16.2878 36.6169 16.3248 36.3945 16.4731 34.0224ZM15.5499 38.1937C15.5431 38.2375 15.5431 38.251 15.4959 38.2477C15.4757 38.2443 15.4589 38.2173 15.4521 38.1971C15.4488 38.1803 15.4454 37.1122 15.4959 36.1991C15.5229 35.697 15.6476 34.6761 15.6712 34.4706C15.6745 34.4402 15.6981 34.2448 15.6981 34.2448C15.715 34.228 15.7318 34.2145 15.7487 34.201C15.752 34.2212 15.7891 34.228 15.7925 34.2482C15.7958 34.2515 15.8632 35.3769 15.8363 36.0474C15.8127 36.6573 15.6914 37.311 15.5499 38.1937ZM10.0004 27.9912C10.0139 27.9743 10.024 27.944 10.0476 27.944C10.0712 27.944 10.0914 27.9676 10.0948 27.9912C10.0982 27.9946 10.2161 28.783 10.2161 29.2177C10.2127 29.6018 10.0982 30.3666 10.0982 30.37C10.0881 30.3936 10.0577 30.4003 10.0476 30.4239C10.0409 30.4003 10.0072 30.3936 10.0004 30.37C9.99707 30.3666 9.88252 29.6018 9.88252 29.2177C9.87914 28.783 10.0004 27.9912 10.0004 27.9912ZM7.18362 36.6539C7.20047 36.6337 7.21058 36.6034 7.23416 36.6034C7.25438 36.6034 7.27796 36.6303 7.28133 36.6539C7.28133 36.6573 7.40263 37.9882 7.39926 38.7227C7.39926 39.373 7.28471 40.6601 7.28133 40.6669C7.2746 40.6905 7.23753 40.7006 7.23416 40.7242C7.22742 40.7006 7.19036 40.6905 7.18362 40.6669C7.18362 40.6601 7.06569 39.373 7.06569 38.7227C7.06569 37.9882 7.18362 36.6539 7.18362 36.6539ZM13.5215 34.7468C13.4507 34.7468 12.2782 34.6761 12.1703 34.6693C12.1366 34.6693 12.0996 34.6626 12.0659 34.6626C12.0457 34.6626 10.9607 34.7165 10.1891 34.6963C9.27602 34.6727 8.29215 34.6121 8.1001 34.602C8.00239 34.5952 7.90467 34.602 7.81033 34.5851C7.78338 34.5784 7.77327 34.5413 7.74968 34.5379C7.77327 34.5312 7.78338 34.4941 7.81033 34.4874C7.82381 34.484 9.51188 34.3829 10.4081 34.3728C11.082 34.3627 12.0693 34.4099 12.0794 34.4099C12.1131 34.4133 13.5417 34.6491 13.5451 34.6525C13.5585 34.666 13.572 34.6896 13.5855 34.703C13.5619 34.7064 13.5451 34.7468 13.5215 34.7468ZM6.60072 33.5237C6.60745 33.7596 6.63104 34.4571 6.503 36.4821C6.43562 37.5704 6.28062 38.9822 6.27388 39.0799C6.27388 39.0833 6.25703 39.5348 6.22671 40.3198C6.21997 40.4546 6.22671 40.5928 6.20986 40.7275C6.20313 40.7545 6.16269 40.7646 6.15932 40.7916C6.15595 40.7646 6.11552 40.7545 6.11215 40.7275C6.10878 40.7107 6.04476 39.1237 6.04476 39.0698C6.04476 39.0395 6.09193 37.5434 6.15258 36.7584C6.2941 34.8311 6.43898 34.1943 6.44573 32.9644C6.44573 32.8094 6.44573 32.641 6.44573 32.641C6.4592 32.6207 6.47942 32.6073 6.4929 32.5904C6.503 32.614 6.53333 32.6275 6.54343 32.6544C6.54343 32.6544 6.59061 33.1767 6.60072 33.5237ZM11.4324 28.3551C11.4493 28.3382 11.4594 28.3045 11.483 28.3045C11.5066 28.3045 11.5234 28.3315 11.5302 28.3551C11.5335 28.3585 11.6515 29.0997 11.6481 29.5074C11.6481 29.8713 11.5335 30.589 11.5302 30.5957C11.5234 30.616 11.4931 30.6261 11.483 30.6463C11.4729 30.6261 11.4426 30.616 11.4324 30.5957C11.4324 30.589 11.3179 29.8713 11.3145 29.5074C11.3145 29.0997 11.4324 28.3551 11.4324 28.3551ZM12.5342 28.382C12.5511 28.3652 12.5612 28.3315 12.5814 28.3315C12.605 28.3315 12.6252 28.3585 12.632 28.382C12.632 28.3854 12.7499 29.029 12.7499 29.3828C12.7465 29.6961 12.632 30.3194 12.632 30.3228C12.6218 30.3464 12.5915 30.3531 12.5814 30.3767C12.5713 30.3531 12.5443 30.3464 12.5342 30.3228C12.5309 30.3194 12.4163 29.6961 12.4163 29.3828C12.4129 29.0256 12.5342 28.382 12.5342 28.382ZM98.8752 25.0025C99.8186 24.3657 100.877 23.8839 102.009 23.5874C100.877 23.2942 99.8186 22.809 98.8752 22.1722C99.0167 22.6204 99.0908 23.0954 99.0908 23.5874C99.0908 24.0793 99.0167 24.5544 98.8752 25.0025ZM129.907 23.5874C129.907 18.759 125.962 14.837 121.103 14.837C116.244 14.837 112.299 18.759 112.299 23.5874C112.299 28.4191 116.244 32.3411 121.103 32.3411C121.187 32.3411 121.272 32.3377 121.356 32.3377C121.063 32.2939 120.702 32.1996 120.116 32.0682C120.059 32.0547 120.116 32.0311 120.119 31.9705C121.127 31.9671 121.484 32.0581 122.06 32.0412C122.478 32.0311 123.148 31.9368 123.148 31.9368C123.169 31.9469 123.189 31.9604 123.206 31.9705C123.189 31.9839 123.189 32.0143 123.172 32.0277C123.172 32.0311 122.919 32.1221 122.646 32.2063C126.771 31.4819 129.907 27.8969 129.907 23.5874ZM125.365 30.5317C125.369 30.5284 125.376 30.5284 125.379 30.525C125.389 30.5014 125.379 30.498 125.392 30.4778C125.399 30.5048 125.436 30.5149 125.446 30.5418C125.453 30.562 125.44 30.589 125.429 30.6058C125.423 30.616 125.197 30.7474 125.177 30.7608C124.2 31.3404 122.522 32.0648 120.436 31.7144C119.223 31.5088 118.391 31.0809 117.98 30.8754C117.97 30.8687 117.96 30.8687 117.953 30.8586C117.933 30.8316 117.946 30.8249 117.929 30.7979C117.949 30.7945 117.97 30.7743 117.99 30.7743C118.013 30.7709 118.765 31.1348 119.87 31.3336C119.921 31.3437 120.955 31.5594 122.286 31.4415C123.792 31.3101 124.894 30.7777 125.365 30.5317ZM121.103 18.1525C124.122 18.1525 126.572 20.5886 126.572 23.5874C126.572 26.5895 124.122 29.0222 121.103 29.0222C118.088 29.0222 115.638 26.5895 115.638 23.5874C115.638 20.5886 118.088 18.1525 121.103 18.1525ZM125.901 23.5874C125.901 20.9559 123.752 18.8163 121.103 18.8163C118.455 18.8163 116.305 20.9559 116.305 23.5874C116.305 26.2223 118.455 28.3585 121.103 28.3585C123.752 28.3585 125.901 26.2223 125.901 23.5874ZM123.118 15.5446C123.094 15.548 123.081 15.5749 123.057 15.5817C123.047 15.5817 122.252 15.457 121.733 15.4739C121.204 15.4907 120.817 15.548 120.028 15.5446C120.045 15.5177 120.005 15.4772 120.018 15.4503C120.018 15.4503 120.204 15.4098 120.22 15.4031C121.443 15.1302 121.666 14.9786 123.014 15.4637C123.02 15.4637 123.081 15.4873 123.081 15.4873C123.094 15.5042 123.105 15.5278 123.118 15.5446ZM120.604 17.1181C122.606 17.0305 126.609 17.8257 127.734 23.1426C127.741 23.1628 127.751 23.2134 127.751 23.2134C127.744 23.2336 127.721 23.2471 127.714 23.2707C127.694 23.2437 127.667 23.2235 127.647 23.1999C127.63 23.1729 127.364 21.8016 126.538 20.4909C125.072 18.166 122.855 17.5696 121.396 17.4618C120.497 17.3978 118.863 17.4045 117.279 18.7388C115.934 19.8709 115.2 21.5219 115.224 22.6406C115.224 22.6473 115.23 22.6574 115.224 22.6642C115.207 22.6911 115.197 22.6844 115.18 22.7113C115.166 22.6945 115.143 22.6844 115.129 22.6675C115.129 22.6675 115.122 22.5732 115.122 22.5058C115.116 20.5583 117.063 17.2697 120.604 17.1181ZM127.343 27.4218C127.35 27.415 127.353 27.4015 127.36 27.3982C127.39 27.3813 127.397 27.3948 127.428 27.3813C127.424 27.4117 127.434 27.442 127.431 27.4723C127.428 27.4824 127.306 27.6812 127.296 27.7014C125.564 30.5452 122.165 31.6369 119.166 30.8013C117.299 30.2824 116.399 29.1941 116.275 29.0526C116.275 29.0526 116.271 29.0526 116.271 29.0492C116.265 29.0088 116.268 29.0088 116.261 28.9649C116.285 28.9784 116.319 28.9751 116.342 28.9852C116.369 28.9953 116.928 29.6658 118.084 30.1678C120.133 31.0607 122.603 30.8788 124.425 30.0095C125.055 29.7096 126.349 28.9986 127.343 27.4218ZM116.362 18.2671C117.774 16.8182 120.119 16.1713 122.333 16.5453C124.351 16.8856 125.591 17.9773 125.773 18.1357C126.204 18.4996 126.814 19.1061 127.34 20.0428C127.343 20.0529 127.353 20.0596 127.353 20.0697C127.353 20.1034 127.337 20.1 127.337 20.1371C127.313 20.1169 127.279 20.1135 127.256 20.0933C127.232 20.0798 126.69 19.0859 125.531 18.2233C123.526 16.7306 120.982 16.5251 119.139 16.9665C118.441 17.135 117.242 17.5258 116.268 18.5164C116.265 18.5198 116.261 18.5299 116.255 18.5299C116.214 18.5468 116.211 18.5366 116.17 18.5501C116.18 18.5232 116.17 18.4928 116.18 18.4659C116.18 18.4659 116.275 18.3581 116.362 18.2671ZM125.029 16.8621C124.169 16.4476 122.774 15.9355 120.79 16.0568C119.125 16.1612 117.929 16.7475 117.902 16.7441C117.879 16.7408 117.862 16.7239 117.838 16.7205C117.852 16.7003 117.848 16.6767 117.862 16.6565C117.865 16.6498 118.121 16.5251 118.141 16.515C120.237 15.4907 121.922 15.7198 122.191 15.7535C123.024 15.8512 124.109 16.1275 125.322 16.8991C125.362 16.9261 125.369 16.9294 125.355 16.9732C125.349 17.0036 125.308 17.0137 125.301 17.0406C125.291 17.0272 125.298 17.0036 125.288 16.9935C125.281 16.9834 125.052 16.8722 125.029 16.8621ZM127.738 24.3219C127.744 24.2848 127.744 24.2848 127.744 24.2815C127.768 24.2579 127.781 24.2714 127.805 24.2478C127.808 24.2781 127.828 24.3084 127.832 24.3388C127.835 24.3522 127.768 24.6285 127.764 24.6521C126.444 30.2083 121.851 30.6598 119.944 30.3161C116.773 29.75 115.112 26.6165 115.217 24.8711C115.217 24.8644 115.213 24.8543 115.22 24.8475C115.24 24.8206 115.251 24.8307 115.271 24.8037C115.281 24.824 115.304 24.8341 115.315 24.8543C115.315 24.8543 115.237 25.828 116.012 27.1556C116.656 28.2641 118.185 30.0398 120.837 30.0701C121.966 30.087 126.353 29.9219 127.738 24.3219Z" fill="#570C25"/>
</g>
</svg>
