<svg width="389" height="274" viewBox="0 0 389 274" fill="none" xmlns="http://www.w3.org/2000/svg">
<path d="M381.03 262.736H381.88V260.275C381.88 259.935 382.063 259.62 382.357 259.45L384.488 258.22L384.275 257.851L384.061 257.482L381.93 258.712C381.635 258.882 381.273 258.882 380.978 258.712L378.846 257.482L378.633 257.851L378.42 258.22L380.551 259.45C380.846 259.62 381.027 259.935 381.027 260.275V262.736H381.03Z" fill="#B6A06E" fill-opacity="0.55"/>
<path d="M381.755 259.305C381.619 259.456 381.516 259.634 381.453 259.827C381.39 259.634 381.289 259.456 381.152 259.305C381.351 259.347 381.556 259.347 381.755 259.305Z" stroke="#B6A06E" stroke-opacity="0.21"/>
<path d="M381.03 267.829H381.88V270.29C381.88 270.63 382.063 270.944 382.357 271.114L384.488 272.344L384.275 272.714L384.061 273.082L381.93 271.852C381.635 271.682 381.273 271.682 380.978 271.852L378.846 273.082L378.633 272.714L378.42 272.344L380.551 271.114C380.846 270.944 381.027 270.63 381.027 270.29V267.829H381.03Z" fill="#B6A06E" fill-opacity="0.55"/>
<path d="M381.755 271.26C381.619 271.109 381.516 270.931 381.453 270.737C381.39 270.931 381.289 271.108 381.152 271.26C381.351 271.217 381.556 271.218 381.755 271.26Z" stroke="#B6A06E" stroke-opacity="0.21"/>
<path d="M251.743 262.736H252.593V260.275C252.593 259.935 252.776 259.62 253.069 259.45L255.201 258.22L254.988 257.851L254.774 257.482L252.643 258.712C252.348 258.882 251.986 258.882 251.691 258.712L249.559 257.482L249.346 257.851L249.133 258.22L251.264 259.45C251.559 259.62 251.74 259.935 251.74 260.275V262.736H251.743Z" fill="#B6A06E" fill-opacity="0.55"/>
<path d="M252.468 259.305C252.332 259.456 252.229 259.634 252.166 259.827C252.103 259.634 252.002 259.456 251.865 259.305C252.064 259.347 252.269 259.347 252.468 259.305Z" stroke="#B6A06E" stroke-opacity="0.21"/>
<path d="M251.743 267.829H252.593V270.29C252.593 270.63 252.776 270.944 253.069 271.114L255.201 272.344L254.988 272.714L254.774 273.082L252.643 271.852C252.348 271.682 251.986 271.682 251.691 271.852L249.559 273.082L249.346 272.714L249.133 272.344L251.264 271.114C251.559 270.944 251.74 270.63 251.74 270.29V267.829H251.743Z" fill="#B6A06E" fill-opacity="0.55"/>
<path d="M252.468 271.26C252.332 271.109 252.229 270.931 252.166 270.737C252.103 270.931 252.002 271.108 251.865 271.26C252.064 271.217 252.269 271.218 252.468 271.26Z" stroke="#B6A06E" stroke-opacity="0.21"/>
<path d="M265.325 262.736H266.175V260.275C266.175 259.935 266.358 259.62 266.652 259.45L268.783 258.22L268.57 257.851L268.356 257.482L266.225 258.712C265.93 258.882 265.568 258.882 265.273 258.712L263.141 257.482L262.928 257.851L262.715 258.22L264.846 259.45C265.141 259.62 265.322 259.935 265.322 260.275V262.736H265.325Z" fill="#B6A06E" fill-opacity="0.55"/>
<path d="M266.05 259.305C265.914 259.456 265.811 259.634 265.748 259.827C265.685 259.634 265.584 259.456 265.447 259.305C265.646 259.347 265.851 259.347 266.05 259.305Z" stroke="#B6A06E" stroke-opacity="0.21"/>
<path d="M265.325 267.829H266.175V270.29C266.175 270.63 266.358 270.944 266.652 271.114L268.783 272.344L268.57 272.714L268.356 273.082L266.225 271.852C265.93 271.682 265.568 271.682 265.273 271.852L263.141 273.082L262.928 272.714L262.715 272.344L264.846 271.114C265.141 270.944 265.322 270.63 265.322 270.29V267.829H265.325Z" fill="#B6A06E" fill-opacity="0.55"/>
<path d="M266.05 271.26C265.914 271.109 265.811 270.931 265.748 270.737C265.685 270.931 265.584 271.108 265.447 271.26C265.646 271.217 265.851 271.218 266.05 271.26Z" stroke="#B6A06E" stroke-opacity="0.21"/>
<path d="M122.456 262.736H123.306V260.275C123.306 259.935 123.489 259.62 123.782 259.45L125.914 258.22L125.7 257.851L125.487 257.482L123.356 258.712C123.061 258.882 122.699 258.882 122.404 258.712L120.272 257.482L120.059 257.851L119.846 258.22L121.977 259.45C122.272 259.62 122.453 259.935 122.453 260.275V262.736H122.456Z" fill="#B6A06E" fill-opacity="0.55"/>
<path d="M123.181 259.305C123.045 259.456 122.942 259.634 122.879 259.827C122.816 259.634 122.714 259.456 122.578 259.305C122.777 259.347 122.982 259.347 123.181 259.305Z" stroke="#B6A06E" stroke-opacity="0.21"/>
<path d="M122.456 267.829H123.306V270.29C123.306 270.63 123.489 270.944 123.782 271.114L125.914 272.344L125.7 272.714L125.487 273.082L123.356 271.852C123.061 271.682 122.699 271.682 122.404 271.852L120.272 273.082L120.059 272.714L119.846 272.344L121.977 271.114C122.272 270.944 122.453 270.63 122.453 270.29V267.829H122.456Z" fill="#B6A06E" fill-opacity="0.55"/>
<path d="M123.181 271.26C123.045 271.109 122.942 270.931 122.879 270.737C122.816 270.931 122.714 271.108 122.578 271.26C122.777 271.217 122.982 271.218 123.181 271.26Z" stroke="#B6A06E" stroke-opacity="0.21"/>
<path d="M136.036 262.736H136.886V260.275C136.886 259.935 137.069 259.62 137.362 259.45L139.494 258.22L139.281 257.851L139.067 257.482L136.936 258.712C136.641 258.882 136.279 258.882 135.984 258.712L133.852 257.482L133.639 257.851L133.426 258.22L135.557 259.45C135.852 259.62 136.033 259.935 136.033 260.275V262.736H136.036Z" fill="#B6A06E" fill-opacity="0.55"/>
<path d="M136.761 259.305C136.625 259.456 136.522 259.634 136.459 259.827C136.396 259.634 136.294 259.456 136.158 259.305C136.357 259.347 136.562 259.347 136.761 259.305Z" stroke="#B6A06E" stroke-opacity="0.21"/>
<path d="M136.036 267.829H136.886V270.29C136.886 270.63 137.069 270.944 137.362 271.114L139.494 272.344L139.281 272.714L139.067 273.082L136.936 271.852C136.641 271.682 136.279 271.682 135.984 271.852L133.852 273.082L133.639 272.714L133.426 272.344L135.557 271.114C135.852 270.944 136.033 270.63 136.033 270.29V267.829H136.036Z" fill="#B6A06E" fill-opacity="0.55"/>
<path d="M136.761 271.26C136.625 271.109 136.522 270.931 136.459 270.737C136.396 270.931 136.294 271.108 136.158 271.26C136.357 271.217 136.562 271.218 136.761 271.26Z" stroke="#B6A06E" stroke-opacity="0.21"/>
<path d="M6.74865 262.736H7.59922V260.275C7.59922 259.935 7.78149 259.62 8.07534 259.45L10.2067 258.22L9.99346 257.851L9.7802 257.482L7.64882 258.712C7.35372 258.882 6.99167 258.882 6.69658 258.712L4.5652 257.482L4.35193 257.851L4.13867 258.22L6.27005 259.45C6.56515 259.62 6.74617 259.935 6.74617 260.275V262.736H6.74865Z" fill="#B6A06E" fill-opacity="0.55"/>
<path d="M7.47363 259.305C7.33763 259.456 7.23482 259.634 7.17188 259.827C7.10905 259.634 7.00739 259.456 6.87109 259.305C7.07015 259.347 7.27456 259.347 7.47363 259.305Z" stroke="#B6A06E" stroke-opacity="0.21"/>
<path d="M6.74865 267.829H7.59922V270.29C7.59922 270.63 7.78149 270.944 8.07534 271.114L10.2067 272.344L9.99346 272.714L9.7802 273.082L7.64882 271.852C7.35372 271.682 6.99167 271.682 6.69658 271.852L4.5652 273.082L4.35193 272.714L4.13867 272.344L6.27005 271.114C6.56515 270.944 6.74617 270.63 6.74617 270.29V267.829H6.74865Z" fill="#B6A06E" fill-opacity="0.55"/>
<path d="M7.47363 271.26C7.33763 271.109 7.23482 270.931 7.17188 270.737C7.10905 270.931 7.00739 271.108 6.87109 271.26C7.07015 271.217 7.27456 271.218 7.47363 271.26Z" stroke="#B6A06E" stroke-opacity="0.21"/>
<path d="M381.03 133.998H381.88V131.536C381.88 131.197 382.063 130.882 382.357 130.712L384.488 129.482L384.275 129.112L384.061 128.744L381.93 129.974C381.635 130.144 381.273 130.144 380.978 129.974L378.846 128.744L378.633 129.112L378.42 129.482L380.551 130.712C380.846 130.882 381.027 131.197 381.027 131.536V133.998H381.03Z" fill="#B6A06E" fill-opacity="0.55"/>
<path d="M381.755 130.566C381.619 130.718 381.516 130.895 381.453 131.089C381.39 130.895 381.289 130.718 381.152 130.566C381.351 130.609 381.556 130.609 381.755 130.566Z" stroke="#B6A06E" stroke-opacity="0.21"/>
<path d="M381.03 139.086H381.88V141.548C381.88 141.887 382.063 142.202 382.357 142.372L384.488 143.602L384.275 143.972L384.061 144.34L381.93 143.11C381.635 142.94 381.273 142.94 380.978 143.11L378.846 144.34L378.633 143.972L378.42 143.602L380.551 142.372C380.846 142.202 381.027 141.887 381.027 141.548V139.086H381.03Z" fill="#B6A06E" fill-opacity="0.55"/>
<path d="M381.755 142.518C381.619 142.366 381.516 142.189 381.453 141.995C381.39 142.189 381.289 142.366 381.152 142.518C381.351 142.475 381.556 142.475 381.755 142.518Z" stroke="#B6A06E" stroke-opacity="0.21"/>
<path d="M251.743 133.998H252.593V131.536C252.593 131.197 252.776 130.882 253.069 130.712L255.201 129.482L254.988 129.112L254.774 128.744L252.643 129.974C252.348 130.144 251.986 130.144 251.691 129.974L249.559 128.744L249.346 129.112L249.133 129.482L251.264 130.712C251.559 130.882 251.74 131.197 251.74 131.536V133.998H251.743Z" fill="#B6A06E" fill-opacity="0.55"/>
<path d="M252.468 130.566C252.332 130.718 252.229 130.895 252.166 131.089C252.103 130.895 252.002 130.718 251.865 130.566C252.064 130.609 252.269 130.609 252.468 130.566Z" stroke="#B6A06E" stroke-opacity="0.21"/>
<path d="M251.743 139.086H252.593V141.548C252.593 141.887 252.776 142.202 253.069 142.372L255.201 143.602L254.988 143.972L254.774 144.34L252.643 143.11C252.348 142.94 251.986 142.94 251.691 143.11L249.559 144.34L249.346 143.972L249.133 143.602L251.264 142.372C251.559 142.202 251.74 141.887 251.74 141.548V139.086H251.743Z" fill="#B6A06E" fill-opacity="0.55"/>
<path d="M252.468 142.518C252.332 142.366 252.229 142.189 252.166 141.995C252.103 142.189 252.002 142.366 251.865 142.518C252.064 142.475 252.269 142.475 252.468 142.518Z" stroke="#B6A06E" stroke-opacity="0.21"/>
<path d="M265.325 133.998H266.175V131.536C266.175 131.197 266.358 130.882 266.652 130.712L268.783 129.482L268.57 129.112L268.356 128.744L266.225 129.974C265.93 130.144 265.568 130.144 265.273 129.974L263.141 128.744L262.928 129.112L262.715 129.482L264.846 130.712C265.141 130.882 265.322 131.197 265.322 131.536V133.998H265.325Z" fill="#B6A06E" fill-opacity="0.55"/>
<path d="M266.05 130.566C265.914 130.718 265.811 130.895 265.748 131.089C265.685 130.895 265.584 130.718 265.447 130.566C265.646 130.609 265.851 130.609 266.05 130.566Z" stroke="#B6A06E" stroke-opacity="0.21"/>
<path d="M265.325 139.086H266.175V141.548C266.175 141.887 266.358 142.202 266.652 142.372L268.783 143.602L268.57 143.972L268.356 144.34L266.225 143.11C265.93 142.94 265.568 142.94 265.273 143.11L263.141 144.34L262.928 143.972L262.715 143.602L264.846 142.372C265.141 142.202 265.322 141.887 265.322 141.548V139.086H265.325Z" fill="#B6A06E" fill-opacity="0.55"/>
<path d="M266.05 142.518C265.914 142.366 265.811 142.189 265.748 141.995C265.685 142.189 265.584 142.366 265.447 142.518C265.646 142.475 265.851 142.475 266.05 142.518Z" stroke="#B6A06E" stroke-opacity="0.21"/>
<path d="M122.456 133.998H123.306V131.536C123.306 131.197 123.489 130.882 123.782 130.712L125.914 129.482L125.7 129.112L125.487 128.744L123.356 129.974C123.061 130.144 122.699 130.144 122.404 129.974L120.272 128.744L120.059 129.112L119.846 129.482L121.977 130.712C122.272 130.882 122.453 131.197 122.453 131.536V133.998H122.456Z" fill="#B6A06E" fill-opacity="0.55"/>
<path d="M123.181 130.566C123.045 130.718 122.942 130.895 122.879 131.089C122.816 130.895 122.714 130.718 122.578 130.566C122.777 130.609 122.982 130.609 123.181 130.566Z" stroke="#B6A06E" stroke-opacity="0.21"/>
<path d="M122.456 139.086H123.306V141.548C123.306 141.887 123.489 142.202 123.782 142.372L125.914 143.602L125.7 143.972L125.487 144.34L123.356 143.11C123.061 142.94 122.699 142.94 122.404 143.11L120.272 144.34L120.059 143.972L119.846 143.602L121.977 142.372C122.272 142.202 122.453 141.887 122.453 141.548V139.086H122.456Z" fill="#B6A06E" fill-opacity="0.55"/>
<path d="M123.181 142.518C123.045 142.366 122.942 142.189 122.879 141.995C122.816 142.189 122.714 142.366 122.578 142.518C122.777 142.475 122.982 142.475 123.181 142.518Z" stroke="#B6A06E" stroke-opacity="0.21"/>
<path d="M136.036 133.998H136.886V131.536C136.886 131.197 137.069 130.882 137.362 130.712L139.494 129.482L139.281 129.112L139.067 128.744L136.936 129.974C136.641 130.144 136.279 130.144 135.984 129.974L133.852 128.744L133.639 129.112L133.426 129.482L135.557 130.712C135.852 130.882 136.033 131.197 136.033 131.536V133.998H136.036Z" fill="#B6A06E" fill-opacity="0.55"/>
<path d="M136.761 130.566C136.625 130.718 136.522 130.895 136.459 131.089C136.396 130.895 136.294 130.718 136.158 130.566C136.357 130.609 136.562 130.609 136.761 130.566Z" stroke="#B6A06E" stroke-opacity="0.21"/>
<path d="M136.036 139.086H136.886V141.548C136.886 141.887 137.069 142.202 137.362 142.372L139.494 143.602L139.281 143.972L139.067 144.34L136.936 143.11C136.641 142.94 136.279 142.94 135.984 143.11L133.852 144.34L133.639 143.972L133.426 143.602L135.557 142.372C135.852 142.202 136.033 141.887 136.033 141.548V139.086H136.036Z" fill="#B6A06E" fill-opacity="0.55"/>
<path d="M136.761 142.518C136.625 142.366 136.522 142.189 136.459 141.995C136.396 142.189 136.294 142.366 136.158 142.518C136.357 142.475 136.562 142.475 136.761 142.518Z" stroke="#B6A06E" stroke-opacity="0.21"/>
<path d="M6.74865 133.998H7.59922V131.536C7.59922 131.197 7.78149 130.882 8.07534 130.712L10.2067 129.482L9.99346 129.112L9.7802 128.744L7.64882 129.974C7.35372 130.144 6.99167 130.144 6.69658 129.974L4.5652 128.744L4.35193 129.112L4.13867 129.482L6.27005 130.712C6.56515 130.882 6.74617 131.197 6.74617 131.536V133.998H6.74865Z" fill="#B6A06E" fill-opacity="0.55"/>
<path d="M7.47363 130.566C7.33763 130.718 7.23482 130.895 7.17188 131.089C7.10905 130.895 7.00739 130.718 6.87109 130.566C7.07015 130.609 7.27456 130.609 7.47363 130.566Z" stroke="#B6A06E" stroke-opacity="0.21"/>
<path d="M6.74865 139.086H7.59922V141.548C7.59922 141.887 7.78149 142.202 8.07534 142.372L10.2067 143.602L9.99346 143.972L9.7802 144.34L7.64882 143.11C7.35372 142.94 6.99167 142.94 6.69658 143.11L4.5652 144.34L4.35193 143.972L4.13867 143.602L6.27005 142.372C6.56515 142.202 6.74617 141.887 6.74617 141.548V139.086H6.74865Z" fill="#B6A06E" fill-opacity="0.55"/>
<path d="M7.47363 142.518C7.33763 142.366 7.23482 142.189 7.17188 141.995C7.10905 142.189 7.00739 142.366 6.87109 142.518C7.07015 142.475 7.27456 142.475 7.47363 142.518Z" stroke="#B6A06E" stroke-opacity="0.21"/>
<path d="M381.03 5.25344H381.88V2.79225C381.88 2.45251 382.063 2.13758 382.357 1.96771L384.488 0.737738L384.275 0.368249L384.061 0L381.93 1.22998C381.635 1.39984 381.273 1.39984 380.978 1.22998L378.846 0L378.633 0.368249L378.42 0.737738L380.551 1.96771C380.846 2.13758 381.027 2.45251 381.027 2.79225V5.25344H381.03Z" fill="#B6A06E" fill-opacity="0.55"/>
<path d="M381.755 1.82227C381.619 1.97351 381.516 2.15115 381.453 2.34473C381.39 2.15127 381.289 1.97363 381.152 1.82227C381.351 1.8646 381.556 1.86451 381.755 1.82227Z" stroke="#B6A06E" stroke-opacity="0.21"/>
<path d="M381.03 10.3462H381.88V12.8074C381.88 13.1471 382.063 13.462 382.357 13.6319L384.488 14.8619L384.275 15.2314L384.061 15.5996L381.93 14.3696C381.635 14.1998 381.273 14.1998 380.978 14.3696L378.846 15.5996L378.633 15.2314L378.42 14.8619L380.551 13.6319C380.846 13.462 381.027 13.1471 381.027 12.8074V10.3462H381.03Z" fill="#B6A06E" fill-opacity="0.55"/>
<path d="M381.755 13.7773C381.619 13.6261 381.516 13.4485 381.453 13.2549C381.39 13.4483 381.289 13.626 381.152 13.7773C381.351 13.735 381.556 13.7351 381.755 13.7773Z" stroke="#B6A06E" stroke-opacity="0.21"/>
<path d="M251.743 5.25344H252.593V2.79225C252.593 2.45251 252.776 2.13758 253.069 1.96771L255.201 0.737738L254.988 0.368249L254.774 0L252.643 1.22998C252.348 1.39984 251.986 1.39984 251.691 1.22998L249.559 0L249.346 0.368249L249.133 0.737738L251.264 1.96771C251.559 2.13758 251.74 2.45251 251.74 2.79225V5.25344H251.743Z" fill="#B6A06E" fill-opacity="0.55"/>
<path d="M252.468 1.82227C252.332 1.97351 252.229 2.15115 252.166 2.34473C252.103 2.15127 252.002 1.97363 251.865 1.82227C252.064 1.8646 252.269 1.86451 252.468 1.82227Z" stroke="#B6A06E" stroke-opacity="0.21"/>
<path d="M251.743 10.3462H252.593V12.8074C252.593 13.1471 252.776 13.462 253.069 13.6319L255.201 14.8619L254.988 15.2314L254.774 15.5996L252.643 14.3696C252.348 14.1998 251.986 14.1998 251.691 14.3696L249.559 15.5996L249.346 15.2314L249.133 14.8619L251.264 13.6319C251.559 13.462 251.74 13.1471 251.74 12.8074V10.3462H251.743Z" fill="#B6A06E" fill-opacity="0.55"/>
<path d="M252.468 13.7773C252.332 13.6261 252.229 13.4485 252.166 13.2549C252.103 13.4483 252.002 13.626 251.865 13.7773C252.064 13.735 252.269 13.7351 252.468 13.7773Z" stroke="#B6A06E" stroke-opacity="0.21"/>
<path d="M265.325 5.25344H266.175V2.79225C266.175 2.45251 266.358 2.13758 266.652 1.96771L268.783 0.737738L268.57 0.368249L268.356 0L266.225 1.22998C265.93 1.39984 265.568 1.39984 265.273 1.22998L263.141 0L262.928 0.368249L262.715 0.737738L264.846 1.96771C265.141 2.13758 265.322 2.45251 265.322 2.79225V5.25344H265.325Z" fill="#B6A06E" fill-opacity="0.55"/>
<path d="M266.05 1.82227C265.914 1.97351 265.811 2.15115 265.748 2.34473C265.685 2.15127 265.584 1.97363 265.447 1.82227C265.646 1.8646 265.851 1.86451 266.05 1.82227Z" stroke="#B6A06E" stroke-opacity="0.21"/>
<path d="M265.325 10.3462H266.175V12.8074C266.175 13.1471 266.358 13.462 266.652 13.6319L268.783 14.8619L268.57 15.2314L268.356 15.5996L266.225 14.3696C265.93 14.1998 265.568 14.1998 265.273 14.3696L263.141 15.5996L262.928 15.2314L262.715 14.8619L264.846 13.6319C265.141 13.462 265.322 13.1471 265.322 12.8074V10.3462H265.325Z" fill="#B6A06E" fill-opacity="0.55"/>
<path d="M266.05 13.7773C265.914 13.6261 265.811 13.4485 265.748 13.2549C265.685 13.4483 265.584 13.626 265.447 13.7773C265.646 13.735 265.851 13.7351 266.05 13.7773Z" stroke="#B6A06E" stroke-opacity="0.21"/>
<path d="M122.456 5.25344H123.306V2.79225C123.306 2.45251 123.489 2.13758 123.782 1.96771L125.914 0.737738L125.7 0.368249L125.487 0L123.356 1.22998C123.061 1.39984 122.699 1.39984 122.404 1.22998L120.272 0L120.059 0.368249L119.846 0.737738L121.977 1.96771C122.272 2.13758 122.453 2.45251 122.453 2.79225V5.25344H122.456Z" fill="#B6A06E" fill-opacity="0.55"/>
<path d="M123.181 1.82227C123.045 1.97351 122.942 2.15115 122.879 2.34473C122.816 2.15127 122.714 1.97363 122.578 1.82227C122.777 1.8646 122.982 1.86451 123.181 1.82227Z" stroke="#B6A06E" stroke-opacity="0.21"/>
<path d="M122.456 10.3462H123.306V12.8074C123.306 13.1471 123.489 13.462 123.782 13.6319L125.914 14.8619L125.7 15.2314L125.487 15.5996L123.356 14.3696C123.061 14.1998 122.699 14.1998 122.404 14.3696L120.272 15.5996L120.059 15.2314L119.846 14.8619L121.977 13.6319C122.272 13.462 122.453 13.1471 122.453 12.8074V10.3462H122.456Z" fill="#B6A06E" fill-opacity="0.55"/>
<path d="M123.181 13.7773C123.045 13.6261 122.942 13.4485 122.879 13.2549C122.816 13.4483 122.714 13.626 122.578 13.7773C122.777 13.735 122.982 13.7351 123.181 13.7773Z" stroke="#B6A06E" stroke-opacity="0.21"/>
<path d="M136.036 5.25344H136.886V2.79225C136.886 2.45251 137.069 2.13758 137.362 1.96771L139.494 0.737738L139.281 0.368249L139.067 0L136.936 1.22998C136.641 1.39984 136.279 1.39984 135.984 1.22998L133.852 0L133.639 0.368249L133.426 0.737738L135.557 1.96771C135.852 2.13758 136.033 2.45251 136.033 2.79225V5.25344H136.036Z" fill="#B6A06E" fill-opacity="0.55"/>
<path d="M136.761 1.82227C136.625 1.97351 136.522 2.15115 136.459 2.34473C136.396 2.15127 136.294 1.97363 136.158 1.82227C136.357 1.8646 136.562 1.86451 136.761 1.82227Z" stroke="#B6A06E" stroke-opacity="0.21"/>
<path d="M136.036 10.3462H136.886V12.8074C136.886 13.1471 137.069 13.462 137.362 13.6319L139.494 14.8619L139.281 15.2314L139.067 15.5996L136.936 14.3696C136.641 14.1998 136.279 14.1998 135.984 14.3696L133.852 15.5996L133.639 15.2314L133.426 14.8619L135.557 13.6319C135.852 13.462 136.033 13.1471 136.033 12.8074V10.3462H136.036Z" fill="#B6A06E" fill-opacity="0.55"/>
<path d="M136.761 13.7773C136.625 13.6261 136.522 13.4485 136.459 13.2549C136.396 13.4483 136.294 13.626 136.158 13.7773C136.357 13.735 136.562 13.7351 136.761 13.7773Z" stroke="#B6A06E" stroke-opacity="0.21"/>
<path d="M6.74865 5.25344H7.59922V2.79225C7.59922 2.45251 7.78149 2.13758 8.07534 1.96771L10.2067 0.737738L9.99346 0.368249L9.7802 0L7.64882 1.22998C7.35372 1.39984 6.99167 1.39984 6.69658 1.22998L4.5652 0L4.35193 0.368249L4.13867 0.737738L6.27005 1.96771C6.56515 2.13758 6.74617 2.45251 6.74617 2.79225V5.25344H6.74865Z" fill="#B6A06E" fill-opacity="0.55"/>
<path d="M7.47363 1.82227C7.33763 1.97351 7.23482 2.15115 7.17188 2.34473C7.10905 2.15127 7.00739 1.97363 6.87109 1.82227C7.07015 1.8646 7.27456 1.86451 7.47363 1.82227Z" stroke="#B6A06E" stroke-opacity="0.21"/>
<path d="M6.74865 10.3462H7.59922V12.8074C7.59922 13.1471 7.78149 13.462 8.07534 13.6319L10.2067 14.8619L9.99346 15.2314L9.7802 15.5996L7.64882 14.3696C7.35372 14.1998 6.99167 14.1998 6.69658 14.3696L4.5652 15.5996L4.35193 15.2314L4.13867 14.8619L6.27005 13.6319C6.56515 13.462 6.74617 13.1471 6.74617 12.8074V10.3462H6.74865Z" fill="#B6A06E" fill-opacity="0.55"/>
<path d="M7.47363 13.7773C7.33763 13.6261 7.23482 13.4485 7.17188 13.2549C7.10905 13.4483 7.00739 13.626 6.87109 13.7773C7.07015 13.735 7.27456 13.7351 7.47363 13.7773Z" stroke="#B6A06E" stroke-opacity="0.21"/>
<path d="M258.957 7.79492L258.957 265.967" stroke="#B6A06E" stroke-opacity="0.21"/>
<path d="M129.67 7.95898L129.67 265.964" stroke="#B6A06E" stroke-opacity="0.21"/>
<path d="M-250.834 265.283L631.972 265.283" stroke="#B6A06E" stroke-opacity="0.21"/>
<path d="M-250.973 136.543L631.833 136.543" stroke="#B6A06E" stroke-opacity="0.21"/>
<path d="M-250.973 7.79492L631.833 7.79488" stroke="#B6A06E" stroke-opacity="0.21"/>
</svg>
