<svg width="721" height="721" viewBox="0 0 721 721" fill="none" xmlns="http://www.w3.org/2000/svg">
<mask id="mask0_322_5772" style="mask-type:luminance" maskUnits="userSpaceOnUse" x="0" y="0" width="721" height="721">
<path d="M720.526 0H0V720.526H720.526V0Z" fill="white"/>
</mask>
<g mask="url(#mask0_322_5772)">
<path d="M0.719275 720.167H0V0.363281H0.719275V720.167Z" fill="#948155" fill-opacity="0.25"/>
<path d="M18.7149 720.167H17.9956V0.363281H18.7149V720.167Z" fill="#948155" fill-opacity="0.25"/>
<path d="M36.7108 720.167H35.988V0.363281H36.7108V720.167Z" fill="#948155" fill-opacity="0.25"/>
<path d="M54.7066 720.167H53.9873V0.363281H54.7066V720.167Z" fill="#948155" fill-opacity="0.25"/>
<path d="M72.699 720.167H71.9797V0.363281H72.699V720.167Z" fill="#948155" fill-opacity="0.25"/>
<path d="M90.6946 720.167H89.9753V0.363281H90.6946V720.167Z" fill="#948155" fill-opacity="0.25"/>
<path d="M108.69 720.167H107.971V0.363281H108.69V720.167Z" fill="#948155" fill-opacity="0.25"/>
<path d="M126.687 720.167H125.967V0.363281H126.687V720.167Z" fill="#948155" fill-opacity="0.25"/>
<path d="M144.682 720.167H143.963V0.363281H144.682V720.167Z" fill="#948155" fill-opacity="0.25"/>
<path d="M162.674 720.167H161.955V0.363281H162.674V720.167Z" fill="#948155" fill-opacity="0.25"/>
<path d="M180.674 720.167H179.951V0.363281H180.674V720.167Z" fill="#948155" fill-opacity="0.25"/>
<path d="M198.666 720.167H197.947V0.363281H198.666V720.167Z" fill="#948155" fill-opacity="0.25"/>
<path d="M216.662 720.167H215.942V0.363281H216.662V720.167Z" fill="#948155" fill-opacity="0.25"/>
<path d="M234.658 720.167H233.938V0.363281H234.658V720.167Z" fill="#948155" fill-opacity="0.25"/>
<path d="M252.65 720.167H251.93V0.363281H252.65V720.167Z" fill="#948155" fill-opacity="0.25"/>
<path d="M270.649 720.167H269.926V0.363281H270.649V720.167Z" fill="#948155" fill-opacity="0.25"/>
<path d="M288.645 720.167H287.922V0.363281H288.645V720.167Z" fill="#948155" fill-opacity="0.25"/>
<path d="M306.637 720.167H305.918V0.363281H306.637V720.167Z" fill="#948155" fill-opacity="0.25"/>
<path d="M324.633 720.167H323.914V0.363281H324.633V720.167Z" fill="#948155" fill-opacity="0.25"/>
<path d="M342.629 720.167H341.906V0.363281H342.629V720.167Z" fill="#948155" fill-opacity="0.25"/>
<path d="M360.624 720.167H359.902V0.363281H360.624V720.167Z" fill="#948155" fill-opacity="0.25"/>
<path d="M378.62 720.167H377.897V0.363281H378.62V720.167Z" fill="#948155" fill-opacity="0.25"/>
<path d="M396.613 720.167H395.893V0.363281H396.613V720.167Z" fill="#948155" fill-opacity="0.25"/>
<path d="M414.608 720.167H413.889V0.363281H414.608V720.167Z" fill="#948155" fill-opacity="0.25"/>
<path d="M432.604 720.167H431.881V0.363281H432.604V720.167Z" fill="#948155" fill-opacity="0.25"/>
<path d="M450.6 720.167H449.877V0.363281H450.6V720.167Z" fill="#948155" fill-opacity="0.25"/>
<path d="M468.595 720.167H467.876V0.363281H468.595V720.167Z" fill="#948155" fill-opacity="0.25"/>
<path d="M486.588 720.167H485.868V0.363281H486.588V720.167Z" fill="#948155" fill-opacity="0.25"/>
<path d="M504.584 720.167H503.865V0.363281H504.584V720.167Z" fill="#948155" fill-opacity="0.25"/>
<path d="M522.579 720.167H521.857V0.363281H522.579V720.167Z" fill="#948155" fill-opacity="0.25"/>
<path d="M540.575 720.167H539.852V0.363281H540.575V720.167Z" fill="#948155" fill-opacity="0.25"/>
<path d="M558.571 720.167H557.852V0.363281H558.571V720.167Z" fill="#948155" fill-opacity="0.25"/>
<path d="M576.563 720.167H575.844V0.363281H576.563V720.167Z" fill="#948155" fill-opacity="0.25"/>
<path d="M594.559 720.167H593.84V0.363281H594.559V720.167Z" fill="#948155" fill-opacity="0.25"/>
<path d="M612.555 720.167H611.832V0.363281H612.555V720.167Z" fill="#948155" fill-opacity="0.25"/>
<path d="M630.551 720.167H629.831V0.363281H630.551V720.167Z" fill="#948155" fill-opacity="0.25"/>
<path d="M648.546 720.167H647.827V0.363281H648.546V720.167Z" fill="#948155" fill-opacity="0.25"/>
<path d="M666.539 720.167H665.819V0.363281H666.539V720.167Z" fill="#948155" fill-opacity="0.25"/>
<path d="M684.538 720.167H683.815V0.363281H684.538V720.167Z" fill="#948155" fill-opacity="0.25"/>
<path d="M702.53 720.167H701.811V0.363281H702.53V720.167Z" fill="#948155" fill-opacity="0.25"/>
<path d="M720.526 720.167H719.807V0.363281H720.526V720.167Z" fill="#948155" fill-opacity="0.25"/>
<path d="M720.165 0.719275H0.361328V0H720.165V0.719275Z" fill="#948155" fill-opacity="0.25"/>
<path d="M720.164 18.7154H0.361206V17.9961H720.164V18.7154Z" fill="#948155" fill-opacity="0.25"/>
<path d="M720.165 36.711H0.361328V35.9883H720.165V36.711Z" fill="#948155" fill-opacity="0.25"/>
<path d="M720.165 54.7076H0.361328V53.9883H720.165V54.7076Z" fill="#948155" fill-opacity="0.25"/>
<path d="M720.165 72.6997H0.361328V71.9805H720.165V72.6997Z" fill="#948155" fill-opacity="0.25"/>
<path d="M720.165 90.6919H0.361328V89.9727H720.165V90.6919Z" fill="#948155" fill-opacity="0.25"/>
<path d="M720.164 108.692H0.361206V107.973H720.164V108.692Z" fill="#948155" fill-opacity="0.25"/>
<path d="M720.165 126.688H0.361328V125.969H720.165V126.688Z" fill="#948155" fill-opacity="0.25"/>
<path d="M720.165 144.684H0.361328V143.965H720.165V144.684Z" fill="#948155" fill-opacity="0.25"/>
<path d="M720.165 162.68H0.361328V161.961H720.165V162.68Z" fill="#948155" fill-opacity="0.25"/>
<path d="M720.165 180.672H0.361328V179.949H720.165V180.672Z" fill="#948155" fill-opacity="0.25"/>
<path d="M720.164 198.668H0.361206V197.949H720.164V198.668Z" fill="#948155" fill-opacity="0.25"/>
<path d="M720.165 216.665H0.361328V215.945H720.165V216.665Z" fill="#948155" fill-opacity="0.25"/>
<path d="M720.165 234.657H0.361328V233.938H720.165V234.657Z" fill="#948155" fill-opacity="0.25"/>
<path d="M720.165 252.653H0.361328V251.934H720.165V252.653Z" fill="#948155" fill-opacity="0.25"/>
<path d="M720.165 270.649H0.361328V269.926H720.165V270.649Z" fill="#948155" fill-opacity="0.25"/>
<path d="M720.165 288.649H0.361328V287.926H720.165V288.649Z" fill="#948155" fill-opacity="0.25"/>
<path d="M720.165 306.641H0.361328V305.922H720.165V306.641Z" fill="#948155" fill-opacity="0.25"/>
<path d="M720.165 324.629H0.361328V323.91H720.165V324.629Z" fill="#948155" fill-opacity="0.25"/>
<path d="M720.165 342.629H0.361328V341.906H720.165V342.629Z" fill="#948155" fill-opacity="0.25"/>
<path d="M720.165 360.629H0.361328V359.906H720.165V360.629Z" fill="#948155" fill-opacity="0.25"/>
<path d="M720.165 378.625H0.361328V377.902H720.165V378.625Z" fill="#948155" fill-opacity="0.25"/>
<path d="M720.165 396.614H0.361328V395.895H720.165V396.614Z" fill="#948155" fill-opacity="0.25"/>
<path d="M720.165 414.606H0.361328V413.887H720.165V414.606Z" fill="#948155" fill-opacity="0.25"/>
<path d="M720.165 432.609H0.361328V431.887H720.165V432.609Z" fill="#948155" fill-opacity="0.25"/>
<path d="M720.165 450.602H0.361328V449.879H720.165V450.602Z" fill="#948155" fill-opacity="0.25"/>
<path d="M720.165 468.598H0.361328V467.879H720.165V468.598Z" fill="#948155" fill-opacity="0.25"/>
<path d="M720.165 486.594H0.361328V485.875H720.165V486.594Z" fill="#948155" fill-opacity="0.25"/>
<path d="M720.165 504.583H0.361328V503.863H720.165V504.583Z" fill="#948155" fill-opacity="0.25"/>
<path d="M720.164 522.582H0.361206V521.859H720.164V522.582Z" fill="#948155" fill-opacity="0.25"/>
<path d="M720.165 540.578H0.361328V539.855H720.165V540.578Z" fill="#948155" fill-opacity="0.25"/>
<path d="M720.165 558.567H0.361328V557.848H720.165V558.567Z" fill="#948155" fill-opacity="0.25"/>
<path d="M720.165 576.567H0.361328V575.848H720.165V576.567Z" fill="#948155" fill-opacity="0.25"/>
<path d="M720.165 594.559H0.361328V593.84H720.165V594.559Z" fill="#948155" fill-opacity="0.25"/>
<path d="M720.164 612.555H0.361206V611.832H720.164V612.555Z" fill="#948155" fill-opacity="0.25"/>
<path d="M720.165 630.551H0.361328V629.832H720.165V630.551Z" fill="#948155" fill-opacity="0.25"/>
<path d="M720.165 648.543H0.361328V647.824H720.165V648.543Z" fill="#948155" fill-opacity="0.25"/>
<path d="M720.165 666.54H0.361328V665.82H720.165V666.54Z" fill="#948155" fill-opacity="0.25"/>
<path d="M720.165 684.539H0.361328V683.816H720.165V684.539Z" fill="#948155" fill-opacity="0.25"/>
<path d="M720.164 702.532H0.361206V701.812H720.164V702.532Z" fill="#948155" fill-opacity="0.25"/>
<path d="M720.165 720.528H0.361328V719.809H720.165V720.528Z" fill="#948155" fill-opacity="0.25"/>
</g>
</svg>
