<svg width="389" height="16" viewBox="0 0 389 16" fill="none" xmlns="http://www.w3.org/2000/svg">
<path d="M251.743 5.25344H252.593V2.79225C252.593 2.45251 252.776 2.13758 253.069 1.96771L255.201 0.737738L254.988 0.368249L254.774 0L252.643 1.22998C252.348 1.39984 251.986 1.39984 251.691 1.22998L249.559 0L249.346 0.368249L249.133 0.737738L251.264 1.96771C251.559 2.13758 251.74 2.45251 251.74 2.79225V5.25344H251.743Z" fill="#B6A06E" fill-opacity="0.55"/>
<path d="M252.468 1.82227C252.332 1.97351 252.229 2.15115 252.166 2.34473C252.103 2.15127 252.002 1.97363 251.865 1.82227C252.064 1.8646 252.269 1.86451 252.468 1.82227Z" stroke="#B6A06E" stroke-opacity="0.21"/>
<path d="M251.743 10.3501H252.593V12.8113C252.593 13.151 252.776 13.4659 253.069 13.6358L255.201 14.8658L254.988 15.2353L254.774 15.6035L252.643 14.3735C252.348 14.2037 251.986 14.2037 251.691 14.3735L249.559 15.6035L249.346 15.2353L249.133 14.8658L251.264 13.6358C251.559 13.4659 251.74 13.151 251.74 12.8113V10.3501H251.743Z" fill="#B6A06E" fill-opacity="0.55"/>
<path d="M252.468 13.7812C252.332 13.63 252.229 13.4524 252.166 13.2588C252.103 13.4522 252.002 13.6299 251.865 13.7812C252.064 13.7389 252.269 13.739 252.468 13.7812Z" stroke="#B6A06E" stroke-opacity="0.21"/>
<path d="M265.325 5.25344H266.175V2.79225C266.175 2.45251 266.358 2.13758 266.652 1.96771L268.783 0.737738L268.57 0.368249L268.356 0L266.225 1.22998C265.93 1.39984 265.568 1.39984 265.273 1.22998L263.141 0L262.928 0.368249L262.715 0.737738L264.846 1.96771C265.141 2.13758 265.322 2.45251 265.322 2.79225V5.25344H265.325Z" fill="#B6A06E" fill-opacity="0.55"/>
<path d="M266.05 1.82227C265.914 1.97351 265.811 2.15115 265.748 2.34473C265.685 2.15127 265.584 1.97363 265.447 1.82227C265.646 1.8646 265.851 1.86451 266.05 1.82227Z" stroke="#B6A06E" stroke-opacity="0.21"/>
<path d="M265.325 10.3501H266.175V12.8113C266.175 13.151 266.358 13.4659 266.652 13.6358L268.783 14.8658L268.57 15.2353L268.356 15.6035L266.225 14.3735C265.93 14.2037 265.568 14.2037 265.273 14.3735L263.141 15.6035L262.928 15.2353L262.715 14.8658L264.846 13.6358C265.141 13.4659 265.322 13.151 265.322 12.8113V10.3501H265.325Z" fill="#B6A06E" fill-opacity="0.55"/>
<path d="M266.05 13.7812C265.914 13.63 265.811 13.4524 265.748 13.2588C265.685 13.4522 265.584 13.6299 265.447 13.7812C265.646 13.7389 265.851 13.739 266.05 13.7812Z" stroke="#B6A06E" stroke-opacity="0.21"/>
<path d="M381.03 5.25344H381.88V2.79225C381.88 2.45251 382.063 2.13758 382.357 1.96771L384.488 0.737738L384.275 0.368249L384.061 0L381.93 1.22998C381.635 1.39984 381.273 1.39984 380.978 1.22998L378.846 0L378.633 0.368249L378.42 0.737738L380.551 1.96771C380.846 2.13758 381.027 2.45251 381.027 2.79225V5.25344H381.03Z" fill="#B6A06E" fill-opacity="0.55"/>
<path d="M381.755 1.82227C381.619 1.97351 381.516 2.15115 381.453 2.34473C381.39 2.15127 381.289 1.97363 381.152 1.82227C381.351 1.8646 381.556 1.86451 381.755 1.82227Z" stroke="#B6A06E" stroke-opacity="0.21"/>
<path d="M381.03 10.3501H381.88V12.8113C381.88 13.151 382.063 13.4659 382.357 13.6358L384.488 14.8658L384.275 15.2353L384.061 15.6035L381.93 14.3735C381.635 14.2037 381.273 14.2037 380.978 14.3735L378.846 15.6035L378.633 15.2353L378.42 14.8658L380.551 13.6358C380.846 13.4659 381.027 13.151 381.027 12.8113V10.3501H381.03Z" fill="#B6A06E" fill-opacity="0.55"/>
<path d="M381.755 13.7812C381.619 13.63 381.516 13.4524 381.453 13.2588C381.39 13.4522 381.289 13.6299 381.152 13.7812C381.351 13.7389 381.556 13.739 381.755 13.7812Z" stroke="#B6A06E" stroke-opacity="0.21"/>
<path d="M6.74865 5.25344H7.59922V2.79225C7.59922 2.45251 7.78149 2.13758 8.07534 1.96771L10.2067 0.737738L9.99346 0.368249L9.7802 0L7.64882 1.22998C7.35372 1.39984 6.99167 1.39984 6.69658 1.22998L4.5652 0L4.35193 0.368249L4.13867 0.737738L6.27005 1.96771C6.56515 2.13758 6.74617 2.45251 6.74617 2.79225V5.25344H6.74865Z" fill="#B6A06E" fill-opacity="0.55"/>
<path d="M7.47363 1.82227C7.33763 1.97351 7.23482 2.15115 7.17188 2.34473C7.10905 2.15127 7.00739 1.97363 6.87109 1.82227C7.07015 1.8646 7.27456 1.86451 7.47363 1.82227Z" stroke="#B6A06E" stroke-opacity="0.21"/>
<path d="M6.74865 10.3501H7.59922V12.8113C7.59922 13.151 7.78149 13.4659 8.07534 13.6358L10.2067 14.8658L9.99346 15.2353L9.7802 15.6035L7.64882 14.3735C7.35372 14.2037 6.99167 14.2037 6.69658 14.3735L4.5652 15.6035L4.35193 15.2353L4.13867 14.8658L6.27005 13.6358C6.56515 13.4659 6.74617 13.151 6.74617 12.8113V10.3501H6.74865Z" fill="#B6A06E" fill-opacity="0.55"/>
<path d="M7.47363 13.7812C7.33763 13.63 7.23482 13.4524 7.17188 13.2588C7.10905 13.4522 7.00739 13.6299 6.87109 13.7812C7.07015 13.7389 7.27456 13.739 7.47363 13.7812Z" stroke="#B6A06E" stroke-opacity="0.21"/>
<path d="M122.456 5.25344H123.306V2.79225C123.306 2.45251 123.489 2.13758 123.782 1.96771L125.914 0.737738L125.7 0.368249L125.487 0L123.356 1.22998C123.061 1.39984 122.699 1.39984 122.404 1.22998L120.272 0L120.059 0.368249L119.846 0.737738L121.977 1.96771C122.272 2.13758 122.453 2.45251 122.453 2.79225V5.25344H122.456Z" fill="#B6A06E" fill-opacity="0.55"/>
<path d="M123.181 1.82227C123.045 1.97351 122.942 2.15115 122.879 2.34473C122.816 2.15127 122.714 1.97363 122.578 1.82227C122.777 1.8646 122.982 1.86451 123.181 1.82227Z" stroke="#B6A06E" stroke-opacity="0.21"/>
<path d="M122.456 10.3501H123.306V12.8113C123.306 13.151 123.489 13.4659 123.782 13.6358L125.914 14.8658L125.7 15.2353L125.487 15.6035L123.356 14.3735C123.061 14.2037 122.699 14.2037 122.404 14.3735L120.272 15.6035L120.059 15.2353L119.846 14.8658L121.977 13.6358C122.272 13.4659 122.453 13.151 122.453 12.8113V10.3501H122.456Z" fill="#B6A06E" fill-opacity="0.55"/>
<path d="M123.181 13.7812C123.045 13.63 122.942 13.4524 122.879 13.2588C122.816 13.4522 122.714 13.6299 122.578 13.7812C122.777 13.7389 122.982 13.739 123.181 13.7812Z" stroke="#B6A06E" stroke-opacity="0.21"/>
<path d="M136.036 5.25344H136.886V2.79225C136.886 2.45251 137.069 2.13758 137.362 1.96771L139.494 0.737738L139.281 0.368249L139.067 0L136.936 1.22998C136.641 1.39984 136.279 1.39984 135.984 1.22998L133.852 0L133.639 0.368249L133.426 0.737738L135.557 1.96771C135.852 2.13758 136.033 2.45251 136.033 2.79225V5.25344H136.036Z" fill="#B6A06E" fill-opacity="0.55"/>
<path d="M136.761 1.82227C136.625 1.97351 136.522 2.15115 136.459 2.34473C136.396 2.15127 136.294 1.97363 136.158 1.82227C136.357 1.8646 136.562 1.86451 136.761 1.82227Z" stroke="#B6A06E" stroke-opacity="0.21"/>
<path d="M136.036 10.3501H136.886V12.8113C136.886 13.151 137.069 13.4659 137.362 13.6358L139.494 14.8658L139.281 15.2353L139.067 15.6035L136.936 14.3735C136.641 14.2037 136.279 14.2037 135.984 14.3735L133.852 15.6035L133.639 15.2353L133.426 14.8658L135.557 13.6358C135.852 13.4659 136.033 13.151 136.033 12.8113V10.3501H136.036Z" fill="#B6A06E" fill-opacity="0.55"/>
<path d="M136.761 13.7812C136.625 13.63 136.522 13.4524 136.459 13.2588C136.396 13.4522 136.294 13.6299 136.158 13.7812C136.357 13.7389 136.562 13.739 136.761 13.7812Z" stroke="#B6A06E" stroke-opacity="0.21"/>
<path d="M-250.973 7.79297L631.833 7.79293" stroke="#B6A06E" stroke-opacity="0.21"/>
</svg>
