<svg width="1440" height="811" viewBox="0 0 1440 811" fill="none" xmlns="http://www.w3.org/2000/svg">
<path d="M198.658 11.4473L198.658 770.283" stroke="#B6A06E" stroke-opacity="0.21"/>
<path d="M831.432 201.156L831.432 485.526" stroke="#B6A06E" stroke-opacity="0.21"/>
<path d="M831.432 580.646L831.432 810.834" stroke="#B6A06E" stroke-opacity="0.21"/>
<path d="M409.547 11.4473L409.547 485.686" stroke="#B6A06E" stroke-opacity="0.21"/>
<path d="M409.547 580.646L409.547 770.283" stroke="#B6A06E" stroke-opacity="0.21"/>
<path d="M1042.21 11.4473L1042.21 485.686" stroke="#B6A06E" stroke-opacity="0.21"/>
<path d="M1042.21 580.646L1042.21 770.283" stroke="#B6A06E" stroke-opacity="0.21"/>
<path d="M620.432 201.199L620.432 485.529" stroke="#B6A06E" stroke-opacity="0.21"/>
<path d="M620.432 580.752L620.432 810.834" stroke="#B6A06E" stroke-opacity="0.21"/>
<path d="M1253.1 11.4473L1253.1 766.545" stroke="#B6A06E" stroke-opacity="0.21"/>
<path d="M-0.455078 770.283L1439.54 770.283" stroke="#B6A06E" stroke-opacity="0.21"/>
<path d="M-0.455078 201.158L1439.54 201.158" stroke="#B6A06E" stroke-opacity="0.21"/>
<path d="M-0.455078 580.572L1439.54 580.572" stroke="#B6A06E" stroke-opacity="0.21"/>
<path d="M-0.455078 485.998L1439.54 485.998" stroke="#B6A06E" stroke-opacity="0.21"/>
<path d="M-0.455078 11.4473L1439.54 11.4472" stroke="#B6A06E" stroke-opacity="0.21"/>
<path d="M-0.455078 390.865L1439.54 390.865" stroke="#B6A06E" stroke-opacity="0.21"/>
<path d="M819.556 387.127H820.944V383.515C820.944 383.017 821.241 382.555 821.72 382.305L825.197 380.5L824.849 379.958L824.501 379.418L821.024 381.223C820.543 381.472 819.953 381.472 819.471 381.223L815.995 379.418L815.647 379.958L815.299 380.5L818.775 382.305C819.257 382.555 819.552 383.017 819.552 383.515V387.127H819.556Z" fill="#B6A06E" fill-opacity="0.55"/>
<path d="M824.428 380.228V380.229L824.479 380.309L821.49 381.861H821.489C820.862 382.187 820.443 382.811 820.443 383.516V386.627H820.052V383.516C820.052 382.856 819.686 382.266 819.121 381.926L819.006 381.861L816.016 380.309L816.067 380.229L816.168 380.07L819.241 381.667C819.867 381.991 820.628 381.991 821.254 381.667H821.255L824.327 380.07L824.428 380.228Z" stroke="#B6A06E" stroke-opacity="0.21"/>
<path d="M819.556 394.602H820.944V398.213C820.944 398.712 821.241 399.174 821.72 399.423L825.197 401.228L824.849 401.77L824.501 402.311L821.024 400.506C820.543 400.256 819.953 400.256 819.471 400.506L815.995 402.311L815.647 401.77L815.299 401.228L818.775 399.423C819.257 399.174 819.552 398.712 819.552 398.213V394.602H819.556Z" fill="#B6A06E" fill-opacity="0.55"/>
<path d="M824.428 401.501V401.5L824.479 401.42L821.49 399.867H821.489C820.862 399.541 820.443 398.917 820.443 398.213V395.102H820.052V398.213C820.052 398.872 819.686 399.463 819.121 399.803L819.006 399.867L816.016 401.42L816.067 401.5L816.168 401.658L819.241 400.062C819.867 399.738 820.628 399.738 821.254 400.062H821.255L824.327 401.658L824.428 401.501Z" stroke="#B6A06E" stroke-opacity="0.21"/>
<path d="M841.709 387.127H843.097V383.515C843.097 383.017 843.394 382.555 843.873 382.305L847.35 380.5L847.002 379.958L846.654 379.418L843.178 381.223C842.696 381.472 842.106 381.472 841.625 381.223L838.148 379.418L837.8 379.958L837.452 380.5L840.929 382.305C841.41 382.555 841.705 383.017 841.705 383.515V387.127H841.709Z" fill="#B6A06E" fill-opacity="0.55"/>
<path d="M846.581 380.228V380.229L846.633 380.309L843.644 381.861H843.643C843.016 382.187 842.597 382.811 842.597 383.516V386.627H842.205V383.516C842.205 382.856 841.84 382.266 841.274 381.926L841.159 381.861L838.169 380.309L838.221 380.229L838.321 380.07L841.395 381.667C842.02 381.991 842.782 381.991 843.407 381.667H843.408L846.48 380.07L846.581 380.228Z" stroke="#B6A06E" stroke-opacity="0.21"/>
<path d="M841.709 394.602H843.097V398.213C843.097 398.712 843.394 399.174 843.873 399.423L847.35 401.228L847.002 401.77L846.654 402.311L843.178 400.506C842.696 400.256 842.106 400.256 841.625 400.506L838.148 402.311L837.8 401.77L837.452 401.228L840.929 399.423C841.41 399.174 841.705 398.712 841.705 398.213V394.602H841.709Z" fill="#B6A06E" fill-opacity="0.55"/>
<path d="M846.581 401.501V401.5L846.633 401.42L843.644 399.867H843.643C843.016 399.541 842.597 398.917 842.597 398.213V395.102H842.205V398.213C842.205 398.872 841.84 399.463 841.274 399.803L841.159 399.867L838.169 401.42L838.221 401.5L838.321 401.658L841.395 400.062C842.02 399.738 842.782 399.738 843.407 400.062H843.408L846.48 401.658L846.581 401.501Z" stroke="#B6A06E" stroke-opacity="0.21"/>
<path d="M819.556 197.42H820.944V193.808C820.944 193.31 821.241 192.848 821.72 192.598L825.197 190.793L824.849 190.251L824.501 189.711L821.024 191.516C820.543 191.765 819.953 191.765 819.471 191.516L815.995 189.711L815.647 190.251L815.299 190.793L818.775 192.598C819.257 192.848 819.552 193.31 819.552 193.808V197.42H819.556Z" fill="#B6A06E" fill-opacity="0.55"/>
<path d="M824.428 190.521V190.521L824.479 190.602L821.49 192.154H821.489C820.862 192.48 820.443 193.104 820.443 193.809V196.92H820.052V193.809C820.052 193.149 819.686 192.559 819.121 192.219L819.006 192.154L816.016 190.602L816.067 190.521L816.168 190.363L819.241 191.96C819.867 192.284 820.628 192.284 821.254 191.96H821.255L824.327 190.363L824.428 190.521Z" stroke="#B6A06E" stroke-opacity="0.21"/>
<path d="M819.556 204.895H820.944V208.506C820.944 209.005 821.241 209.467 821.72 209.716L825.197 211.521L824.849 212.063L824.501 212.604L821.024 210.799C820.543 210.549 819.953 210.549 819.471 210.799L815.995 212.604L815.647 212.063L815.299 211.521L818.775 209.716C819.257 209.467 819.552 209.005 819.552 208.506V204.895H819.556Z" fill="#B6A06E" fill-opacity="0.55"/>
<path d="M824.428 211.794V211.793L824.479 211.713L821.49 210.16H821.489C820.862 209.834 820.443 209.21 820.443 208.506V205.395H820.052V208.506C820.052 209.165 819.686 209.756 819.121 210.096L819.006 210.16L816.016 211.713L816.067 211.793L816.168 211.951L819.241 210.354C819.867 210.031 820.628 210.031 821.254 210.354H821.255L824.327 211.951L824.428 211.794Z" stroke="#B6A06E" stroke-opacity="0.21"/>
<path d="M841.709 197.42H843.097V193.808C843.097 193.31 843.394 192.848 843.873 192.598L847.35 190.793L847.002 190.251L846.654 189.711L843.178 191.516C842.696 191.765 842.106 191.765 841.625 191.516L838.148 189.711L837.8 190.251L837.452 190.793L840.929 192.598C841.41 192.848 841.705 193.31 841.705 193.808V197.42H841.709Z" fill="#B6A06E" fill-opacity="0.55"/>
<path d="M846.581 190.521V190.521L846.633 190.602L843.644 192.154H843.643C843.016 192.48 842.597 193.104 842.597 193.809V196.92H842.205V193.809C842.205 193.149 841.84 192.559 841.274 192.219L841.159 192.154L838.169 190.602L838.221 190.521L838.321 190.363L841.395 191.96C842.02 192.284 842.782 192.284 843.407 191.96H843.408L846.48 190.363L846.581 190.521Z" stroke="#B6A06E" stroke-opacity="0.21"/>
<path d="M841.709 204.895H843.097V208.506C843.097 209.005 843.394 209.467 843.873 209.716L847.35 211.521L847.002 212.063L846.654 212.604L843.178 210.799C842.696 210.549 842.106 210.549 841.625 210.799L838.148 212.604L837.8 212.063L837.452 211.521L840.929 209.716C841.41 209.467 841.705 209.005 841.705 208.506V204.895H841.709Z" fill="#B6A06E" fill-opacity="0.55"/>
<path d="M846.581 211.794V211.793L846.633 211.713L843.644 210.16H843.643C843.016 209.834 842.597 209.21 842.597 208.506V205.395H842.205V208.506C842.205 209.165 841.84 209.756 841.274 210.096L841.159 210.16L838.169 211.713L838.221 211.793L838.321 211.951L841.395 210.354C842.02 210.031 842.782 210.031 843.407 210.354H843.408L846.48 211.951L846.581 211.794Z" stroke="#B6A06E" stroke-opacity="0.21"/>
<path d="M819.556 7.7086H820.944V4.09719C820.944 3.59868 821.241 3.13657 821.72 2.88731L825.197 1.08252L824.849 0.540349L824.501 0L821.024 1.8048C820.543 2.05405 819.953 2.05405 819.471 1.8048L815.995 0L815.647 0.540349L815.299 1.08252L818.775 2.88731C819.257 3.13657 819.552 3.59868 819.552 4.09719V7.7086H819.556Z" fill="#B6A06E" fill-opacity="0.55"/>
<path d="M824.428 0.80957V0.810547L824.479 0.890625L821.49 2.44336H821.489C820.862 2.76938 820.443 3.39331 820.443 4.09766V7.20898H820.052V4.09766C820.052 3.43821 819.686 2.84799 819.121 2.50781L819.006 2.44336L816.016 0.890625L816.067 0.810547L816.168 0.652344L819.241 2.24902C819.867 2.57284 820.628 2.5727 821.254 2.24902H821.255L824.327 0.652344L824.428 0.80957Z" stroke="#B6A06E" stroke-opacity="0.21"/>
<path d="M819.556 15.184H820.944V18.7954C820.944 19.2939 821.241 19.756 821.72 20.0053L825.197 21.8101L824.849 22.3522L824.501 22.8926L821.024 21.0878C820.543 20.8385 819.953 20.8385 819.471 21.0878L815.995 22.8926L815.647 22.3522L815.299 21.8101L818.775 20.0053C819.257 19.756 819.552 19.2939 819.552 18.7954V15.184H819.556Z" fill="#B6A06E" fill-opacity="0.55"/>
<path d="M824.428 22.083V22.082L824.479 22.002L821.49 20.4492H821.489C820.862 20.1232 820.443 19.4993 820.443 18.7949V15.6836H820.052V18.7949C820.052 19.4544 819.686 20.0446 819.121 20.3848L819.006 20.4492L816.016 22.002L816.067 22.082L816.168 22.2402L819.241 20.6436C819.867 20.3197 820.628 20.3199 821.254 20.6436H821.255L824.327 22.2402L824.428 22.083Z" stroke="#B6A06E" stroke-opacity="0.21"/>
<path d="M841.709 7.7086H843.097V4.09719C843.097 3.59868 843.394 3.13657 843.873 2.88731L847.35 1.08252L847.002 0.540349L846.654 0L843.178 1.8048C842.696 2.05405 842.106 2.05405 841.625 1.8048L838.148 0L837.8 0.540349L837.452 1.08252L840.929 2.88731C841.41 3.13657 841.705 3.59868 841.705 4.09719V7.7086H841.709Z" fill="#B6A06E" fill-opacity="0.55"/>
<path d="M846.581 0.80957V0.810547L846.633 0.890625L843.644 2.44336H843.643C843.016 2.76938 842.597 3.39331 842.597 4.09766V7.20898H842.205V4.09766C842.205 3.43821 841.84 2.84799 841.274 2.50781L841.159 2.44336L838.169 0.890625L838.221 0.810547L838.321 0.652344L841.395 2.24902C842.02 2.57284 842.782 2.5727 843.407 2.24902H843.408L846.48 0.652344L846.581 0.80957Z" stroke="#B6A06E" stroke-opacity="0.21"/>
<path d="M841.709 15.184H843.097V18.7954C843.097 19.2939 843.394 19.756 843.873 20.0053L847.35 21.8101L847.002 22.3522L846.654 22.8926L843.178 21.0878C842.696 20.8385 842.106 20.8385 841.625 21.0878L838.148 22.8926L837.8 22.3522L837.452 21.8101L840.929 20.0053C841.41 19.756 841.705 19.2939 841.705 18.7954V15.184H841.709Z" fill="#B6A06E" fill-opacity="0.55"/>
<path d="M846.581 22.083V22.082L846.633 22.002L843.644 20.4492H843.643C843.016 20.1232 842.597 19.4993 842.597 18.7949V15.6836H842.205V18.7949C842.205 19.4544 841.84 20.0446 841.274 20.3848L841.159 20.4492L838.169 22.002L838.221 22.082L838.321 22.2402L841.395 20.6436C842.02 20.3197 842.782 20.3199 843.407 20.6436H843.408L846.48 22.2402L846.581 22.083Z" stroke="#B6A06E" stroke-opacity="0.21"/>
<path d="M819.556 576.834H820.944V573.222C820.944 572.724 821.241 572.262 821.72 572.012L825.197 570.208L824.849 569.665L824.501 569.125L821.024 570.93C820.543 571.179 819.953 571.179 819.471 570.93L815.995 569.125L815.647 569.665L815.299 570.208L818.775 572.012C819.257 572.262 819.552 572.724 819.552 573.222V576.834H819.556Z" fill="#B6A06E" fill-opacity="0.55"/>
<path d="M824.428 569.935V569.936L824.479 570.016L821.49 571.568H821.489C820.862 571.894 820.443 572.518 820.443 573.223V576.334H820.052V573.223C820.052 572.563 819.686 571.973 819.121 571.633L819.006 571.568L816.016 570.016L816.067 569.936L816.168 569.777L819.241 571.374C819.867 571.698 820.628 571.698 821.254 571.374H821.255L824.327 569.777L824.428 569.935Z" stroke="#B6A06E" stroke-opacity="0.21"/>
<path d="M819.556 584.309H820.944V587.92C820.944 588.419 821.241 588.881 821.72 589.13L825.197 590.935L824.849 591.477L824.501 592.018L821.024 590.213C820.543 589.964 819.953 589.964 819.471 590.213L815.995 592.018L815.647 591.477L815.299 590.935L818.775 589.13C819.257 588.881 819.552 588.419 819.552 587.92V584.309H819.556Z" fill="#B6A06E" fill-opacity="0.55"/>
<path d="M824.428 591.208V591.207L824.479 591.127L821.49 589.574H821.489C820.862 589.248 820.443 588.624 820.443 587.92V584.809H820.052V587.92C820.052 588.579 819.686 589.17 819.121 589.51L819.006 589.574L816.016 591.127L816.067 591.207L816.168 591.365L819.241 589.769C819.867 589.445 820.628 589.445 821.254 589.769H821.255L824.327 591.365L824.428 591.208Z" stroke="#B6A06E" stroke-opacity="0.21"/>
<path d="M841.709 576.834H843.097V573.222C843.097 572.724 843.394 572.262 843.873 572.012L847.35 570.208L847.002 569.665L846.654 569.125L843.178 570.93C842.696 571.179 842.106 571.179 841.625 570.93L838.148 569.125L837.8 569.665L837.452 570.208L840.929 572.012C841.41 572.262 841.705 572.724 841.705 573.222V576.834H841.709Z" fill="#B6A06E" fill-opacity="0.55"/>
<path d="M846.581 569.935V569.936L846.633 570.016L843.644 571.568H843.643C843.016 571.894 842.597 572.518 842.597 573.223V576.334H842.205V573.223C842.205 572.563 841.84 571.973 841.274 571.633L841.159 571.568L838.169 570.016L838.221 569.936L838.321 569.777L841.395 571.374C842.02 571.698 842.782 571.698 843.407 571.374H843.408L846.48 569.777L846.581 569.935Z" stroke="#B6A06E" stroke-opacity="0.21"/>
<path d="M841.709 584.309H843.097V587.92C843.097 588.419 843.394 588.881 843.873 589.13L847.35 590.935L847.002 591.477L846.654 592.018L843.178 590.213C842.696 589.964 842.106 589.964 841.625 590.213L838.148 592.018L837.8 591.477L837.452 590.935L840.929 589.13C841.41 588.881 841.705 588.419 841.705 587.92V584.309H841.709Z" fill="#B6A06E" fill-opacity="0.55"/>
<path d="M846.581 591.208V591.207L846.633 591.127L843.644 589.574H843.643C843.016 589.248 842.597 588.624 842.597 587.92V584.809H842.205V587.92C842.205 588.579 841.84 589.17 841.274 589.51L841.159 589.574L838.169 591.127L838.221 591.207L838.321 591.365L841.395 589.769C842.02 589.445 842.782 589.445 843.407 589.769H843.408L846.48 591.365L846.581 591.208Z" stroke="#B6A06E" stroke-opacity="0.21"/>
<path d="M819.556 766.548H820.944V762.937C820.944 762.439 821.241 761.976 821.72 761.727L825.197 759.922L824.849 759.38L824.501 758.84L821.024 760.645C820.543 760.894 819.953 760.894 819.471 760.645L815.995 758.84L815.647 759.38L815.299 759.922L818.775 761.727C819.257 761.976 819.552 762.439 819.552 762.937V766.548H819.556Z" fill="#B6A06E" fill-opacity="0.55"/>
<path d="M824.428 759.649V759.65L824.479 759.73L821.49 761.283H821.489C820.862 761.609 820.443 762.233 820.443 762.938V766.049H820.052V762.938C820.052 762.278 819.686 761.688 819.121 761.348L819.006 761.283L816.016 759.73L816.067 759.65L816.168 759.492L819.241 761.089C819.867 761.413 820.628 761.413 821.254 761.089H821.255L824.327 759.492L824.428 759.649Z" stroke="#B6A06E" stroke-opacity="0.21"/>
<path d="M819.556 774.024H820.944V777.635C820.944 778.134 821.241 778.596 821.72 778.845L825.197 780.65L824.849 781.192L824.501 781.732L821.024 779.928C820.543 779.678 819.953 779.678 819.471 779.928L815.995 781.732L815.647 781.192L815.299 780.65L818.775 778.845C819.257 778.596 819.552 778.134 819.552 777.635V774.024H819.556Z" fill="#B6A06E" fill-opacity="0.55"/>
<path d="M824.428 780.923V780.922L824.479 780.842L821.49 779.289H821.489C820.862 778.963 820.443 778.339 820.443 777.635V774.523H820.052V777.635C820.052 778.294 819.686 778.884 819.121 779.225L819.006 779.289L816.016 780.842L816.067 780.922L816.168 781.08L819.241 779.483C819.867 779.16 820.628 779.16 821.254 779.483H821.255L824.327 781.08L824.428 780.923Z" stroke="#B6A06E" stroke-opacity="0.21"/>
<path d="M841.709 766.548H843.097V762.937C843.097 762.439 843.394 761.976 843.873 761.727L847.35 759.922L847.002 759.38L846.654 758.84L843.178 760.645C842.696 760.894 842.106 760.894 841.625 760.645L838.148 758.84L837.8 759.38L837.452 759.922L840.929 761.727C841.41 761.976 841.705 762.439 841.705 762.937V766.548H841.709Z" fill="#B6A06E" fill-opacity="0.55"/>
<path d="M846.581 759.649V759.65L846.633 759.73L843.644 761.283H843.643C843.016 761.609 842.597 762.233 842.597 762.938V766.049H842.205V762.938C842.205 762.278 841.84 761.688 841.274 761.348L841.159 761.283L838.169 759.73L838.221 759.65L838.321 759.492L841.395 761.089C842.02 761.413 842.782 761.413 843.407 761.089H843.408L846.48 759.492L846.581 759.649Z" stroke="#B6A06E" stroke-opacity="0.21"/>
<path d="M841.709 774.024H843.097V777.635C843.097 778.134 843.394 778.596 843.873 778.845L847.35 780.65L847.002 781.192L846.654 781.732L843.178 779.928C842.696 779.678 842.106 779.678 841.625 779.928L838.148 781.732L837.8 781.192L837.452 780.65L840.929 778.845C841.41 778.596 841.705 778.134 841.705 777.635V774.024H841.709Z" fill="#B6A06E" fill-opacity="0.55"/>
<path d="M846.581 780.923V780.922L846.633 780.842L843.644 779.289H843.643C843.016 778.963 842.597 778.339 842.597 777.635V774.523H842.205V777.635C842.205 778.294 841.84 778.884 841.274 779.225L841.159 779.289L838.169 780.842L838.221 780.922L838.321 781.08L841.395 779.483C842.02 779.16 842.782 779.16 843.407 779.483H843.408L846.48 781.08L846.581 780.923Z" stroke="#B6A06E" stroke-opacity="0.21"/>
<path d="M1030.44 387.127H1031.83V383.515C1031.83 383.017 1032.13 382.555 1032.61 382.305L1036.09 380.5L1035.74 379.958L1035.39 379.418L1031.91 381.223C1031.43 381.472 1030.84 381.472 1030.36 381.223L1026.88 379.418L1026.54 379.958L1026.19 380.5L1029.66 382.305C1030.15 382.555 1030.44 383.017 1030.44 383.515V387.127H1030.44Z" fill="#B6A06E" fill-opacity="0.55"/>
<path d="M1035.32 380.228V380.229L1035.37 380.309L1032.38 381.861H1032.38C1031.75 382.187 1031.33 382.811 1031.33 383.516V386.627H1030.94V383.516C1030.94 382.856 1030.58 382.266 1030.01 381.926L1029.89 381.861L1026.9 380.309L1026.96 380.229L1027.06 380.07L1030.13 381.667C1030.76 381.991 1031.52 381.991 1032.14 381.667H1032.14L1035.22 380.07L1035.32 380.228Z" stroke="#B6A06E" stroke-opacity="0.21"/>
<path d="M1030.44 394.602H1031.83V398.213C1031.83 398.712 1032.13 399.174 1032.61 399.423L1036.09 401.228L1035.74 401.77L1035.39 402.311L1031.91 400.506C1031.43 400.256 1030.84 400.256 1030.36 400.506L1026.88 402.311L1026.54 401.77L1026.19 401.228L1029.66 399.423C1030.15 399.174 1030.44 398.712 1030.44 398.213V394.602H1030.44Z" fill="#B6A06E" fill-opacity="0.55"/>
<path d="M1035.32 401.501V401.5L1035.37 401.42L1032.38 399.867H1032.38C1031.75 399.541 1031.33 398.917 1031.33 398.213V395.102H1030.94V398.213C1030.94 398.872 1030.58 399.463 1030.01 399.803L1029.89 399.867L1026.9 401.42L1026.96 401.5L1027.06 401.658L1030.13 400.062C1030.76 399.738 1031.52 399.738 1032.14 400.062H1032.14L1035.22 401.658L1035.32 401.501Z" stroke="#B6A06E" stroke-opacity="0.21"/>
<path d="M1052.6 387.127H1053.99V383.515C1053.99 383.017 1054.28 382.555 1054.76 382.305L1058.24 380.5L1057.89 379.958L1057.54 379.418L1054.07 381.223C1053.59 381.472 1052.99 381.472 1052.51 381.223L1049.04 379.418L1048.69 379.958L1048.34 380.5L1051.82 382.305C1052.3 382.555 1052.59 383.017 1052.59 383.515V387.127H1052.6Z" fill="#B6A06E" fill-opacity="0.55"/>
<path d="M1057.47 380.228V380.229L1057.52 380.309L1054.53 381.861H1054.53C1053.9 382.187 1053.49 382.811 1053.49 383.516V386.627H1053.09V383.516C1053.09 382.856 1052.73 382.266 1052.16 381.926L1052.05 381.861L1049.06 380.309L1049.11 380.229L1049.21 380.07L1052.28 381.667C1052.91 381.991 1053.67 381.991 1054.3 381.667H1054.3L1057.37 380.07L1057.47 380.228Z" stroke="#B6A06E" stroke-opacity="0.21"/>
<path d="M1052.6 394.602H1053.99V398.213C1053.99 398.712 1054.28 399.174 1054.76 399.423L1058.24 401.228L1057.89 401.77L1057.54 402.311L1054.07 400.506C1053.59 400.256 1052.99 400.256 1052.51 400.506L1049.04 402.311L1048.69 401.77L1048.34 401.228L1051.82 399.423C1052.3 399.174 1052.59 398.712 1052.59 398.213V394.602H1052.6Z" fill="#B6A06E" fill-opacity="0.55"/>
<path d="M1057.47 401.501V401.5L1057.52 401.42L1054.53 399.867H1054.53C1053.9 399.541 1053.49 398.917 1053.49 398.213V395.102H1053.09V398.213C1053.09 398.872 1052.73 399.463 1052.16 399.803L1052.05 399.867L1049.06 401.42L1049.11 401.5L1049.21 401.658L1052.28 400.062C1052.91 399.738 1053.67 399.738 1054.3 400.062H1054.3L1057.37 401.658L1057.47 401.501Z" stroke="#B6A06E" stroke-opacity="0.21"/>
<path d="M1030.44 197.42H1031.83V193.808C1031.83 193.31 1032.13 192.848 1032.61 192.598L1036.09 190.793L1035.74 190.251L1035.39 189.711L1031.91 191.516C1031.43 191.765 1030.84 191.765 1030.36 191.516L1026.88 189.711L1026.54 190.251L1026.19 190.793L1029.66 192.598C1030.15 192.848 1030.44 193.31 1030.44 193.808V197.42H1030.44Z" fill="#B6A06E" fill-opacity="0.55"/>
<path d="M1035.32 190.521V190.521L1035.37 190.602L1032.38 192.154H1032.38C1031.75 192.48 1031.33 193.104 1031.33 193.809V196.92H1030.94V193.809C1030.94 193.149 1030.58 192.559 1030.01 192.219L1029.89 192.154L1026.9 190.602L1026.96 190.521L1027.06 190.363L1030.13 191.96C1030.76 192.284 1031.52 192.284 1032.14 191.96H1032.14L1035.22 190.363L1035.32 190.521Z" stroke="#B6A06E" stroke-opacity="0.21"/>
<path d="M1030.44 204.895H1031.83V208.506C1031.83 209.005 1032.13 209.467 1032.61 209.716L1036.09 211.521L1035.74 212.063L1035.39 212.604L1031.91 210.799C1031.43 210.549 1030.84 210.549 1030.36 210.799L1026.88 212.604L1026.54 212.063L1026.19 211.521L1029.66 209.716C1030.15 209.467 1030.44 209.005 1030.44 208.506V204.895H1030.44Z" fill="#B6A06E" fill-opacity="0.55"/>
<path d="M1035.32 211.794V211.793L1035.37 211.713L1032.38 210.16H1032.38C1031.75 209.834 1031.33 209.21 1031.33 208.506V205.395H1030.94V208.506C1030.94 209.165 1030.58 209.756 1030.01 210.096L1029.89 210.16L1026.9 211.713L1026.96 211.793L1027.06 211.951L1030.13 210.354C1030.76 210.031 1031.52 210.031 1032.14 210.354H1032.14L1035.22 211.951L1035.32 211.794Z" stroke="#B6A06E" stroke-opacity="0.21"/>
<path d="M1052.6 197.42H1053.99V193.808C1053.99 193.31 1054.28 192.848 1054.76 192.598L1058.24 190.793L1057.89 190.251L1057.54 189.711L1054.07 191.516C1053.59 191.765 1052.99 191.765 1052.51 191.516L1049.04 189.711L1048.69 190.251L1048.34 190.793L1051.82 192.598C1052.3 192.848 1052.59 193.31 1052.59 193.808V197.42H1052.6Z" fill="#B6A06E" fill-opacity="0.55"/>
<path d="M1057.47 190.521V190.521L1057.52 190.602L1054.53 192.154H1054.53C1053.9 192.48 1053.49 193.104 1053.49 193.809V196.92H1053.09V193.809C1053.09 193.149 1052.73 192.559 1052.16 192.219L1052.05 192.154L1049.06 190.602L1049.11 190.521L1049.21 190.363L1052.28 191.96C1052.91 192.284 1053.67 192.284 1054.3 191.96H1054.3L1057.37 190.363L1057.47 190.521Z" stroke="#B6A06E" stroke-opacity="0.21"/>
<path d="M1052.6 204.895H1053.99V208.506C1053.99 209.005 1054.28 209.467 1054.76 209.716L1058.24 211.521L1057.89 212.063L1057.54 212.604L1054.07 210.799C1053.59 210.549 1052.99 210.549 1052.51 210.799L1049.04 212.604L1048.69 212.063L1048.34 211.521L1051.82 209.716C1052.3 209.467 1052.59 209.005 1052.59 208.506V204.895H1052.6Z" fill="#B6A06E" fill-opacity="0.55"/>
<path d="M1057.47 211.794V211.793L1057.52 211.713L1054.53 210.16H1054.53C1053.9 209.834 1053.49 209.21 1053.49 208.506V205.395H1053.09V208.506C1053.09 209.165 1052.73 209.756 1052.16 210.096L1052.05 210.16L1049.06 211.713L1049.11 211.793L1049.21 211.951L1052.28 210.354C1052.91 210.031 1053.67 210.031 1054.3 210.354H1054.3L1057.37 211.951L1057.47 211.794Z" stroke="#B6A06E" stroke-opacity="0.21"/>
<path d="M1030.44 7.7086H1031.83V4.09719C1031.83 3.59868 1032.13 3.13657 1032.61 2.88731L1036.09 1.08252L1035.74 0.540349L1035.39 0L1031.91 1.8048C1031.43 2.05405 1030.84 2.05405 1030.36 1.8048L1026.88 0L1026.54 0.540349L1026.19 1.08252L1029.66 2.88731C1030.15 3.13657 1030.44 3.59868 1030.44 4.09719V7.7086H1030.44Z" fill="#B6A06E" fill-opacity="0.55"/>
<path d="M1035.32 0.80957V0.810547L1035.37 0.890625L1032.38 2.44336H1032.38C1031.75 2.76938 1031.33 3.39331 1031.33 4.09766V7.20898H1030.94V4.09766C1030.94 3.43821 1030.58 2.84799 1030.01 2.50781L1029.89 2.44336L1026.9 0.890625L1026.96 0.810547L1027.06 0.652344L1030.13 2.24902C1030.76 2.57284 1031.52 2.5727 1032.14 2.24902H1032.14L1035.22 0.652344L1035.32 0.80957Z" stroke="#B6A06E" stroke-opacity="0.21"/>
<path d="M1030.44 15.184H1031.83V18.7954C1031.83 19.2939 1032.13 19.756 1032.61 20.0053L1036.09 21.8101L1035.74 22.3522L1035.39 22.8926L1031.91 21.0878C1031.43 20.8385 1030.84 20.8385 1030.36 21.0878L1026.88 22.8926L1026.54 22.3522L1026.19 21.8101L1029.66 20.0053C1030.15 19.756 1030.44 19.2939 1030.44 18.7954V15.184H1030.44Z" fill="#B6A06E" fill-opacity="0.55"/>
<path d="M1035.32 22.083V22.082L1035.37 22.002L1032.38 20.4492H1032.38C1031.75 20.1232 1031.33 19.4993 1031.33 18.7949V15.6836H1030.94V18.7949C1030.94 19.4544 1030.58 20.0446 1030.01 20.3848L1029.89 20.4492L1026.9 22.002L1026.96 22.082L1027.06 22.2402L1030.13 20.6436C1030.76 20.3197 1031.52 20.3199 1032.14 20.6436H1032.14L1035.22 22.2402L1035.32 22.083Z" stroke="#B6A06E" stroke-opacity="0.21"/>
<path d="M1052.6 7.7086H1053.99V4.09719C1053.99 3.59868 1054.28 3.13657 1054.76 2.88731L1058.24 1.08252L1057.89 0.540349L1057.54 0L1054.07 1.8048C1053.59 2.05405 1052.99 2.05405 1052.51 1.8048L1049.04 0L1048.69 0.540349L1048.34 1.08252L1051.82 2.88731C1052.3 3.13657 1052.59 3.59868 1052.59 4.09719V7.7086H1052.6Z" fill="#B6A06E" fill-opacity="0.55"/>
<path d="M1057.47 0.80957V0.810547L1057.52 0.890625L1054.53 2.44336H1054.53C1053.9 2.76938 1053.49 3.39331 1053.49 4.09766V7.20898H1053.09V4.09766C1053.09 3.43821 1052.73 2.84799 1052.16 2.50781L1052.05 2.44336L1049.06 0.890625L1049.11 0.810547L1049.21 0.652344L1052.28 2.24902C1052.91 2.57284 1053.67 2.5727 1054.3 2.24902H1054.3L1057.37 0.652344L1057.47 0.80957Z" stroke="#B6A06E" stroke-opacity="0.21"/>
<path d="M1052.6 15.184H1053.99V18.7954C1053.99 19.2939 1054.28 19.756 1054.76 20.0053L1058.24 21.8101L1057.89 22.3522L1057.54 22.8926L1054.07 21.0878C1053.59 20.8385 1052.99 20.8385 1052.51 21.0878L1049.04 22.8926L1048.69 22.3522L1048.34 21.8101L1051.82 20.0053C1052.3 19.756 1052.59 19.2939 1052.59 18.7954V15.184H1052.6Z" fill="#B6A06E" fill-opacity="0.55"/>
<path d="M1057.47 22.083V22.082L1057.52 22.002L1054.53 20.4492H1054.53C1053.9 20.1232 1053.49 19.4993 1053.49 18.7949V15.6836H1053.09V18.7949C1053.09 19.4544 1052.73 20.0446 1052.16 20.3848L1052.05 20.4492L1049.06 22.002L1049.11 22.082L1049.21 22.2402L1052.28 20.6436C1052.91 20.3197 1053.67 20.3199 1054.3 20.6436H1054.3L1057.37 22.2402L1057.47 22.083Z" stroke="#B6A06E" stroke-opacity="0.21"/>
<path d="M1030.44 576.834H1031.83V573.222C1031.83 572.724 1032.13 572.262 1032.61 572.012L1036.09 570.208L1035.74 569.665L1035.39 569.125L1031.91 570.93C1031.43 571.179 1030.84 571.179 1030.36 570.93L1026.88 569.125L1026.54 569.665L1026.19 570.208L1029.66 572.012C1030.15 572.262 1030.44 572.724 1030.44 573.222V576.834H1030.44Z" fill="#B6A06E" fill-opacity="0.55"/>
<path d="M1035.32 569.935V569.936L1035.37 570.016L1032.38 571.568H1032.38C1031.75 571.894 1031.33 572.518 1031.33 573.223V576.334H1030.94V573.223C1030.94 572.563 1030.58 571.973 1030.01 571.633L1029.89 571.568L1026.9 570.016L1026.96 569.936L1027.06 569.777L1030.13 571.374C1030.76 571.698 1031.52 571.698 1032.14 571.374H1032.14L1035.22 569.777L1035.32 569.935Z" stroke="#B6A06E" stroke-opacity="0.21"/>
<path d="M1030.44 584.309H1031.83V587.92C1031.83 588.419 1032.13 588.881 1032.61 589.13L1036.09 590.935L1035.74 591.477L1035.39 592.018L1031.91 590.213C1031.43 589.964 1030.84 589.964 1030.36 590.213L1026.88 592.018L1026.54 591.477L1026.19 590.935L1029.66 589.13C1030.15 588.881 1030.44 588.419 1030.44 587.92V584.309H1030.44Z" fill="#B6A06E" fill-opacity="0.55"/>
<path d="M1035.32 591.208V591.207L1035.37 591.127L1032.38 589.574H1032.38C1031.75 589.248 1031.33 588.624 1031.33 587.92V584.809H1030.94V587.92C1030.94 588.579 1030.58 589.17 1030.01 589.51L1029.89 589.574L1026.9 591.127L1026.96 591.207L1027.06 591.365L1030.13 589.769C1030.76 589.445 1031.52 589.445 1032.14 589.769H1032.14L1035.22 591.365L1035.32 591.208Z" stroke="#B6A06E" stroke-opacity="0.21"/>
<path d="M1052.6 576.834H1053.99V573.222C1053.99 572.724 1054.28 572.262 1054.76 572.012L1058.24 570.208L1057.89 569.665L1057.54 569.125L1054.07 570.93C1053.59 571.179 1052.99 571.179 1052.51 570.93L1049.04 569.125L1048.69 569.665L1048.34 570.208L1051.82 572.012C1052.3 572.262 1052.59 572.724 1052.59 573.222V576.834H1052.6Z" fill="#B6A06E" fill-opacity="0.55"/>
<path d="M1057.47 569.935V569.936L1057.52 570.016L1054.53 571.568H1054.53C1053.9 571.894 1053.49 572.518 1053.49 573.223V576.334H1053.09V573.223C1053.09 572.563 1052.73 571.973 1052.16 571.633L1052.05 571.568L1049.06 570.016L1049.11 569.936L1049.21 569.777L1052.28 571.374C1052.91 571.698 1053.67 571.698 1054.3 571.374H1054.3L1057.37 569.777L1057.47 569.935Z" stroke="#B6A06E" stroke-opacity="0.21"/>
<path d="M1052.6 584.309H1053.99V587.92C1053.99 588.419 1054.28 588.881 1054.76 589.13L1058.24 590.935L1057.89 591.477L1057.54 592.018L1054.07 590.213C1053.59 589.964 1052.99 589.964 1052.51 590.213L1049.04 592.018L1048.69 591.477L1048.34 590.935L1051.82 589.13C1052.3 588.881 1052.59 588.419 1052.59 587.92V584.309H1052.6Z" fill="#B6A06E" fill-opacity="0.55"/>
<path d="M1057.47 591.208V591.207L1057.52 591.127L1054.53 589.574H1054.53C1053.9 589.248 1053.49 588.624 1053.49 587.92V584.809H1053.09V587.92C1053.09 588.579 1052.73 589.17 1052.16 589.51L1052.05 589.574L1049.06 591.127L1049.11 591.207L1049.21 591.365L1052.28 589.769C1052.91 589.445 1053.67 589.445 1054.3 589.769H1054.3L1057.37 591.365L1057.47 591.208Z" stroke="#B6A06E" stroke-opacity="0.21"/>
<path d="M1030.44 766.548H1031.83V762.937C1031.83 762.439 1032.13 761.976 1032.61 761.727L1036.09 759.922L1035.74 759.38L1035.39 758.84L1031.91 760.645C1031.43 760.894 1030.84 760.894 1030.36 760.645L1026.88 758.84L1026.54 759.38L1026.19 759.922L1029.66 761.727C1030.15 761.976 1030.44 762.439 1030.44 762.937V766.548H1030.44Z" fill="#B6A06E" fill-opacity="0.55"/>
<path d="M1035.32 759.649V759.65L1035.37 759.73L1032.38 761.283H1032.38C1031.75 761.609 1031.33 762.233 1031.33 762.938V766.049H1030.94V762.938C1030.94 762.278 1030.58 761.688 1030.01 761.348L1029.89 761.283L1026.9 759.73L1026.96 759.65L1027.06 759.492L1030.13 761.089C1030.76 761.413 1031.52 761.413 1032.14 761.089H1032.14L1035.22 759.492L1035.32 759.649Z" stroke="#B6A06E" stroke-opacity="0.21"/>
<path d="M1030.44 774.024H1031.83V777.635C1031.83 778.134 1032.13 778.596 1032.61 778.845L1036.09 780.65L1035.74 781.192L1035.39 781.732L1031.91 779.928C1031.43 779.678 1030.84 779.678 1030.36 779.928L1026.88 781.732L1026.54 781.192L1026.19 780.65L1029.66 778.845C1030.15 778.596 1030.44 778.134 1030.44 777.635V774.024H1030.44Z" fill="#B6A06E" fill-opacity="0.55"/>
<path d="M1035.32 780.923V780.922L1035.37 780.842L1032.38 779.289H1032.38C1031.75 778.963 1031.33 778.339 1031.33 777.635V774.523H1030.94V777.635C1030.94 778.294 1030.58 778.884 1030.01 779.225L1029.89 779.289L1026.9 780.842L1026.96 780.922L1027.06 781.08L1030.13 779.483C1030.76 779.16 1031.52 779.16 1032.14 779.483H1032.14L1035.22 781.08L1035.32 780.923Z" stroke="#B6A06E" stroke-opacity="0.21"/>
<path d="M1052.6 766.548H1053.99V762.937C1053.99 762.439 1054.28 761.976 1054.76 761.727L1058.24 759.922L1057.89 759.38L1057.54 758.84L1054.07 760.645C1053.59 760.894 1052.99 760.894 1052.51 760.645L1049.04 758.84L1048.69 759.38L1048.34 759.922L1051.82 761.727C1052.3 761.976 1052.59 762.439 1052.59 762.937V766.548H1052.6Z" fill="#B6A06E" fill-opacity="0.55"/>
<path d="M1057.47 759.649V759.65L1057.52 759.73L1054.53 761.283H1054.53C1053.9 761.609 1053.49 762.233 1053.49 762.938V766.049H1053.09V762.938C1053.09 762.278 1052.73 761.688 1052.16 761.348L1052.05 761.283L1049.06 759.73L1049.11 759.65L1049.21 759.492L1052.28 761.089C1052.91 761.413 1053.67 761.413 1054.3 761.089H1054.3L1057.37 759.492L1057.47 759.649Z" stroke="#B6A06E" stroke-opacity="0.21"/>
<path d="M1052.6 774.024H1053.99V777.635C1053.99 778.134 1054.28 778.596 1054.76 778.845L1058.24 780.65L1057.89 781.192L1057.54 781.732L1054.07 779.928C1053.59 779.678 1052.99 779.678 1052.51 779.928L1049.04 781.732L1048.69 781.192L1048.34 780.65L1051.82 778.845C1052.3 778.596 1052.59 778.134 1052.59 777.635V774.024H1052.6Z" fill="#B6A06E" fill-opacity="0.55"/>
<path d="M1057.47 780.923V780.922L1057.52 780.842L1054.53 779.289H1054.53C1053.9 778.963 1053.49 778.339 1053.49 777.635V774.523H1053.09V777.635C1053.09 778.294 1052.73 778.884 1052.16 779.225L1052.05 779.289L1049.06 780.842L1049.11 780.922L1049.21 781.08L1052.28 779.483C1052.91 779.16 1053.67 779.16 1054.3 779.483H1054.3L1057.37 781.08L1057.47 780.923Z" stroke="#B6A06E" stroke-opacity="0.21"/>
<path d="M1241.33 387.127H1242.72V383.515C1242.72 383.017 1243.02 382.555 1243.5 382.305L1246.97 380.5L1246.63 379.958L1246.28 379.418L1242.8 381.223C1242.32 381.472 1241.73 381.472 1241.25 381.223L1237.77 379.418L1237.42 379.958L1237.08 380.5L1240.55 382.305C1241.03 382.555 1241.33 383.017 1241.33 383.515V387.127H1241.33Z" fill="#B6A06E" fill-opacity="0.55"/>
<path d="M1246.21 380.228V380.229L1246.26 380.309L1243.27 381.861H1243.27C1242.64 382.187 1242.22 382.811 1242.22 383.516V386.627H1241.83V383.516C1241.83 382.856 1241.46 382.266 1240.9 381.926L1240.78 381.861L1237.79 380.309L1237.84 380.229L1237.95 380.07L1241.02 381.667C1241.64 381.991 1242.41 381.991 1243.03 381.667H1243.03L1246.1 380.07L1246.21 380.228Z" stroke="#B6A06E" stroke-opacity="0.21"/>
<path d="M1241.33 394.602H1242.72V398.213C1242.72 398.712 1243.02 399.174 1243.5 399.423L1246.97 401.228L1246.63 401.77L1246.28 402.311L1242.8 400.506C1242.32 400.256 1241.73 400.256 1241.25 400.506L1237.77 402.311L1237.42 401.77L1237.08 401.228L1240.55 399.423C1241.03 399.174 1241.33 398.712 1241.33 398.213V394.602H1241.33Z" fill="#B6A06E" fill-opacity="0.55"/>
<path d="M1246.21 401.501V401.5L1246.26 401.42L1243.27 399.867H1243.27C1242.64 399.541 1242.22 398.917 1242.22 398.213V395.102H1241.83V398.213C1241.83 398.872 1241.46 399.463 1240.9 399.803L1240.78 399.867L1237.79 401.42L1237.84 401.5L1237.95 401.658L1241.02 400.062C1241.64 399.738 1242.41 399.738 1243.03 400.062H1243.03L1246.1 401.658L1246.21 401.501Z" stroke="#B6A06E" stroke-opacity="0.21"/>
<path d="M1263.49 387.127H1264.87V383.515C1264.87 383.017 1265.17 382.555 1265.65 382.305L1269.13 380.5L1268.78 379.958L1268.43 379.418L1264.96 381.223C1264.47 381.472 1263.88 381.472 1263.4 381.223L1259.93 379.418L1259.58 379.958L1259.23 380.5L1262.71 382.305C1263.19 382.555 1263.48 383.017 1263.48 383.515V387.127H1263.49Z" fill="#B6A06E" fill-opacity="0.55"/>
<path d="M1268.36 380.228V380.229L1268.41 380.309L1265.42 381.861H1265.42C1264.79 382.187 1264.37 382.811 1264.37 383.516V386.627H1263.98V383.516C1263.98 382.856 1263.62 382.266 1263.05 381.926L1262.94 381.861L1259.95 380.309L1260 380.229L1260.1 380.07L1263.17 381.667C1263.8 381.991 1264.56 381.991 1265.18 381.667H1265.19L1268.26 380.07L1268.36 380.228Z" stroke="#B6A06E" stroke-opacity="0.21"/>
<path d="M1263.49 394.602H1264.87V398.213C1264.87 398.712 1265.17 399.174 1265.65 399.423L1269.13 401.228L1268.78 401.77L1268.43 402.311L1264.96 400.506C1264.47 400.256 1263.88 400.256 1263.4 400.506L1259.93 402.311L1259.58 401.77L1259.23 401.228L1262.71 399.423C1263.19 399.174 1263.48 398.712 1263.48 398.213V394.602H1263.49Z" fill="#B6A06E" fill-opacity="0.55"/>
<path d="M1268.36 401.501V401.5L1268.41 401.42L1265.42 399.867H1265.42C1264.79 399.541 1264.37 398.917 1264.37 398.213V395.102H1263.98V398.213C1263.98 398.872 1263.62 399.463 1263.05 399.803L1262.94 399.867L1259.95 401.42L1260 401.5L1260.1 401.658L1263.17 400.062C1263.8 399.738 1264.56 399.738 1265.18 400.062H1265.19L1268.26 401.658L1268.36 401.501Z" stroke="#B6A06E" stroke-opacity="0.21"/>
<path d="M1241.33 197.42H1242.72V193.808C1242.72 193.31 1243.02 192.848 1243.5 192.598L1246.97 190.793L1246.63 190.251L1246.28 189.711L1242.8 191.516C1242.32 191.765 1241.73 191.765 1241.25 191.516L1237.77 189.711L1237.42 190.251L1237.08 190.793L1240.55 192.598C1241.03 192.848 1241.33 193.31 1241.33 193.808V197.42H1241.33Z" fill="#B6A06E" fill-opacity="0.55"/>
<path d="M1246.21 190.521V190.521L1246.26 190.602L1243.27 192.154H1243.27C1242.64 192.48 1242.22 193.104 1242.22 193.809V196.92H1241.83V193.809C1241.83 193.149 1241.46 192.559 1240.9 192.219L1240.78 192.154L1237.79 190.602L1237.84 190.521L1237.95 190.363L1241.02 191.96C1241.64 192.284 1242.41 192.284 1243.03 191.96H1243.03L1246.1 190.363L1246.21 190.521Z" stroke="#B6A06E" stroke-opacity="0.21"/>
<path d="M1241.33 204.895H1242.72V208.506C1242.72 209.005 1243.02 209.467 1243.5 209.716L1246.97 211.521L1246.63 212.063L1246.28 212.604L1242.8 210.799C1242.32 210.549 1241.73 210.549 1241.25 210.799L1237.77 212.604L1237.42 212.063L1237.08 211.521L1240.55 209.716C1241.03 209.467 1241.33 209.005 1241.33 208.506V204.895H1241.33Z" fill="#B6A06E" fill-opacity="0.55"/>
<path d="M1246.21 211.794V211.793L1246.26 211.713L1243.27 210.16H1243.27C1242.64 209.834 1242.22 209.21 1242.22 208.506V205.395H1241.83V208.506C1241.83 209.165 1241.46 209.756 1240.9 210.096L1240.78 210.16L1237.79 211.713L1237.84 211.793L1237.95 211.951L1241.02 210.354C1241.64 210.031 1242.41 210.031 1243.03 210.354H1243.03L1246.1 211.951L1246.21 211.794Z" stroke="#B6A06E" stroke-opacity="0.21"/>
<path d="M1263.49 197.42H1264.87V193.808C1264.87 193.31 1265.17 192.848 1265.65 192.598L1269.13 190.793L1268.78 190.251L1268.43 189.711L1264.96 191.516C1264.47 191.765 1263.88 191.765 1263.4 191.516L1259.93 189.711L1259.58 190.251L1259.23 190.793L1262.71 192.598C1263.19 192.848 1263.48 193.31 1263.48 193.808V197.42H1263.49Z" fill="#B6A06E" fill-opacity="0.55"/>
<path d="M1268.36 190.521V190.521L1268.41 190.602L1265.42 192.154H1265.42C1264.79 192.48 1264.37 193.104 1264.37 193.809V196.92H1263.98V193.809C1263.98 193.149 1263.62 192.559 1263.05 192.219L1262.94 192.154L1259.95 190.602L1260 190.521L1260.1 190.363L1263.17 191.96C1263.8 192.284 1264.56 192.284 1265.18 191.96H1265.19L1268.26 190.363L1268.36 190.521Z" stroke="#B6A06E" stroke-opacity="0.21"/>
<path d="M1263.49 204.895H1264.87V208.506C1264.87 209.005 1265.17 209.467 1265.65 209.716L1269.13 211.521L1268.78 212.063L1268.43 212.604L1264.96 210.799C1264.47 210.549 1263.88 210.549 1263.4 210.799L1259.93 212.604L1259.58 212.063L1259.23 211.521L1262.71 209.716C1263.19 209.467 1263.48 209.005 1263.48 208.506V204.895H1263.49Z" fill="#B6A06E" fill-opacity="0.55"/>
<path d="M1268.36 211.794V211.793L1268.41 211.713L1265.42 210.16H1265.42C1264.79 209.834 1264.37 209.21 1264.37 208.506V205.395H1263.98V208.506C1263.98 209.165 1263.62 209.756 1263.05 210.096L1262.94 210.16L1259.95 211.713L1260 211.793L1260.1 211.951L1263.17 210.354C1263.8 210.031 1264.56 210.031 1265.18 210.354H1265.19L1268.26 211.951L1268.36 211.794Z" stroke="#B6A06E" stroke-opacity="0.21"/>
<path d="M1241.33 7.7086H1242.72V4.09719C1242.72 3.59868 1243.02 3.13657 1243.5 2.88731L1246.97 1.08252L1246.63 0.540349L1246.28 0L1242.8 1.8048C1242.32 2.05405 1241.73 2.05405 1241.25 1.8048L1237.77 0L1237.42 0.540349L1237.08 1.08252L1240.55 2.88731C1241.03 3.13657 1241.33 3.59868 1241.33 4.09719V7.7086H1241.33Z" fill="#B6A06E" fill-opacity="0.55"/>
<path d="M1246.21 0.80957V0.810547L1246.26 0.890625L1243.27 2.44336H1243.27C1242.64 2.76938 1242.22 3.39331 1242.22 4.09766V7.20898H1241.83V4.09766C1241.83 3.43821 1241.46 2.84799 1240.9 2.50781L1240.78 2.44336L1237.79 0.890625L1237.84 0.810547L1237.95 0.652344L1241.02 2.24902C1241.64 2.57284 1242.41 2.5727 1243.03 2.24902H1243.03L1246.1 0.652344L1246.21 0.80957Z" stroke="#B6A06E" stroke-opacity="0.21"/>
<path d="M1241.33 15.184H1242.72V18.7954C1242.72 19.2939 1243.02 19.756 1243.5 20.0053L1246.97 21.8101L1246.63 22.3522L1246.28 22.8926L1242.8 21.0878C1242.32 20.8385 1241.73 20.8385 1241.25 21.0878L1237.77 22.8926L1237.42 22.3522L1237.08 21.8101L1240.55 20.0053C1241.03 19.756 1241.33 19.2939 1241.33 18.7954V15.184H1241.33Z" fill="#B6A06E" fill-opacity="0.55"/>
<path d="M1246.21 22.083V22.082L1246.26 22.002L1243.27 20.4492H1243.27C1242.64 20.1232 1242.22 19.4993 1242.22 18.7949V15.6836H1241.83V18.7949C1241.83 19.4544 1241.46 20.0446 1240.9 20.3848L1240.78 20.4492L1237.79 22.002L1237.84 22.082L1237.95 22.2402L1241.02 20.6436C1241.64 20.3197 1242.41 20.3199 1243.03 20.6436H1243.03L1246.1 22.2402L1246.21 22.083Z" stroke="#B6A06E" stroke-opacity="0.21"/>
<path d="M1263.49 7.7086H1264.87V4.09719C1264.87 3.59868 1265.17 3.13657 1265.65 2.88731L1269.13 1.08252L1268.78 0.540349L1268.43 0L1264.96 1.8048C1264.47 2.05405 1263.88 2.05405 1263.4 1.8048L1259.93 0L1259.58 0.540349L1259.23 1.08252L1262.71 2.88731C1263.19 3.13657 1263.48 3.59868 1263.48 4.09719V7.7086H1263.49Z" fill="#B6A06E" fill-opacity="0.55"/>
<path d="M1268.36 0.80957V0.810547L1268.41 0.890625L1265.42 2.44336H1265.42C1264.79 2.76938 1264.37 3.39331 1264.37 4.09766V7.20898H1263.98V4.09766C1263.98 3.43821 1263.62 2.84799 1263.05 2.50781L1262.94 2.44336L1259.95 0.890625L1260 0.810547L1260.1 0.652344L1263.17 2.24902C1263.8 2.57284 1264.56 2.5727 1265.18 2.24902H1265.19L1268.26 0.652344L1268.36 0.80957Z" stroke="#B6A06E" stroke-opacity="0.21"/>
<path d="M1263.49 15.184H1264.87V18.7954C1264.87 19.2939 1265.17 19.756 1265.65 20.0053L1269.13 21.8101L1268.78 22.3522L1268.43 22.8926L1264.96 21.0878C1264.47 20.8385 1263.88 20.8385 1263.4 21.0878L1259.93 22.8926L1259.58 22.3522L1259.23 21.8101L1262.71 20.0053C1263.19 19.756 1263.48 19.2939 1263.48 18.7954V15.184H1263.49Z" fill="#B6A06E" fill-opacity="0.55"/>
<path d="M1268.36 22.083V22.082L1268.41 22.002L1265.42 20.4492H1265.42C1264.79 20.1232 1264.37 19.4993 1264.37 18.7949V15.6836H1263.98V18.7949C1263.98 19.4544 1263.62 20.0446 1263.05 20.3848L1262.94 20.4492L1259.95 22.002L1260 22.082L1260.1 22.2402L1263.17 20.6436C1263.8 20.3197 1264.56 20.3199 1265.18 20.6436H1265.19L1268.26 22.2402L1268.36 22.083Z" stroke="#B6A06E" stroke-opacity="0.21"/>
<path d="M1241.33 576.834H1242.72V573.222C1242.72 572.724 1243.02 572.262 1243.5 572.012L1246.97 570.208L1246.63 569.665L1246.28 569.125L1242.8 570.93C1242.32 571.179 1241.73 571.179 1241.25 570.93L1237.77 569.125L1237.42 569.665L1237.08 570.208L1240.55 572.012C1241.03 572.262 1241.33 572.724 1241.33 573.222V576.834H1241.33Z" fill="#B6A06E" fill-opacity="0.55"/>
<path d="M1246.21 569.935V569.936L1246.26 570.016L1243.27 571.568H1243.27C1242.64 571.894 1242.22 572.518 1242.22 573.223V576.334H1241.83V573.223C1241.83 572.563 1241.46 571.973 1240.9 571.633L1240.78 571.568L1237.79 570.016L1237.84 569.936L1237.95 569.777L1241.02 571.374C1241.64 571.698 1242.41 571.698 1243.03 571.374H1243.03L1246.1 569.777L1246.21 569.935Z" stroke="#B6A06E" stroke-opacity="0.21"/>
<path d="M1241.33 584.309H1242.72V587.92C1242.72 588.419 1243.02 588.881 1243.5 589.13L1246.97 590.935L1246.63 591.477L1246.28 592.018L1242.8 590.213C1242.32 589.964 1241.73 589.964 1241.25 590.213L1237.77 592.018L1237.42 591.477L1237.08 590.935L1240.55 589.13C1241.03 588.881 1241.33 588.419 1241.33 587.92V584.309H1241.33Z" fill="#B6A06E" fill-opacity="0.55"/>
<path d="M1246.21 591.208V591.207L1246.26 591.127L1243.27 589.574H1243.27C1242.64 589.248 1242.22 588.624 1242.22 587.92V584.809H1241.83V587.92C1241.83 588.579 1241.46 589.17 1240.9 589.51L1240.78 589.574L1237.79 591.127L1237.84 591.207L1237.95 591.365L1241.02 589.769C1241.64 589.445 1242.41 589.445 1243.03 589.769H1243.03L1246.1 591.365L1246.21 591.208Z" stroke="#B6A06E" stroke-opacity="0.21"/>
<path d="M1263.49 576.834H1264.87V573.222C1264.87 572.724 1265.17 572.262 1265.65 572.012L1269.13 570.208L1268.78 569.665L1268.43 569.125L1264.96 570.93C1264.47 571.179 1263.88 571.179 1263.4 570.93L1259.93 569.125L1259.58 569.665L1259.23 570.208L1262.71 572.012C1263.19 572.262 1263.48 572.724 1263.48 573.222V576.834H1263.49Z" fill="#B6A06E" fill-opacity="0.55"/>
<path d="M1268.36 569.935V569.936L1268.41 570.016L1265.42 571.568H1265.42C1264.79 571.894 1264.37 572.518 1264.37 573.223V576.334H1263.98V573.223C1263.98 572.563 1263.62 571.973 1263.05 571.633L1262.94 571.568L1259.95 570.016L1260 569.936L1260.1 569.777L1263.17 571.374C1263.8 571.698 1264.56 571.698 1265.18 571.374H1265.19L1268.26 569.777L1268.36 569.935Z" stroke="#B6A06E" stroke-opacity="0.21"/>
<path d="M1263.49 584.309H1264.87V587.92C1264.87 588.419 1265.17 588.881 1265.65 589.13L1269.13 590.935L1268.78 591.477L1268.43 592.018L1264.96 590.213C1264.47 589.964 1263.88 589.964 1263.4 590.213L1259.93 592.018L1259.58 591.477L1259.23 590.935L1262.71 589.13C1263.19 588.881 1263.48 588.419 1263.48 587.92V584.309H1263.49Z" fill="#B6A06E" fill-opacity="0.55"/>
<path d="M1268.36 591.208V591.207L1268.41 591.127L1265.42 589.574H1265.42C1264.79 589.248 1264.37 588.624 1264.37 587.92V584.809H1263.98V587.92C1263.98 588.579 1263.62 589.17 1263.05 589.51L1262.94 589.574L1259.95 591.127L1260 591.207L1260.1 591.365L1263.17 589.769C1263.8 589.445 1264.56 589.445 1265.18 589.769H1265.19L1268.26 591.365L1268.36 591.208Z" stroke="#B6A06E" stroke-opacity="0.21"/>
<path d="M1241.33 766.548H1242.72V762.937C1242.72 762.439 1243.02 761.976 1243.5 761.727L1246.97 759.922L1246.63 759.38L1246.28 758.84L1242.8 760.645C1242.32 760.894 1241.73 760.894 1241.25 760.645L1237.77 758.84L1237.42 759.38L1237.08 759.922L1240.55 761.727C1241.03 761.976 1241.33 762.439 1241.33 762.937V766.548H1241.33Z" fill="#B6A06E" fill-opacity="0.55"/>
<path d="M1246.21 759.649V759.65L1246.26 759.73L1243.27 761.283H1243.27C1242.64 761.609 1242.22 762.233 1242.22 762.938V766.049H1241.83V762.938C1241.83 762.278 1241.46 761.688 1240.9 761.348L1240.78 761.283L1237.79 759.73L1237.84 759.65L1237.95 759.492L1241.02 761.089C1241.64 761.413 1242.41 761.413 1243.03 761.089H1243.03L1246.1 759.492L1246.21 759.649Z" stroke="#B6A06E" stroke-opacity="0.21"/>
<path d="M1241.33 774.024H1242.72V777.635C1242.72 778.134 1243.02 778.596 1243.5 778.845L1246.97 780.65L1246.63 781.192L1246.28 781.732L1242.8 779.928C1242.32 779.678 1241.73 779.678 1241.25 779.928L1237.77 781.732L1237.42 781.192L1237.08 780.65L1240.55 778.845C1241.03 778.596 1241.33 778.134 1241.33 777.635V774.024H1241.33Z" fill="#B6A06E" fill-opacity="0.55"/>
<path d="M1246.21 780.923V780.922L1246.26 780.842L1243.27 779.289H1243.27C1242.64 778.963 1242.22 778.339 1242.22 777.635V774.523H1241.83V777.635C1241.83 778.294 1241.46 778.884 1240.9 779.225L1240.78 779.289L1237.79 780.842L1237.84 780.922L1237.95 781.08L1241.02 779.483C1241.64 779.16 1242.41 779.16 1243.03 779.483H1243.03L1246.1 781.08L1246.21 780.923Z" stroke="#B6A06E" stroke-opacity="0.21"/>
<path d="M1263.49 766.548H1264.87V762.937C1264.87 762.439 1265.17 761.976 1265.65 761.727L1269.13 759.922L1268.78 759.38L1268.43 758.84L1264.96 760.645C1264.47 760.894 1263.88 760.894 1263.4 760.645L1259.93 758.84L1259.58 759.38L1259.23 759.922L1262.71 761.727C1263.19 761.976 1263.48 762.439 1263.48 762.937V766.548H1263.49Z" fill="#B6A06E" fill-opacity="0.55"/>
<path d="M1268.36 759.649V759.65L1268.41 759.73L1265.42 761.283H1265.42C1264.79 761.609 1264.37 762.233 1264.37 762.938V766.049H1263.98V762.938C1263.98 762.278 1263.62 761.688 1263.05 761.348L1262.94 761.283L1259.95 759.73L1260 759.65L1260.1 759.492L1263.17 761.089C1263.8 761.413 1264.56 761.413 1265.18 761.089H1265.19L1268.26 759.492L1268.36 759.649Z" stroke="#B6A06E" stroke-opacity="0.21"/>
<path d="M1263.49 774.024H1264.87V777.635C1264.87 778.134 1265.17 778.596 1265.65 778.845L1269.13 780.65L1268.78 781.192L1268.43 781.732L1264.96 779.928C1264.47 779.678 1263.88 779.678 1263.4 779.928L1259.93 781.732L1259.58 781.192L1259.23 780.65L1262.71 778.845C1263.19 778.596 1263.48 778.134 1263.48 777.635V774.024H1263.49Z" fill="#B6A06E" fill-opacity="0.55"/>
<path d="M1268.36 780.923V780.922L1268.41 780.842L1265.42 779.289H1265.42C1264.79 778.963 1264.37 778.339 1264.37 777.635V774.523H1263.98V777.635C1263.98 778.294 1263.62 778.884 1263.05 779.225L1262.94 779.289L1259.95 780.842L1260 780.922L1260.1 781.08L1263.17 779.483C1263.8 779.16 1264.56 779.16 1265.18 779.483H1265.19L1268.26 781.08L1268.36 780.923Z" stroke="#B6A06E" stroke-opacity="0.21"/>
<path d="M608.667 387.127H610.055V383.515C610.055 383.017 610.352 382.555 610.832 382.305L614.308 380.5L613.96 379.958L613.612 379.418L610.136 381.223C609.654 381.472 609.064 381.472 608.583 381.223L605.106 379.418L604.758 379.958L604.41 380.5L607.887 382.305C608.368 382.555 608.663 383.017 608.663 383.515V387.127H608.667Z" fill="#B6A06E" fill-opacity="0.55"/>
<path d="M613.539 380.228V380.229L613.591 380.309L610.602 381.861H610.601C609.974 382.187 609.555 382.811 609.555 383.516V386.627H609.163V383.516C609.163 382.856 608.798 382.266 608.232 381.926L608.117 381.861L605.127 380.309L605.179 380.229L605.279 380.07L608.353 381.667C608.978 381.991 609.74 381.991 610.365 381.667H610.366L613.438 380.07L613.539 380.228Z" stroke="#B6A06E" stroke-opacity="0.21"/>
<path d="M608.667 394.602H610.055V398.213C610.055 398.712 610.352 399.174 610.832 399.423L614.308 401.228L613.96 401.77L613.612 402.311L610.136 400.506C609.654 400.256 609.064 400.256 608.583 400.506L605.106 402.311L604.758 401.77L604.41 401.228L607.887 399.423C608.368 399.174 608.663 398.712 608.663 398.213V394.602H608.667Z" fill="#B6A06E" fill-opacity="0.55"/>
<path d="M613.539 401.501V401.5L613.591 401.42L610.602 399.867H610.601C609.974 399.541 609.555 398.917 609.555 398.213V395.102H609.163V398.213C609.163 398.872 608.798 399.463 608.232 399.803L608.117 399.867L605.127 401.42L605.179 401.5L605.279 401.658L608.353 400.062C608.978 399.738 609.74 399.738 610.365 400.062H610.366L613.438 401.658L613.539 401.501Z" stroke="#B6A06E" stroke-opacity="0.21"/>
<path d="M630.821 387.127H632.208V383.515C632.208 383.017 632.506 382.555 632.985 382.305L636.461 380.5L636.114 379.958L635.766 379.418L632.289 381.223C631.808 381.472 631.217 381.472 630.736 381.223L627.259 379.418L626.911 379.958L626.563 380.5L630.04 382.305C630.521 382.555 630.817 383.017 630.817 383.515V387.127H630.821Z" fill="#B6A06E" fill-opacity="0.55"/>
<path d="M635.692 380.228V380.229L635.744 380.309L632.755 381.861H632.754C632.127 382.187 631.708 382.811 631.708 383.516V386.627H631.316V383.516C631.316 382.856 630.951 382.266 630.386 381.926L630.271 381.861L627.28 380.309L627.332 380.229L627.433 380.07L630.506 381.667C631.131 381.991 631.893 381.991 632.519 381.667H632.52L635.592 380.07L635.692 380.228Z" stroke="#B6A06E" stroke-opacity="0.21"/>
<path d="M630.821 394.602H632.208V398.213C632.208 398.712 632.506 399.174 632.985 399.423L636.461 401.228L636.114 401.77L635.766 402.311L632.289 400.506C631.808 400.256 631.217 400.256 630.736 400.506L627.259 402.311L626.911 401.77L626.563 401.228L630.04 399.423C630.521 399.174 630.817 398.712 630.817 398.213V394.602H630.821Z" fill="#B6A06E" fill-opacity="0.55"/>
<path d="M635.692 401.501V401.5L635.744 401.42L632.755 399.867H632.754C632.127 399.541 631.708 398.917 631.708 398.213V395.102H631.316V398.213C631.316 398.872 630.951 399.463 630.386 399.803L630.271 399.867L627.28 401.42L627.332 401.5L627.433 401.658L630.506 400.062C631.131 399.738 631.893 399.738 632.519 400.062H632.52L635.592 401.658L635.692 401.501Z" stroke="#B6A06E" stroke-opacity="0.21"/>
<path d="M608.667 197.42H610.055V193.808C610.055 193.31 610.352 192.848 610.832 192.598L614.308 190.793L613.96 190.251L613.612 189.711L610.136 191.516C609.654 191.765 609.064 191.765 608.583 191.516L605.106 189.711L604.758 190.251L604.41 190.793L607.887 192.598C608.368 192.848 608.663 193.31 608.663 193.808V197.42H608.667Z" fill="#B6A06E" fill-opacity="0.55"/>
<path d="M613.539 190.521V190.521L613.591 190.602L610.602 192.154H610.601C609.974 192.48 609.555 193.104 609.555 193.809V196.92H609.163V193.809C609.163 193.149 608.798 192.559 608.232 192.219L608.117 192.154L605.127 190.602L605.179 190.521L605.279 190.363L608.353 191.96C608.978 192.284 609.74 192.284 610.365 191.96H610.366L613.438 190.363L613.539 190.521Z" stroke="#B6A06E" stroke-opacity="0.21"/>
<path d="M608.667 204.895H610.055V208.506C610.055 209.005 610.352 209.467 610.832 209.716L614.308 211.521L613.96 212.063L613.612 212.604L610.136 210.799C609.654 210.549 609.064 210.549 608.583 210.799L605.106 212.604L604.758 212.063L604.41 211.521L607.887 209.716C608.368 209.467 608.663 209.005 608.663 208.506V204.895H608.667Z" fill="#B6A06E" fill-opacity="0.55"/>
<path d="M613.539 211.794V211.793L613.591 211.713L610.602 210.16H610.601C609.974 209.834 609.555 209.21 609.555 208.506V205.395H609.163V208.506C609.163 209.165 608.798 209.756 608.232 210.096L608.117 210.16L605.127 211.713L605.179 211.793L605.279 211.951L608.353 210.354C608.978 210.031 609.74 210.031 610.365 210.354H610.366L613.438 211.951L613.539 211.794Z" stroke="#B6A06E" stroke-opacity="0.21"/>
<path d="M630.821 197.42H632.208V193.808C632.208 193.31 632.506 192.848 632.985 192.598L636.461 190.793L636.114 190.251L635.766 189.711L632.289 191.516C631.808 191.765 631.217 191.765 630.736 191.516L627.259 189.711L626.911 190.251L626.563 190.793L630.04 192.598C630.521 192.848 630.817 193.31 630.817 193.808V197.42H630.821Z" fill="#B6A06E" fill-opacity="0.55"/>
<path d="M635.692 190.521V190.521L635.744 190.602L632.755 192.154H632.754C632.127 192.48 631.708 193.104 631.708 193.809V196.92H631.316V193.809C631.316 193.149 630.951 192.559 630.386 192.219L630.271 192.154L627.28 190.602L627.332 190.521L627.433 190.363L630.506 191.96C631.131 192.284 631.893 192.284 632.519 191.96H632.52L635.592 190.363L635.692 190.521Z" stroke="#B6A06E" stroke-opacity="0.21"/>
<path d="M630.821 204.895H632.208V208.506C632.208 209.005 632.506 209.467 632.985 209.716L636.461 211.521L636.114 212.063L635.766 212.604L632.289 210.799C631.808 210.549 631.217 210.549 630.736 210.799L627.259 212.604L626.911 212.063L626.563 211.521L630.04 209.716C630.521 209.467 630.817 209.005 630.817 208.506V204.895H630.821Z" fill="#B6A06E" fill-opacity="0.55"/>
<path d="M635.692 211.794V211.793L635.744 211.713L632.755 210.16H632.754C632.127 209.834 631.708 209.21 631.708 208.506V205.395H631.316V208.506C631.316 209.165 630.951 209.756 630.386 210.096L630.271 210.16L627.28 211.713L627.332 211.793L627.433 211.951L630.506 210.354C631.131 210.031 631.893 210.031 632.519 210.354H632.52L635.592 211.951L635.692 211.794Z" stroke="#B6A06E" stroke-opacity="0.21"/>
<path d="M608.667 7.7086H610.055V4.09719C610.055 3.59868 610.352 3.13657 610.832 2.88731L614.308 1.08252L613.96 0.540349L613.612 0L610.136 1.8048C609.654 2.05405 609.064 2.05405 608.583 1.8048L605.106 0L604.758 0.540349L604.41 1.08252L607.887 2.88731C608.368 3.13657 608.663 3.59868 608.663 4.09719V7.7086H608.667Z" fill="#B6A06E" fill-opacity="0.55"/>
<path d="M613.539 0.80957V0.810547L613.591 0.890625L610.602 2.44336H610.601C609.974 2.76938 609.555 3.39331 609.555 4.09766V7.20898H609.163V4.09766C609.163 3.43821 608.798 2.84799 608.232 2.50781L608.117 2.44336L605.127 0.890625L605.179 0.810547L605.279 0.652344L608.353 2.24902C608.978 2.57284 609.74 2.5727 610.365 2.24902H610.366L613.438 0.652344L613.539 0.80957Z" stroke="#B6A06E" stroke-opacity="0.21"/>
<path d="M608.667 15.184H610.055V18.7954C610.055 19.2939 610.352 19.756 610.832 20.0053L614.308 21.8101L613.96 22.3522L613.612 22.8926L610.136 21.0878C609.654 20.8385 609.064 20.8385 608.583 21.0878L605.106 22.8926L604.758 22.3522L604.41 21.8101L607.887 20.0053C608.368 19.756 608.663 19.2939 608.663 18.7954V15.184H608.667Z" fill="#B6A06E" fill-opacity="0.55"/>
<path d="M613.539 22.083V22.082L613.591 22.002L610.602 20.4492H610.601C609.974 20.1232 609.555 19.4993 609.555 18.7949V15.6836H609.163V18.7949C609.163 19.4544 608.798 20.0446 608.232 20.3848L608.117 20.4492L605.127 22.002L605.179 22.082L605.279 22.2402L608.353 20.6436C608.978 20.3197 609.74 20.3199 610.365 20.6436H610.366L613.438 22.2402L613.539 22.083Z" stroke="#B6A06E" stroke-opacity="0.21"/>
<path d="M630.821 7.7086H632.208V4.09719C632.208 3.59868 632.506 3.13657 632.985 2.88731L636.461 1.08252L636.114 0.540349L635.766 0L632.289 1.8048C631.808 2.05405 631.217 2.05405 630.736 1.8048L627.259 0L626.911 0.540349L626.563 1.08252L630.04 2.88731C630.521 3.13657 630.817 3.59868 630.817 4.09719V7.7086H630.821Z" fill="#B6A06E" fill-opacity="0.55"/>
<path d="M635.692 0.80957V0.810547L635.744 0.890625L632.755 2.44336H632.754C632.127 2.76938 631.708 3.39331 631.708 4.09766V7.20898H631.316V4.09766C631.316 3.43821 630.951 2.84799 630.386 2.50781L630.271 2.44336L627.28 0.890625L627.332 0.810547L627.433 0.652344L630.506 2.24902C631.131 2.57284 631.893 2.5727 632.519 2.24902H632.52L635.592 0.652344L635.692 0.80957Z" stroke="#B6A06E" stroke-opacity="0.21"/>
<path d="M630.821 15.184H632.208V18.7954C632.208 19.2939 632.506 19.756 632.985 20.0053L636.461 21.8101L636.114 22.3522L635.766 22.8926L632.289 21.0878C631.808 20.8385 631.217 20.8385 630.736 21.0878L627.259 22.8926L626.911 22.3522L626.563 21.8101L630.04 20.0053C630.521 19.756 630.817 19.2939 630.817 18.7954V15.184H630.821Z" fill="#B6A06E" fill-opacity="0.55"/>
<path d="M635.692 22.083V22.082L635.744 22.002L632.755 20.4492H632.754C632.127 20.1232 631.708 19.4993 631.708 18.7949V15.6836H631.316V18.7949C631.316 19.4544 630.951 20.0446 630.386 20.3848L630.271 20.4492L627.28 22.002L627.332 22.082L627.433 22.2402L630.506 20.6436C631.131 20.3197 631.893 20.3199 632.519 20.6436H632.52L635.592 22.2402L635.692 22.083Z" stroke="#B6A06E" stroke-opacity="0.21"/>
<path d="M608.667 576.834H610.055V573.222C610.055 572.724 610.352 572.262 610.832 572.012L614.308 570.208L613.96 569.665L613.612 569.125L610.136 570.93C609.654 571.179 609.064 571.179 608.583 570.93L605.106 569.125L604.758 569.665L604.41 570.208L607.887 572.012C608.368 572.262 608.663 572.724 608.663 573.222V576.834H608.667Z" fill="#B6A06E" fill-opacity="0.55"/>
<path d="M613.539 569.935V569.936L613.591 570.016L610.602 571.568H610.601C609.974 571.894 609.555 572.518 609.555 573.223V576.334H609.163V573.223C609.163 572.563 608.798 571.973 608.232 571.633L608.117 571.568L605.127 570.016L605.179 569.936L605.279 569.777L608.353 571.374C608.978 571.698 609.74 571.698 610.365 571.374H610.366L613.438 569.777L613.539 569.935Z" stroke="#B6A06E" stroke-opacity="0.21"/>
<path d="M608.667 584.309H610.055V587.92C610.055 588.419 610.352 588.881 610.832 589.13L614.308 590.935L613.96 591.477L613.612 592.018L610.136 590.213C609.654 589.964 609.064 589.964 608.583 590.213L605.106 592.018L604.758 591.477L604.41 590.935L607.887 589.13C608.368 588.881 608.663 588.419 608.663 587.92V584.309H608.667Z" fill="#B6A06E" fill-opacity="0.55"/>
<path d="M613.539 591.208V591.207L613.591 591.127L610.602 589.574H610.601C609.974 589.248 609.555 588.624 609.555 587.92V584.809H609.163V587.92C609.163 588.579 608.798 589.17 608.232 589.51L608.117 589.574L605.127 591.127L605.179 591.207L605.279 591.365L608.353 589.769C608.978 589.445 609.74 589.445 610.365 589.769H610.366L613.438 591.365L613.539 591.208Z" stroke="#B6A06E" stroke-opacity="0.21"/>
<path d="M630.821 576.834H632.208V573.222C632.208 572.724 632.506 572.262 632.985 572.012L636.461 570.208L636.114 569.665L635.766 569.125L632.289 570.93C631.808 571.179 631.217 571.179 630.736 570.93L627.259 569.125L626.911 569.665L626.563 570.208L630.04 572.012C630.521 572.262 630.817 572.724 630.817 573.222V576.834H630.821Z" fill="#B6A06E" fill-opacity="0.55"/>
<path d="M635.692 569.935V569.936L635.744 570.016L632.755 571.568H632.754C632.127 571.894 631.708 572.518 631.708 573.223V576.334H631.316V573.223C631.316 572.563 630.951 571.973 630.386 571.633L630.271 571.568L627.28 570.016L627.332 569.936L627.433 569.777L630.506 571.374C631.131 571.698 631.893 571.698 632.519 571.374H632.52L635.592 569.777L635.692 569.935Z" stroke="#B6A06E" stroke-opacity="0.21"/>
<path d="M630.821 584.309H632.208V587.92C632.208 588.419 632.506 588.881 632.985 589.13L636.461 590.935L636.114 591.477L635.766 592.018L632.289 590.213C631.808 589.964 631.217 589.964 630.736 590.213L627.259 592.018L626.911 591.477L626.563 590.935L630.04 589.13C630.521 588.881 630.817 588.419 630.817 587.92V584.309H630.821Z" fill="#B6A06E" fill-opacity="0.55"/>
<path d="M635.692 591.208V591.207L635.744 591.127L632.755 589.574H632.754C632.127 589.248 631.708 588.624 631.708 587.92V584.809H631.316V587.92C631.316 588.579 630.951 589.17 630.386 589.51L630.271 589.574L627.28 591.127L627.332 591.207L627.433 591.365L630.506 589.769C631.131 589.445 631.893 589.445 632.519 589.769H632.52L635.592 591.365L635.692 591.208Z" stroke="#B6A06E" stroke-opacity="0.21"/>
<path d="M608.667 766.548H610.055V762.937C610.055 762.439 610.352 761.976 610.832 761.727L614.308 759.922L613.96 759.38L613.612 758.84L610.136 760.645C609.654 760.894 609.064 760.894 608.583 760.645L605.106 758.84L604.758 759.38L604.41 759.922L607.887 761.727C608.368 761.976 608.663 762.439 608.663 762.937V766.548H608.667Z" fill="#B6A06E" fill-opacity="0.55"/>
<path d="M613.539 759.649V759.65L613.591 759.73L610.602 761.283H610.601C609.974 761.609 609.555 762.233 609.555 762.938V766.049H609.163V762.938C609.163 762.278 608.798 761.688 608.232 761.348L608.117 761.283L605.127 759.73L605.179 759.65L605.279 759.492L608.353 761.089C608.978 761.413 609.74 761.413 610.365 761.089H610.366L613.438 759.492L613.539 759.649Z" stroke="#B6A06E" stroke-opacity="0.21"/>
<path d="M608.667 774.024H610.055V777.635C610.055 778.134 610.352 778.596 610.832 778.845L614.308 780.65L613.96 781.192L613.612 781.732L610.136 779.928C609.654 779.678 609.064 779.678 608.583 779.928L605.106 781.732L604.758 781.192L604.41 780.65L607.887 778.845C608.368 778.596 608.663 778.134 608.663 777.635V774.024H608.667Z" fill="#B6A06E" fill-opacity="0.55"/>
<path d="M613.539 780.923V780.922L613.591 780.842L610.602 779.289H610.601C609.974 778.963 609.555 778.339 609.555 777.635V774.523H609.163V777.635C609.163 778.294 608.798 778.884 608.232 779.225L608.117 779.289L605.127 780.842L605.179 780.922L605.279 781.08L608.353 779.483C608.978 779.16 609.74 779.16 610.365 779.483H610.366L613.438 781.08L613.539 780.923Z" stroke="#B6A06E" stroke-opacity="0.21"/>
<path d="M630.821 766.548H632.208V762.937C632.208 762.439 632.506 761.976 632.985 761.727L636.461 759.922L636.114 759.38L635.766 758.84L632.289 760.645C631.808 760.894 631.217 760.894 630.736 760.645L627.259 758.84L626.911 759.38L626.563 759.922L630.04 761.727C630.521 761.976 630.817 762.439 630.817 762.937V766.548H630.821Z" fill="#B6A06E" fill-opacity="0.55"/>
<path d="M635.692 759.649V759.65L635.744 759.73L632.755 761.283H632.754C632.127 761.609 631.708 762.233 631.708 762.938V766.049H631.316V762.938C631.316 762.278 630.951 761.688 630.386 761.348L630.271 761.283L627.28 759.73L627.332 759.65L627.433 759.492L630.506 761.089C631.131 761.413 631.893 761.413 632.519 761.089H632.52L635.592 759.492L635.692 759.649Z" stroke="#B6A06E" stroke-opacity="0.21"/>
<path d="M630.821 774.024H632.208V777.635C632.208 778.134 632.506 778.596 632.985 778.845L636.461 780.65L636.114 781.192L635.766 781.732L632.289 779.928C631.808 779.678 631.217 779.678 630.736 779.928L627.259 781.732L626.911 781.192L626.563 780.65L630.04 778.845C630.521 778.596 630.817 778.134 630.817 777.635V774.024H630.821Z" fill="#B6A06E" fill-opacity="0.55"/>
<path d="M635.692 780.923V780.922L635.744 780.842L632.755 779.289H632.754C632.127 778.963 631.708 778.339 631.708 777.635V774.523H631.316V777.635C631.316 778.294 630.951 778.884 630.386 779.225L630.271 779.289L627.28 780.842L627.332 780.922L627.433 781.08L630.506 779.483C631.131 779.16 631.893 779.16 632.519 779.483H632.52L635.592 781.08L635.692 780.923Z" stroke="#B6A06E" stroke-opacity="0.21"/>
<path d="M397.779 387.127H399.166V383.515C399.166 383.017 399.464 382.555 399.943 382.305L403.419 380.5L403.072 379.958L402.724 379.418L399.247 381.223C398.766 381.472 398.175 381.472 397.694 381.223L394.217 379.418L393.869 379.958L393.521 380.5L396.998 382.305C397.479 382.555 397.775 383.017 397.775 383.515V387.127H397.779Z" fill="#B6A06E" fill-opacity="0.55"/>
<path d="M402.65 380.228V380.229L402.702 380.309L399.713 381.861H399.712C399.085 382.187 398.666 382.811 398.666 383.516V386.627H398.274V383.516C398.274 382.856 397.909 382.266 397.344 381.926L397.229 381.861L394.238 380.309L394.29 380.229L394.391 380.07L397.464 381.667C398.089 381.991 398.851 381.991 399.477 381.667H399.478L402.55 380.07L402.65 380.228Z" stroke="#B6A06E" stroke-opacity="0.21"/>
<path d="M397.779 394.602H399.166V398.213C399.166 398.712 399.464 399.174 399.943 399.423L403.419 401.228L403.072 401.77L402.724 402.311L399.247 400.506C398.766 400.256 398.175 400.256 397.694 400.506L394.217 402.311L393.869 401.77L393.521 401.228L396.998 399.423C397.479 399.174 397.775 398.712 397.775 398.213V394.602H397.779Z" fill="#B6A06E" fill-opacity="0.55"/>
<path d="M402.65 401.501V401.5L402.702 401.42L399.713 399.867H399.712C399.085 399.541 398.666 398.917 398.666 398.213V395.102H398.274V398.213C398.274 398.872 397.909 399.463 397.344 399.803L397.229 399.867L394.238 401.42L394.29 401.5L394.391 401.658L397.464 400.062C398.089 399.738 398.851 399.738 399.477 400.062H399.478L402.55 401.658L402.65 401.501Z" stroke="#B6A06E" stroke-opacity="0.21"/>
<path d="M419.932 387.127H421.32V383.515C421.32 383.017 421.617 382.555 422.096 382.305L425.573 380.5L425.225 379.958L424.877 379.418L421.4 381.223C420.919 381.472 420.329 381.472 419.847 381.223L416.371 379.418L416.023 379.958L415.675 380.5L419.151 382.305C419.633 382.555 419.928 383.017 419.928 383.515V387.127H419.932Z" fill="#B6A06E" fill-opacity="0.55"/>
<path d="M424.804 380.228V380.229L424.855 380.309L421.866 381.861H421.865C421.238 382.187 420.819 382.811 420.819 383.516V386.627H420.428V383.516C420.428 382.856 420.062 382.266 419.497 381.926L419.382 381.861L416.392 380.309L416.443 380.229L416.544 380.07L419.617 381.667C420.243 381.991 421.004 381.991 421.63 381.667H421.631L424.703 380.07L424.804 380.228Z" stroke="#B6A06E" stroke-opacity="0.21"/>
<path d="M419.932 394.602H421.32V398.213C421.32 398.712 421.617 399.174 422.096 399.423L425.573 401.228L425.225 401.77L424.877 402.311L421.4 400.506C420.919 400.256 420.329 400.256 419.847 400.506L416.371 402.311L416.023 401.77L415.675 401.228L419.151 399.423C419.633 399.174 419.928 398.712 419.928 398.213V394.602H419.932Z" fill="#B6A06E" fill-opacity="0.55"/>
<path d="M424.804 401.501V401.5L424.855 401.42L421.866 399.867H421.865C421.238 399.541 420.819 398.917 420.819 398.213V395.102H420.428V398.213C420.428 398.872 420.062 399.463 419.497 399.803L419.382 399.867L416.392 401.42L416.443 401.5L416.544 401.658L419.617 400.062C420.243 399.738 421.004 399.738 421.63 400.062H421.631L424.703 401.658L424.804 401.501Z" stroke="#B6A06E" stroke-opacity="0.21"/>
<path d="M397.779 197.42H399.166V193.808C399.166 193.31 399.464 192.848 399.943 192.598L403.419 190.793L403.072 190.251L402.724 189.711L399.247 191.516C398.766 191.765 398.175 191.765 397.694 191.516L394.217 189.711L393.869 190.251L393.521 190.793L396.998 192.598C397.479 192.848 397.775 193.31 397.775 193.808V197.42H397.779Z" fill="#B6A06E" fill-opacity="0.55"/>
<path d="M402.65 190.521V190.521L402.702 190.602L399.713 192.154H399.712C399.085 192.48 398.666 193.104 398.666 193.809V196.92H398.274V193.809C398.274 193.149 397.909 192.559 397.344 192.219L397.229 192.154L394.238 190.602L394.29 190.521L394.391 190.363L397.464 191.96C398.089 192.284 398.851 192.284 399.477 191.96H399.478L402.55 190.363L402.65 190.521Z" stroke="#B6A06E" stroke-opacity="0.21"/>
<path d="M397.779 204.895H399.166V208.506C399.166 209.005 399.464 209.467 399.943 209.716L403.419 211.521L403.072 212.063L402.724 212.604L399.247 210.799C398.766 210.549 398.175 210.549 397.694 210.799L394.217 212.604L393.869 212.063L393.521 211.521L396.998 209.716C397.479 209.467 397.775 209.005 397.775 208.506V204.895H397.779Z" fill="#B6A06E" fill-opacity="0.55"/>
<path d="M402.65 211.794V211.793L402.702 211.713L399.713 210.16H399.712C399.085 209.834 398.666 209.21 398.666 208.506V205.395H398.274V208.506C398.274 209.165 397.909 209.756 397.344 210.096L397.229 210.16L394.238 211.713L394.29 211.793L394.391 211.951L397.464 210.354C398.089 210.031 398.851 210.031 399.477 210.354H399.478L402.55 211.951L402.65 211.794Z" stroke="#B6A06E" stroke-opacity="0.21"/>
<path d="M419.932 197.42H421.32V193.808C421.32 193.31 421.617 192.848 422.096 192.598L425.573 190.793L425.225 190.251L424.877 189.711L421.4 191.516C420.919 191.765 420.329 191.765 419.847 191.516L416.371 189.711L416.023 190.251L415.675 190.793L419.151 192.598C419.633 192.848 419.928 193.31 419.928 193.808V197.42H419.932Z" fill="#B6A06E" fill-opacity="0.55"/>
<path d="M424.804 190.521V190.521L424.855 190.602L421.866 192.154H421.865C421.238 192.48 420.819 193.104 420.819 193.809V196.92H420.428V193.809C420.428 193.149 420.062 192.559 419.497 192.219L419.382 192.154L416.392 190.602L416.443 190.521L416.544 190.363L419.617 191.96C420.243 192.284 421.004 192.284 421.63 191.96H421.631L424.703 190.363L424.804 190.521Z" stroke="#B6A06E" stroke-opacity="0.21"/>
<path d="M419.932 204.895H421.32V208.506C421.32 209.005 421.617 209.467 422.096 209.716L425.573 211.521L425.225 212.063L424.877 212.604L421.4 210.799C420.919 210.549 420.329 210.549 419.847 210.799L416.371 212.604L416.023 212.063L415.675 211.521L419.151 209.716C419.633 209.467 419.928 209.005 419.928 208.506V204.895H419.932Z" fill="#B6A06E" fill-opacity="0.55"/>
<path d="M424.804 211.794V211.793L424.855 211.713L421.866 210.16H421.865C421.238 209.834 420.819 209.21 420.819 208.506V205.395H420.428V208.506C420.428 209.165 420.062 209.756 419.497 210.096L419.382 210.16L416.392 211.713L416.443 211.793L416.544 211.951L419.617 210.354C420.243 210.031 421.004 210.031 421.63 210.354H421.631L424.703 211.951L424.804 211.794Z" stroke="#B6A06E" stroke-opacity="0.21"/>
<path d="M397.779 7.7086H399.166V4.09719C399.166 3.59868 399.464 3.13657 399.943 2.88731L403.419 1.08252L403.072 0.540349L402.724 0L399.247 1.8048C398.766 2.05405 398.175 2.05405 397.694 1.8048L394.217 0L393.869 0.540349L393.521 1.08252L396.998 2.88731C397.479 3.13657 397.775 3.59868 397.775 4.09719V7.7086H397.779Z" fill="#B6A06E" fill-opacity="0.55"/>
<path d="M402.65 0.80957V0.810547L402.702 0.890625L399.713 2.44336H399.712C399.085 2.76938 398.666 3.39331 398.666 4.09766V7.20898H398.274V4.09766C398.274 3.43821 397.909 2.84799 397.344 2.50781L397.229 2.44336L394.238 0.890625L394.29 0.810547L394.391 0.652344L397.464 2.24902C398.089 2.57284 398.851 2.5727 399.477 2.24902H399.478L402.55 0.652344L402.65 0.80957Z" stroke="#B6A06E" stroke-opacity="0.21"/>
<path d="M397.779 15.184H399.166V18.7954C399.166 19.2939 399.464 19.756 399.943 20.0053L403.419 21.8101L403.072 22.3522L402.724 22.8926L399.247 21.0878C398.766 20.8385 398.175 20.8385 397.694 21.0878L394.217 22.8926L393.869 22.3522L393.521 21.8101L396.998 20.0053C397.479 19.756 397.775 19.2939 397.775 18.7954V15.184H397.779Z" fill="#B6A06E" fill-opacity="0.55"/>
<path d="M402.65 22.083V22.082L402.702 22.002L399.713 20.4492H399.712C399.085 20.1232 398.666 19.4993 398.666 18.7949V15.6836H398.274V18.7949C398.274 19.4544 397.909 20.0446 397.344 20.3848L397.229 20.4492L394.238 22.002L394.29 22.082L394.391 22.2402L397.464 20.6436C398.089 20.3197 398.851 20.3199 399.477 20.6436H399.478L402.55 22.2402L402.65 22.083Z" stroke="#B6A06E" stroke-opacity="0.21"/>
<path d="M419.932 7.7086H421.32V4.09719C421.32 3.59868 421.617 3.13657 422.096 2.88731L425.573 1.08252L425.225 0.540349L424.877 0L421.4 1.8048C420.919 2.05405 420.329 2.05405 419.847 1.8048L416.371 0L416.023 0.540349L415.675 1.08252L419.151 2.88731C419.633 3.13657 419.928 3.59868 419.928 4.09719V7.7086H419.932Z" fill="#B6A06E" fill-opacity="0.55"/>
<path d="M424.804 0.80957V0.810547L424.855 0.890625L421.866 2.44336H421.865C421.238 2.76938 420.819 3.39331 420.819 4.09766V7.20898H420.428V4.09766C420.428 3.43821 420.062 2.84799 419.497 2.50781L419.382 2.44336L416.392 0.890625L416.443 0.810547L416.544 0.652344L419.617 2.24902C420.243 2.57284 421.004 2.5727 421.63 2.24902H421.631L424.703 0.652344L424.804 0.80957Z" stroke="#B6A06E" stroke-opacity="0.21"/>
<path d="M419.932 15.184H421.32V18.7954C421.32 19.2939 421.617 19.756 422.096 20.0053L425.573 21.8101L425.225 22.3522L424.877 22.8926L421.4 21.0878C420.919 20.8385 420.329 20.8385 419.847 21.0878L416.371 22.8926L416.023 22.3522L415.675 21.8101L419.151 20.0053C419.633 19.756 419.928 19.2939 419.928 18.7954V15.184H419.932Z" fill="#B6A06E" fill-opacity="0.55"/>
<path d="M424.804 22.083V22.082L424.855 22.002L421.866 20.4492H421.865C421.238 20.1232 420.819 19.4993 420.819 18.7949V15.6836H420.428V18.7949C420.428 19.4544 420.062 20.0446 419.497 20.3848L419.382 20.4492L416.392 22.002L416.443 22.082L416.544 22.2402L419.617 20.6436C420.243 20.3197 421.004 20.3199 421.63 20.6436H421.631L424.703 22.2402L424.804 22.083Z" stroke="#B6A06E" stroke-opacity="0.21"/>
<path d="M397.779 576.834H399.166V573.222C399.166 572.724 399.464 572.262 399.943 572.012L403.419 570.208L403.072 569.665L402.724 569.125L399.247 570.93C398.766 571.179 398.175 571.179 397.694 570.93L394.217 569.125L393.869 569.665L393.521 570.208L396.998 572.012C397.479 572.262 397.775 572.724 397.775 573.222V576.834H397.779Z" fill="#B6A06E" fill-opacity="0.55"/>
<path d="M402.65 569.935V569.936L402.702 570.016L399.713 571.568H399.712C399.085 571.894 398.666 572.518 398.666 573.223V576.334H398.274V573.223C398.274 572.563 397.909 571.973 397.344 571.633L397.229 571.568L394.238 570.016L394.29 569.936L394.391 569.777L397.464 571.374C398.089 571.698 398.851 571.698 399.477 571.374H399.478L402.55 569.777L402.65 569.935Z" stroke="#B6A06E" stroke-opacity="0.21"/>
<path d="M397.779 584.309H399.166V587.92C399.166 588.419 399.464 588.881 399.943 589.13L403.419 590.935L403.072 591.477L402.724 592.018L399.247 590.213C398.766 589.964 398.175 589.964 397.694 590.213L394.217 592.018L393.869 591.477L393.521 590.935L396.998 589.13C397.479 588.881 397.775 588.419 397.775 587.92V584.309H397.779Z" fill="#B6A06E" fill-opacity="0.55"/>
<path d="M402.65 591.208V591.207L402.702 591.127L399.713 589.574H399.712C399.085 589.248 398.666 588.624 398.666 587.92V584.809H398.274V587.92C398.274 588.579 397.909 589.17 397.344 589.51L397.229 589.574L394.238 591.127L394.29 591.207L394.391 591.365L397.464 589.769C398.089 589.445 398.851 589.445 399.477 589.769H399.478L402.55 591.365L402.65 591.208Z" stroke="#B6A06E" stroke-opacity="0.21"/>
<path d="M419.932 576.834H421.32V573.222C421.32 572.724 421.617 572.262 422.096 572.012L425.573 570.208L425.225 569.665L424.877 569.125L421.4 570.93C420.919 571.179 420.329 571.179 419.847 570.93L416.371 569.125L416.023 569.665L415.675 570.208L419.151 572.012C419.633 572.262 419.928 572.724 419.928 573.222V576.834H419.932Z" fill="#B6A06E" fill-opacity="0.55"/>
<path d="M424.804 569.935V569.936L424.855 570.016L421.866 571.568H421.865C421.238 571.894 420.819 572.518 420.819 573.223V576.334H420.428V573.223C420.428 572.563 420.062 571.973 419.497 571.633L419.382 571.568L416.392 570.016L416.443 569.936L416.544 569.777L419.617 571.374C420.243 571.698 421.004 571.698 421.63 571.374H421.631L424.703 569.777L424.804 569.935Z" stroke="#B6A06E" stroke-opacity="0.21"/>
<path d="M419.932 584.309H421.32V587.92C421.32 588.419 421.617 588.881 422.096 589.13L425.573 590.935L425.225 591.477L424.877 592.018L421.4 590.213C420.919 589.964 420.329 589.964 419.847 590.213L416.371 592.018L416.023 591.477L415.675 590.935L419.151 589.13C419.633 588.881 419.928 588.419 419.928 587.92V584.309H419.932Z" fill="#B6A06E" fill-opacity="0.55"/>
<path d="M424.804 591.208V591.207L424.855 591.127L421.866 589.574H421.865C421.238 589.248 420.819 588.624 420.819 587.92V584.809H420.428V587.92C420.428 588.579 420.062 589.17 419.497 589.51L419.382 589.574L416.392 591.127L416.443 591.207L416.544 591.365L419.617 589.769C420.243 589.445 421.004 589.445 421.63 589.769H421.631L424.703 591.365L424.804 591.208Z" stroke="#B6A06E" stroke-opacity="0.21"/>
<path d="M397.779 766.548H399.166V762.937C399.166 762.439 399.464 761.976 399.943 761.727L403.419 759.922L403.072 759.38L402.724 758.84L399.247 760.645C398.766 760.894 398.175 760.894 397.694 760.645L394.217 758.84L393.869 759.38L393.521 759.922L396.998 761.727C397.479 761.976 397.775 762.439 397.775 762.937V766.548H397.779Z" fill="#B6A06E" fill-opacity="0.55"/>
<path d="M402.65 759.649V759.65L402.702 759.73L399.713 761.283H399.712C399.085 761.609 398.666 762.233 398.666 762.938V766.049H398.274V762.938C398.274 762.278 397.909 761.688 397.344 761.348L397.229 761.283L394.238 759.73L394.29 759.65L394.391 759.492L397.464 761.089C398.089 761.413 398.851 761.413 399.477 761.089H399.478L402.55 759.492L402.65 759.649Z" stroke="#B6A06E" stroke-opacity="0.21"/>
<path d="M397.779 774.024H399.166V777.635C399.166 778.134 399.464 778.596 399.943 778.845L403.419 780.65L403.072 781.192L402.724 781.732L399.247 779.928C398.766 779.678 398.175 779.678 397.694 779.928L394.217 781.732L393.869 781.192L393.521 780.65L396.998 778.845C397.479 778.596 397.775 778.134 397.775 777.635V774.024H397.779Z" fill="#B6A06E" fill-opacity="0.55"/>
<path d="M402.65 780.923V780.922L402.702 780.842L399.713 779.289H399.712C399.085 778.963 398.666 778.339 398.666 777.635V774.523H398.274V777.635C398.274 778.294 397.909 778.884 397.344 779.225L397.229 779.289L394.238 780.842L394.29 780.922L394.391 781.08L397.464 779.483C398.089 779.16 398.851 779.16 399.477 779.483H399.478L402.55 781.08L402.65 780.923Z" stroke="#B6A06E" stroke-opacity="0.21"/>
<path d="M419.932 766.548H421.32V762.937C421.32 762.439 421.617 761.976 422.096 761.727L425.573 759.922L425.225 759.38L424.877 758.84L421.4 760.645C420.919 760.894 420.329 760.894 419.847 760.645L416.371 758.84L416.023 759.38L415.675 759.922L419.151 761.727C419.633 761.976 419.928 762.439 419.928 762.937V766.548H419.932Z" fill="#B6A06E" fill-opacity="0.55"/>
<path d="M424.804 759.649V759.65L424.855 759.73L421.866 761.283H421.865C421.238 761.609 420.819 762.233 420.819 762.938V766.049H420.428V762.938C420.428 762.278 420.062 761.688 419.497 761.348L419.382 761.283L416.392 759.73L416.443 759.65L416.544 759.492L419.617 761.089C420.243 761.413 421.004 761.413 421.63 761.089H421.631L424.703 759.492L424.804 759.649Z" stroke="#B6A06E" stroke-opacity="0.21"/>
<path d="M419.932 774.024H421.32V777.635C421.32 778.134 421.617 778.596 422.096 778.845L425.573 780.65L425.225 781.192L424.877 781.732L421.4 779.928C420.919 779.678 420.329 779.678 419.847 779.928L416.371 781.732L416.023 781.192L415.675 780.65L419.151 778.845C419.633 778.596 419.928 778.134 419.928 777.635V774.024H419.932Z" fill="#B6A06E" fill-opacity="0.55"/>
<path d="M424.804 780.923V780.922L424.855 780.842L421.866 779.289H421.865C421.238 778.963 420.819 778.339 420.819 777.635V774.523H420.428V777.635C420.428 778.294 420.062 778.884 419.497 779.225L419.382 779.289L416.392 780.842L416.443 780.922L416.544 781.08L419.617 779.483C420.243 779.16 421.004 779.16 421.63 779.483H421.631L424.703 781.08L424.804 780.923Z" stroke="#B6A06E" stroke-opacity="0.21"/>
<path d="M186.89 387.127H188.278V383.515C188.278 383.017 188.575 382.555 189.054 382.305L192.531 380.5L192.183 379.958L191.835 379.418L188.358 381.223C187.877 381.472 187.287 381.472 186.805 381.223L183.329 379.418L182.981 379.958L182.633 380.5L186.109 382.305C186.591 382.555 186.886 383.017 186.886 383.515V387.127H186.89Z" fill="#B6A06E" fill-opacity="0.55"/>
<path d="M191.762 380.228V380.229L191.813 380.309L188.824 381.861H188.823C188.196 382.187 187.777 382.811 187.777 383.516V386.627H187.386V383.516C187.386 382.856 187.02 382.266 186.455 381.926L186.34 381.861L183.35 380.309L183.401 380.229L183.502 380.07L186.575 381.667C187.201 381.991 187.962 381.991 188.588 381.667H188.589L191.661 380.07L191.762 380.228Z" stroke="#B6A06E" stroke-opacity="0.21"/>
<path d="M186.89 394.602H188.278V398.213C188.278 398.712 188.575 399.174 189.054 399.423L192.531 401.228L192.183 401.77L191.835 402.311L188.358 400.506C187.877 400.256 187.287 400.256 186.805 400.506L183.329 402.311L182.981 401.77L182.633 401.228L186.109 399.423C186.591 399.174 186.886 398.712 186.886 398.213V394.602H186.89Z" fill="#B6A06E" fill-opacity="0.55"/>
<path d="M191.762 401.501V401.5L191.813 401.42L188.824 399.867H188.823C188.196 399.541 187.777 398.917 187.777 398.213V395.102H187.386V398.213C187.386 398.872 187.02 399.463 186.455 399.803L186.34 399.867L183.35 401.42L183.401 401.5L183.502 401.658L186.575 400.062C187.201 399.738 187.962 399.738 188.588 400.062H188.589L191.661 401.658L191.762 401.501Z" stroke="#B6A06E" stroke-opacity="0.21"/>
<path d="M209.043 387.127H210.431V383.515C210.431 383.017 210.728 382.555 211.207 382.305L214.684 380.5L214.336 379.958L213.988 379.418L210.512 381.223C210.03 381.472 209.44 381.472 208.958 381.223L205.482 379.418L205.134 379.958L204.786 380.5L208.263 382.305C208.744 382.555 209.039 383.017 209.039 383.515V387.127H209.043Z" fill="#B6A06E" fill-opacity="0.55"/>
<path d="M213.915 380.228V380.229L213.967 380.309L210.978 381.861H210.977C210.35 382.187 209.931 382.811 209.931 383.516V386.627H209.539V383.516C209.539 382.856 209.174 382.266 208.608 381.926L208.493 381.861L205.503 380.309L205.555 380.229L205.655 380.07L208.729 381.667C209.354 381.991 210.116 381.991 210.741 381.667H210.742L213.814 380.07L213.915 380.228Z" stroke="#B6A06E" stroke-opacity="0.21"/>
<path d="M209.043 394.602H210.431V398.213C210.431 398.712 210.728 399.174 211.207 399.423L214.684 401.228L214.336 401.77L213.988 402.311L210.512 400.506C210.03 400.256 209.44 400.256 208.958 400.506L205.482 402.311L205.134 401.77L204.786 401.228L208.263 399.423C208.744 399.174 209.039 398.712 209.039 398.213V394.602H209.043Z" fill="#B6A06E" fill-opacity="0.55"/>
<path d="M213.915 401.501V401.5L213.967 401.42L210.978 399.867H210.977C210.35 399.541 209.931 398.917 209.931 398.213V395.102H209.539V398.213C209.539 398.872 209.174 399.463 208.608 399.803L208.493 399.867L205.503 401.42L205.555 401.5L205.655 401.658L208.729 400.062C209.354 399.738 210.116 399.738 210.741 400.062H210.742L213.814 401.658L213.915 401.501Z" stroke="#B6A06E" stroke-opacity="0.21"/>
<path d="M186.89 197.42H188.278V193.808C188.278 193.31 188.575 192.848 189.054 192.598L192.531 190.793L192.183 190.251L191.835 189.711L188.358 191.516C187.877 191.765 187.287 191.765 186.805 191.516L183.329 189.711L182.981 190.251L182.633 190.793L186.109 192.598C186.591 192.848 186.886 193.31 186.886 193.808V197.42H186.89Z" fill="#B6A06E" fill-opacity="0.55"/>
<path d="M191.762 190.521V190.521L191.813 190.602L188.824 192.154H188.823C188.196 192.48 187.777 193.104 187.777 193.809V196.92H187.386V193.809C187.386 193.149 187.02 192.559 186.455 192.219L186.34 192.154L183.35 190.602L183.401 190.521L183.502 190.363L186.575 191.96C187.201 192.284 187.962 192.284 188.588 191.96H188.589L191.661 190.363L191.762 190.521Z" stroke="#B6A06E" stroke-opacity="0.21"/>
<path d="M186.89 204.895H188.278V208.506C188.278 209.005 188.575 209.467 189.054 209.716L192.531 211.521L192.183 212.063L191.835 212.604L188.358 210.799C187.877 210.549 187.287 210.549 186.805 210.799L183.329 212.604L182.981 212.063L182.633 211.521L186.109 209.716C186.591 209.467 186.886 209.005 186.886 208.506V204.895H186.89Z" fill="#B6A06E" fill-opacity="0.55"/>
<path d="M191.762 211.794V211.793L191.813 211.713L188.824 210.16H188.823C188.196 209.834 187.777 209.21 187.777 208.506V205.395H187.386V208.506C187.386 209.165 187.02 209.756 186.455 210.096L186.34 210.16L183.35 211.713L183.401 211.793L183.502 211.951L186.575 210.354C187.201 210.031 187.962 210.031 188.588 210.354H188.589L191.661 211.951L191.762 211.794Z" stroke="#B6A06E" stroke-opacity="0.21"/>
<path d="M209.043 197.42H210.431V193.808C210.431 193.31 210.728 192.848 211.207 192.598L214.684 190.793L214.336 190.251L213.988 189.711L210.512 191.516C210.03 191.765 209.44 191.765 208.958 191.516L205.482 189.711L205.134 190.251L204.786 190.793L208.263 192.598C208.744 192.848 209.039 193.31 209.039 193.808V197.42H209.043Z" fill="#B6A06E" fill-opacity="0.55"/>
<path d="M213.915 190.521V190.521L213.967 190.602L210.978 192.154H210.977C210.35 192.48 209.931 193.104 209.931 193.809V196.92H209.539V193.809C209.539 193.149 209.174 192.559 208.608 192.219L208.493 192.154L205.503 190.602L205.555 190.521L205.655 190.363L208.729 191.96C209.354 192.284 210.116 192.284 210.741 191.96H210.742L213.814 190.363L213.915 190.521Z" stroke="#B6A06E" stroke-opacity="0.21"/>
<path d="M209.043 204.895H210.431V208.506C210.431 209.005 210.728 209.467 211.207 209.716L214.684 211.521L214.336 212.063L213.988 212.604L210.512 210.799C210.03 210.549 209.44 210.549 208.958 210.799L205.482 212.604L205.134 212.063L204.786 211.521L208.263 209.716C208.744 209.467 209.039 209.005 209.039 208.506V204.895H209.043Z" fill="#B6A06E" fill-opacity="0.55"/>
<path d="M213.915 211.794V211.793L213.967 211.713L210.978 210.16H210.977C210.35 209.834 209.931 209.21 209.931 208.506V205.395H209.539V208.506C209.539 209.165 209.174 209.756 208.608 210.096L208.493 210.16L205.503 211.713L205.555 211.793L205.655 211.951L208.729 210.354C209.354 210.031 210.116 210.031 210.741 210.354H210.742L213.814 211.951L213.915 211.794Z" stroke="#B6A06E" stroke-opacity="0.21"/>
<path d="M186.89 7.7086H188.278V4.09719C188.278 3.59868 188.575 3.13657 189.054 2.88731L192.531 1.08252L192.183 0.540349L191.835 0L188.358 1.8048C187.877 2.05405 187.287 2.05405 186.805 1.8048L183.329 0L182.981 0.540349L182.633 1.08252L186.109 2.88731C186.591 3.13657 186.886 3.59868 186.886 4.09719V7.7086H186.89Z" fill="#B6A06E" fill-opacity="0.55"/>
<path d="M191.762 0.80957V0.810547L191.813 0.890625L188.824 2.44336H188.823C188.196 2.76938 187.777 3.39331 187.777 4.09766V7.20898H187.386V4.09766C187.386 3.43821 187.02 2.84799 186.455 2.50781L186.34 2.44336L183.35 0.890625L183.401 0.810547L183.502 0.652344L186.575 2.24902C187.201 2.57284 187.962 2.5727 188.588 2.24902H188.589L191.661 0.652344L191.762 0.80957Z" stroke="#B6A06E" stroke-opacity="0.21"/>
<path d="M186.89 15.184H188.278V18.7954C188.278 19.2939 188.575 19.756 189.054 20.0053L192.531 21.8101L192.183 22.3522L191.835 22.8926L188.358 21.0878C187.877 20.8385 187.287 20.8385 186.805 21.0878L183.329 22.8926L182.981 22.3522L182.633 21.8101L186.109 20.0053C186.591 19.756 186.886 19.2939 186.886 18.7954V15.184H186.89Z" fill="#B6A06E" fill-opacity="0.55"/>
<path d="M191.762 22.083V22.082L191.813 22.002L188.824 20.4492H188.823C188.196 20.1232 187.777 19.4993 187.777 18.7949V15.6836H187.386V18.7949C187.386 19.4544 187.02 20.0446 186.455 20.3848L186.34 20.4492L183.35 22.002L183.401 22.082L183.502 22.2402L186.575 20.6436C187.201 20.3197 187.962 20.3199 188.588 20.6436H188.589L191.661 22.2402L191.762 22.083Z" stroke="#B6A06E" stroke-opacity="0.21"/>
<path d="M209.043 7.7086H210.431V4.09719C210.431 3.59868 210.728 3.13657 211.207 2.88731L214.684 1.08252L214.336 0.540349L213.988 0L210.512 1.8048C210.03 2.05405 209.44 2.05405 208.958 1.8048L205.482 0L205.134 0.540349L204.786 1.08252L208.263 2.88731C208.744 3.13657 209.039 3.59868 209.039 4.09719V7.7086H209.043Z" fill="#B6A06E" fill-opacity="0.55"/>
<path d="M213.915 0.80957V0.810547L213.967 0.890625L210.978 2.44336H210.977C210.35 2.76938 209.931 3.39331 209.931 4.09766V7.20898H209.539V4.09766C209.539 3.43821 209.174 2.84799 208.608 2.50781L208.493 2.44336L205.503 0.890625L205.555 0.810547L205.655 0.652344L208.729 2.24902C209.354 2.57284 210.116 2.5727 210.741 2.24902H210.742L213.814 0.652344L213.915 0.80957Z" stroke="#B6A06E" stroke-opacity="0.21"/>
<path d="M209.043 15.184H210.431V18.7954C210.431 19.2939 210.728 19.756 211.207 20.0053L214.684 21.8101L214.336 22.3522L213.988 22.8926L210.512 21.0878C210.03 20.8385 209.44 20.8385 208.958 21.0878L205.482 22.8926L205.134 22.3522L204.786 21.8101L208.263 20.0053C208.744 19.756 209.039 19.2939 209.039 18.7954V15.184H209.043Z" fill="#B6A06E" fill-opacity="0.55"/>
<path d="M213.915 22.083V22.082L213.967 22.002L210.978 20.4492H210.977C210.35 20.1232 209.931 19.4993 209.931 18.7949V15.6836H209.539V18.7949C209.539 19.4544 209.174 20.0446 208.608 20.3848L208.493 20.4492L205.503 22.002L205.555 22.082L205.655 22.2402L208.729 20.6436C209.354 20.3197 210.116 20.3199 210.741 20.6436H210.742L213.814 22.2402L213.915 22.083Z" stroke="#B6A06E" stroke-opacity="0.21"/>
<path d="M186.89 576.834H188.278V573.222C188.278 572.724 188.575 572.262 189.054 572.012L192.531 570.208L192.183 569.665L191.835 569.125L188.358 570.93C187.877 571.179 187.287 571.179 186.805 570.93L183.329 569.125L182.981 569.665L182.633 570.208L186.109 572.012C186.591 572.262 186.886 572.724 186.886 573.222V576.834H186.89Z" fill="#B6A06E" fill-opacity="0.55"/>
<path d="M191.762 569.935V569.936L191.813 570.016L188.824 571.568H188.823C188.196 571.894 187.777 572.518 187.777 573.223V576.334H187.386V573.223C187.386 572.563 187.02 571.973 186.455 571.633L186.34 571.568L183.35 570.016L183.401 569.936L183.502 569.777L186.575 571.374C187.201 571.698 187.962 571.698 188.588 571.374H188.589L191.661 569.777L191.762 569.935Z" stroke="#B6A06E" stroke-opacity="0.21"/>
<path d="M186.89 584.309H188.278V587.92C188.278 588.419 188.575 588.881 189.054 589.13L192.531 590.935L192.183 591.477L191.835 592.018L188.358 590.213C187.877 589.964 187.287 589.964 186.805 590.213L183.329 592.018L182.981 591.477L182.633 590.935L186.109 589.13C186.591 588.881 186.886 588.419 186.886 587.92V584.309H186.89Z" fill="#B6A06E" fill-opacity="0.55"/>
<path d="M191.762 591.208V591.207L191.813 591.127L188.824 589.574H188.823C188.196 589.248 187.777 588.624 187.777 587.92V584.809H187.386V587.92C187.386 588.579 187.02 589.17 186.455 589.51L186.34 589.574L183.35 591.127L183.401 591.207L183.502 591.365L186.575 589.769C187.201 589.445 187.962 589.445 188.588 589.769H188.589L191.661 591.365L191.762 591.208Z" stroke="#B6A06E" stroke-opacity="0.21"/>
<path d="M209.043 576.834H210.431V573.222C210.431 572.724 210.728 572.262 211.207 572.012L214.684 570.208L214.336 569.665L213.988 569.125L210.512 570.93C210.03 571.179 209.44 571.179 208.958 570.93L205.482 569.125L205.134 569.665L204.786 570.208L208.263 572.012C208.744 572.262 209.039 572.724 209.039 573.222V576.834H209.043Z" fill="#B6A06E" fill-opacity="0.55"/>
<path d="M213.915 569.935V569.936L213.967 570.016L210.978 571.568H210.977C210.35 571.894 209.931 572.518 209.931 573.223V576.334H209.539V573.223C209.539 572.563 209.174 571.973 208.608 571.633L208.493 571.568L205.503 570.016L205.555 569.936L205.655 569.777L208.729 571.374C209.354 571.698 210.116 571.698 210.741 571.374H210.742L213.814 569.777L213.915 569.935Z" stroke="#B6A06E" stroke-opacity="0.21"/>
<path d="M209.043 584.309H210.431V587.92C210.431 588.419 210.728 588.881 211.207 589.13L214.684 590.935L214.336 591.477L213.988 592.018L210.512 590.213C210.03 589.964 209.44 589.964 208.958 590.213L205.482 592.018L205.134 591.477L204.786 590.935L208.263 589.13C208.744 588.881 209.039 588.419 209.039 587.92V584.309H209.043Z" fill="#B6A06E" fill-opacity="0.55"/>
<path d="M213.915 591.208V591.207L213.967 591.127L210.978 589.574H210.977C210.35 589.248 209.931 588.624 209.931 587.92V584.809H209.539V587.92C209.539 588.579 209.174 589.17 208.608 589.51L208.493 589.574L205.503 591.127L205.555 591.207L205.655 591.365L208.729 589.769C209.354 589.445 210.116 589.445 210.741 589.769H210.742L213.814 591.365L213.915 591.208Z" stroke="#B6A06E" stroke-opacity="0.21"/>
<path d="M186.89 766.548H188.278V762.937C188.278 762.439 188.575 761.976 189.054 761.727L192.531 759.922L192.183 759.38L191.835 758.84L188.358 760.645C187.877 760.894 187.287 760.894 186.805 760.645L183.329 758.84L182.981 759.38L182.633 759.922L186.109 761.727C186.591 761.976 186.886 762.439 186.886 762.937V766.548H186.89Z" fill="#B6A06E" fill-opacity="0.55"/>
<path d="M191.762 759.649V759.65L191.813 759.73L188.824 761.283H188.823C188.196 761.609 187.777 762.233 187.777 762.938V766.049H187.386V762.938C187.386 762.278 187.02 761.688 186.455 761.348L186.34 761.283L183.35 759.73L183.401 759.65L183.502 759.492L186.575 761.089C187.201 761.413 187.962 761.413 188.588 761.089H188.589L191.661 759.492L191.762 759.649Z" stroke="#B6A06E" stroke-opacity="0.21"/>
<path d="M186.89 774.024H188.278V777.635C188.278 778.134 188.575 778.596 189.054 778.845L192.531 780.65L192.183 781.192L191.835 781.732L188.358 779.928C187.877 779.678 187.287 779.678 186.805 779.928L183.329 781.732L182.981 781.192L182.633 780.65L186.109 778.845C186.591 778.596 186.886 778.134 186.886 777.635V774.024H186.89Z" fill="#B6A06E" fill-opacity="0.55"/>
<path d="M191.762 780.923V780.922L191.813 780.842L188.824 779.289H188.823C188.196 778.963 187.777 778.339 187.777 777.635V774.523H187.386V777.635C187.386 778.294 187.02 778.884 186.455 779.225L186.34 779.289L183.35 780.842L183.401 780.922L183.502 781.08L186.575 779.483C187.201 779.16 187.962 779.16 188.588 779.483H188.589L191.661 781.08L191.762 780.923Z" stroke="#B6A06E" stroke-opacity="0.21"/>
<path d="M209.043 766.548H210.431V762.937C210.431 762.439 210.728 761.976 211.207 761.727L214.684 759.922L214.336 759.38L213.988 758.84L210.512 760.645C210.03 760.894 209.44 760.894 208.958 760.645L205.482 758.84L205.134 759.38L204.786 759.922L208.263 761.727C208.744 761.976 209.039 762.439 209.039 762.937V766.548H209.043Z" fill="#B6A06E" fill-opacity="0.55"/>
<path d="M213.915 759.649V759.65L213.967 759.73L210.978 761.283H210.977C210.35 761.609 209.931 762.233 209.931 762.938V766.049H209.539V762.938C209.539 762.278 209.174 761.688 208.608 761.348L208.493 761.283L205.503 759.73L205.555 759.65L205.655 759.492L208.729 761.089C209.354 761.413 210.116 761.413 210.741 761.089H210.742L213.814 759.492L213.915 759.649Z" stroke="#B6A06E" stroke-opacity="0.21"/>
<path d="M209.043 774.024H210.431V777.635C210.431 778.134 210.728 778.596 211.207 778.845L214.684 780.65L214.336 781.192L213.988 781.732L210.512 779.928C210.03 779.678 209.44 779.678 208.958 779.928L205.482 781.732L205.134 781.192L204.786 780.65L208.263 778.845C208.744 778.596 209.039 778.134 209.039 777.635V774.024H209.043Z" fill="#B6A06E" fill-opacity="0.55"/>
<path d="M213.915 780.923V780.922L213.967 780.842L210.978 779.289H210.977C210.35 778.963 209.931 778.339 209.931 777.635V774.523H209.539V777.635C209.539 778.294 209.174 778.884 208.608 779.225L208.493 779.289L205.503 780.842L205.555 780.922L205.655 781.08L208.729 779.483C209.354 779.16 210.116 779.16 210.741 779.483H210.742L213.814 781.08L213.915 780.923Z" stroke="#B6A06E" stroke-opacity="0.21"/>
</svg>
